<svg width="951" height="689" viewBox="0 0 951 689" fill="none" xmlns="http://www.w3.org/2000/svg">
<path d="M675 364C707 327.835 725.5 329 757 353.5C757 353.5 765 361.5 785.105 358.972C805.21 356.445 834 328 871 352.5C908 377 922 367.5 937.5 347" stroke="black" stroke-linecap="round"/>
<path d="M685 218.5C689.295 189.509 693.511 175.359 737 192C747.702 156.808 759.256 153.821 787 170" stroke="black" stroke-linecap="round"/>
<path d="M937 451.402H675" stroke="black" stroke-linecap="round"/>
<path d="M937 451V334" stroke="black" stroke-linecap="round"/>
<path d="M937 88V334.5" stroke="black" stroke-linecap="round"/>
<path d="M934.5 609.134H674.5" stroke="black" stroke-linecap="round"/>
<path d="M707 451L691 530L675 609L659 688" stroke="black" stroke-linecap="round"/>
<path d="M902 451L918 530L934 609L950 688" stroke="black" stroke-linecap="round"/>
<path d="M675 451V355.5V87" stroke="black" stroke-linecap="round"/>
<path d="M937 88L833.5 87.6144L771.5 87.3835L675 87.024" stroke="black" stroke-linecap="round"/>
<path d="M771.5 87.3835L789 0.500005L817 0.500005L833.5 87.6144" stroke="black" stroke-linecap="round"/>
<path d="M248.5 262C270.946 291.304 265.763 447.214 247.6 481.126M284 686.491C257.074 686.491 252.191 689.497 251.729 667.958C251.747 661.061 252.191 651.671 252.191 638.907C249.028 602.799 252.184 548.602 247.6 481.126M247.6 481.126C224.575 532.486 191.316 609.834 156.495 650.427C123.411 688.996 128.427 690.498 102 686.491" stroke="black" stroke-linecap="round"/>
<path d="M36.5249 189.818C73.6711 161.323 107.673 229.478 101.205 259.314C94.7365 289.15 84.1753 310.407 36.5249 319.714C2.33357 323.086 -5.27074 295.673 5.62241 289.878C26.8229 278.598 36.5249 272.777 36.5249 259.314C36.5249 241.799 7.7784 211.87 36.5249 189.818Z" stroke="black"/>
<path d="M289.244 204.1H201.217M289.244 204.1C289.244 230.073 268.433 262 248.579 262C228.725 262 213.895 249.249 201.217 204.1M289.244 204.1C294.028 202.158 294.923 201.628 296.667 200.701C298.986 199.47 306.957 195.604 304.553 183.224C301.915 169.631 294.369 160.546 287.331 155.794C277.824 148.531 264.367 150.697 254.32 154.581C244.274 158.465 229.443 170.116 219.396 167.203C209.35 164.29 197.638 166.475 190.692 170.602C183.745 174.728 181.483 177.472 183.99 191.477C185.891 198.162 194.527 204.1 201.217 204.1" stroke="black"/>
<path d="M65.5 241.067C77.8095 239.679 75.8133 260.163 65.5 261.899C55.1867 263.635 53.1905 242.456 65.5 241.067Z" stroke="black"/>
<path d="M55.3411 198.476C70.1874 194.763 71.5698 214 55.3411 214C42.4484 214 43.332 201.479 55.3411 198.476Z" stroke="black"/>
<path d="M48.4033 284.413C58.0561 287.877 51.1627 304.44 40.1251 302.899C21.8606 300.35 38.7453 280.947 48.4033 284.413Z" stroke="black"/>
<path d="M228.5 166.5L225 155" stroke="black" stroke-linecap="round"/>
<path d="M258 292C213 368.336 148 318.248 102 262" stroke="black" stroke-linecap="round"/>
<path d="M414.582 368C410.035 257.819 433.337 222.176 442.567 225.172C446.377 225.678 447.174 230.618 448.548 238.157C451.188 252.639 442.567 295.587 414.582 368Z" stroke="black"/>
<path d="M441.645 224.967C430.59 222.886 428.053 208.333 434.467 198.756C445.151 182.626 450.445 171.369 451.864 167C451.23 169.184 451.827 177.888 458.433 201.276C461.158 212.366 453.816 225.747 441.645 224.967Z" stroke="black"/>
<path d="M825 189.826C829.513 165.746 836.533 156.638 873 163.826C882.02 139.355 892.048 133.467 920 138.826" stroke="black" stroke-linecap="round"/>
<path d="M798 265C799.729 251.211 803.595 247.444 818 251C822.511 236.475 827.667 233.168 841 235" stroke="black" stroke-linecap="round"/>
<path d="M918 530.268H691" stroke="black" stroke-linecap="round"/>
<path d="M258 292C283.833 307.234 342 338.336 414 318.248" stroke="black" stroke-linecap="round"/>
</svg>
