<svg width="958" height="546" viewBox="0 0 958 546" fill="none" xmlns="http://www.w3.org/2000/svg">
<path d="M1 545H149" stroke="black"/>
<path d="M1 397V545" stroke="black"/>
<path d="M1 1V149" stroke="black"/>
<path d="M149 1H1" stroke="black"/>
<path d="M957 545H809" stroke="black"/>
<path d="M957 397V471V545" stroke="black"/>
<path d="M809 1H957" stroke="black"/>
<path d="M957 1V75V149" stroke="black"/>
<path d="M20 29C14.0346 29 15.8293 34.3345 20.8889 32.8889C24.6981 31.8005 24.6981 26.1994 20.8889 25.1111C15.6479 23.6137 13.7483 30.3046 18 32.5555C22.9787 35.1913 26.6538 29.3269 22 27" stroke="black" stroke-width="5" stroke-linecap="round"/>
<path d="M889.001 502C889.001 516.138 888.674 515.448 904 515.276M904 515.276V502M904 515.276V532" stroke="black" stroke-linecap="round"/>
<path d="M38.0004 505C38.0004 514.897 37.7613 514.414 49 514.293M49 514.293V505M49 514.293V526" stroke="black" stroke-linecap="round"/>
<path d="M916 502V519.586M916 532V519.586M916 519.586C919.175 509.586 922.192 504.912 927.994 502M916 519.586C924.466 519.586 928.171 524.073 927.994 532" stroke="black" stroke-linecap="round"/>
<path d="M24 511.667L28.4333 506.89C31 504.375 31 504.124 31 507.644V526" stroke="black" stroke-linecap="round"/>
<path d="M61 511.985L64.8 506.98C67 504.346 67 504.082 67 507.77V527" stroke="black" stroke-linecap="round"/>
<path d="M85.3249 507.923C78.9251 499.021 66.3389 512.161 74.8719 524.454M74.8719 524.454C79.5651 530.6 88.5248 524.454 85.3249 518.308C82.125 512.161 71.4587 515.976 74.8719 524.454Z" stroke="black" stroke-linecap="round"/>
<path d="M56 526.25V526" stroke="black" stroke-width="3" stroke-linecap="round"/>
</svg>
