<svg width="572" height="270" viewBox="0 0 572 270" fill="none" xmlns="http://www.w3.org/2000/svg">
<path d="M190 178C186.667 197 194.4 228 252 200" stroke="black"/>
<path d="M71 178C-15 200 -24 98 59 98" stroke="black"/>
<path d="M71 178C22.6266 273.962 102 292 257 238" stroke="black"/>
<path d="M442 200C338 284 275 284 257 238" stroke="black"/>
<path d="M541 105C599 133 566 238 442 200" stroke="black"/>
<path d="M442 32C541 -9 616 32 541 105" stroke="black"/>
<path d="M225 51C343 -18 415.63 -7.21112 442 32" stroke="black"/>
<path d="M59 98C59 32 159 -7.00002 225 51" stroke="black"/>
</svg>
