<svg width="639" height="166" viewBox="0 0 639 166" fill="none" xmlns="http://www.w3.org/2000/svg">
<path d="M235 29C308 -22.5 362 13 362 13C362 13 366.718 14.8413 371.119 19.5C371.834 20.2575 372.542 21.0894 373.219 22C374.673 23.9563 375.989 26.2758 376.952 29C378.053 32.1163 378.691 35.7622 378.546 40C378.17 50.9904 372.523 65.9616 356 86" stroke="black" stroke-linecap="round"/>
<path d="M371.119 19.5L409 7.5L376.952 29" stroke="black" stroke-linecap="round"/>
<path d="M356 86C309 143 160.9 159.31 80 165" stroke="black" stroke-linecap="round"/>
<path d="M1 19C32.2082 56.2921 180 56 235 29" stroke="black" stroke-linecap="round"/>
<path d="M390.5 40C412.204 34.034 442 64 478 85C514 106 609.185 85.1579 638 69" stroke="black" stroke-linecap="round"/>
<path d="M324 30H325" stroke="black" stroke-width="3" stroke-linecap="round"/>
<path d="M9 157C63 140.317 190.8 85.7268 222 62" stroke="black" stroke-linecap="round"/>
</svg>
