<svg width="493" height="192" viewBox="0 0 493 192" fill="none" xmlns="http://www.w3.org/2000/svg">
<path d="M156 55C229 3.5 283 39 283 39C283 39 287.718 40.8413 292.119 45.5C292.834 46.2575 293.542 47.0894 294.219 48C295.673 49.9563 296.989 52.2758 297.952 55C299.053 58.1163 299.691 61.7622 299.546 66C299.17 76.9904 293.523 91.9616 277 112" stroke="black" stroke-linecap="round"/>
<path d="M292.119 45.5L330 33.5L297.952 55" stroke="black" stroke-linecap="round"/>
<path d="M277 112C230 169 81.9004 185.31 1 191" stroke="black" stroke-linecap="round"/>
<path d="M1 191C37 173 122.2 114.1 143 88.5" stroke="black" stroke-linecap="round"/>
<path d="M34 1C65.2082 38.2921 89.6836 52.3207 156 55" stroke="black" stroke-linecap="round"/>
<path d="M311.5 66C333.204 60.034 345.5 69.7372 366.5 75.6186C387.5 81.5 463.685 82.1579 492.5 66" stroke="black" stroke-linecap="round"/>
<path d="M245 56H246" stroke="black" stroke-width="3" stroke-linecap="round"/>
</svg>
