<svg width="640" height="371" viewBox="0 0 640 371" fill="none" xmlns="http://www.w3.org/2000/svg">
<path d="M154 119C-25 34.9998 -60 294 121 232" stroke="black" stroke-linecap="round"/>
<path d="M346 247C384 352 257 401 231 255" stroke="black" stroke-linecap="round"/>
<path d="M241.132 292C201.798 312.667 109.1 328.7 95.5 241.5" stroke="black" stroke-linecap="round"/>
<path d="M140.5 119C119.5 89.9999 154 68.5 169 101" stroke="black" stroke-linecap="round"/>
<path d="M256.5 285C258.5 289.833 267.5 299.3 287.5 298.5" stroke="black" stroke-linecap="round"/>
<path d="M105 119C29.5 107 -5 223 80 223" stroke="black" stroke-linecap="round"/>
<path d="M550 223C644 384 340 448 406 232" stroke="black" stroke-linecap="round"/>
<path d="M478 96.9999C661.077 39.2657 688 231 561 246" stroke="black" stroke-linecap="round"/>
<path d="M325 96.9999C319 -50 521 -8.99999 496 87.9999" stroke="black" stroke-linecap="round"/>
<path d="M375 42C377.667 33.3333 389.2 16.6 414 19" stroke="black" stroke-linecap="round"/>
<path d="M223 61C225.333 52 237 34.2 265 35" stroke="black" stroke-linecap="round"/>
<path d="M164 126C154 28 274 -16 333.053 47" stroke="black" stroke-linecap="round"/>
</svg>
