<svg width="169" height="299" viewBox="0 0 169 299" fill="none" xmlns="http://www.w3.org/2000/svg">
<g clip-path="url(#clip0_0_1)">
<path d="M15.5005 102C12.7254 102.93 1.00057 147.5 0.500504 155C0.000442822 162.5 76.0006 178 76.0006 178" stroke="black"/>
<path d="M15.5 102C15.5 102 25.5733 140.599 34.5 144C55.5 152 87.0001 159 87.0001 159" stroke="black"/>
<path d="M145.5 118.5L154 138" stroke="black"/>
<path d="M125 129L140 144" stroke="black"/>
<path d="M102 144L125 159" stroke="black"/>
<path d="M68 181.5H136.5L168 129" stroke="black"/>
<path d="M13 201.5C32.3883 199.654 46.935 198.216 58 197.688C72.3465 197.688 83.0179 197.117 91.0001 197.392C96.2101 197.572 100.288 197.451 103.5 197.801C106.475 198.126 108.533 197.867 110 198.283C115.07 199.502 118.5 222.5 115 267L130.5 282.5" stroke="black"/>
<path d="M25 67C21 81.5 15.5 102 15.5 102C11.481 121.044 10.4959 131.915 10 151.5C10 171.5 10 180 13 201.5C26.5566 207.1 38.3193 211.609 48.5 215.5C76.2506 226.106 96 233.5 96 233.5C102.5 235.5 108.93 272.594 109 290C114.637 294.427 117.538 296.342 123 298" stroke="black"/>
<path d="M65.0678 43.1822C58.0742 61.1542 39.8093 70.6775 24.8499 64.8562C9.8981 59.0379 3.25299 39.836 10.2501 21.855C17.2214 3.93999 33.8071 -2.60867 48.8186 3.23285C63.839 9.07784 72.0356 25.2762 65.0678 43.1822Z" stroke="black"/>
</g>
<defs>
<clipPath id="clip0_0_1">
<rect width="169" height="299" fill="white"/>
</clipPath>
</defs>
</svg>
