<svg width="44" height="160" viewBox="0 0 44 160" fill="none" xmlns="http://www.w3.org/2000/svg">
<rect width="44" height="160" fill="#F5F5F5"/>
<path d="M20.4312 33C44.1017 46.2664 42.5 84.5 42.5 84.5" stroke="black"/>
<path d="M28.5 97C51.5 106.5 42.5 118 28.5 159.5" stroke="black"/>
<path d="M38.5 159.5L28.5 97C19.5989 46.5768 19.7618 57.2046 20.4312 33" stroke="black"/>
<path d="M36.5 14.5C36.5 22.232 30.232 28.5 22.5 28.5C14.768 28.5 8.5 22.232 8.5 14.5C8.5 6.76801 14.768 0.5 22.5 0.5C30.232 0.5 36.5 6.76801 36.5 14.5Z" stroke="black"/>
<path d="M20.4312 33C10.8902 44.5205 1.49999 62.5 1.49999 62.5C-1.5 70 7.5 71.5 16 79.5" stroke="black"/>
</svg>
