<svg width="589" height="1071" viewBox="0 0 589 1071" fill="none" xmlns="http://www.w3.org/2000/svg">
<path d="M269.946 456H370.708C381.944 456 381.582 439 370.708 439H269.946M270.264 439C259.028 439.045 259.447 456.043 270.32 456" stroke="black" stroke-linecap="round"/>
<path d="M274.267 473H286C291.75 473 290 477 290 477C282 507.735 319.5 508.5 331 506.5M274.267 456L368.056 456C378 456 378.528 473 368.253 473L357.5 473M274.557 456C264.282 456.045 264.665 473.044 274.609 473" stroke="black" stroke-linecap="round"/>
<path d="M358 473C352.25 473 354 477 354 477" stroke="black" stroke-linecap="round"/>
<path d="M354 477C362 507.734 324.5 508.5 313 506.5" stroke="black" stroke-linecap="round"/>
<path d="M274.267 439H366.417C376.693 439 376.361 422 366.417 422H274.267M274.557 422C264.282 422.045 264.665 439.043 274.609 439" stroke="black" stroke-linecap="round"/>
<path d="M428 310C433.227 282.868 434.277 260.136 433 239.399C427 142 225 123.5 206.8 239" stroke="black" stroke-linecap="round"/>
<path d="M210 311C206.294 284.812 202.433 257.496 207 238M279.057 422C280 418.5 279.5 415.5 279.057 411.5M279.083 412C277.982 389.189 269.581 383.99 244.512 369C219.443 354.01 209.477 311.076 209.737 309" stroke="black" stroke-linecap="round"/>
<path d="M359 422C359 418.262 358.152 416 358.321 412.5C359.422 389.689 368.001 383.99 393.071 369C418.14 354.01 428.106 311.076 427.846 309" stroke="black" stroke-linecap="round"/>
<path d="M262 263C256.5 248.5 269.838 252.593 320.75 263C358.657 257.656 389 248.5 380 263" stroke="black" stroke-linecap="round"/>
<path d="M380.5 262.5C329 355.5 337 381.5 337 422" stroke="black" stroke-linecap="round"/>
<path d="M262 263C313.5 356 304.5 382 304.5 422.5" stroke="black" stroke-linecap="round"/>
<path d="M588 302L469 292" stroke="black"/>
<path d="M588 186L469 208" stroke="black"/>
<path d="M506 34L432 130" stroke="black"/>
<path d="M321.02 0L321.02 96" stroke="black"/>
<path d="M137 34L203 130" stroke="black"/>
<path d="M45 186L166 208" stroke="black"/>
<path d="M33 302L166 292" stroke="black"/>
<path d="M80 432L189 384" stroke="black"/>
<path d="M158.5 673V736V856" stroke="black"/>
<path d="M158.5 856C148.746 931.618 147.849 970.405 125 1034" stroke="black"/>
<path d="M158.5 856C208 864 202 1025 210 1034" stroke="black"/>
<path d="M158.5 736C146 740.128 121.5 757.5 110 833.5" stroke="black"/>
<path d="M158.5 736C213 718 234.601 696.634 231 611" stroke="black"/>
<path d="M84.5 1070H101.5M0 1070H18" stroke="black"/>
<path d="M198.5 633C198.5 654.815 180.815 672.5 159 672.5C137.185 672.5 119.5 654.815 119.5 633C119.5 611.185 137.185 593.5 159 593.5C180.815 593.5 198.5 611.185 198.5 633Z" stroke="black"/>
<path d="M522 427L437 366" stroke="black"/>
</svg>
