<svg width="661" height="402" viewBox="0 0 661 402" fill="none" xmlns="http://www.w3.org/2000/svg">
<path d="M311 252V401M262.5 86.5V244.5C286.833 249.833 308.7 257.3 357.5 244.5V86.5M262.5 86.5C271 51.5 352.5 57.5 357.5 86.5M262.5 86.5C270.5 90.5 277 92 301 93C301 93 325.547 92.8053 333 91.5C358.123 87.0999 351.742 88.3792 357.5 86.5" stroke="black" stroke-linecap="round"/>
<path d="M357.5 140.5C363.268 140.321 370.736 140.343 370.5 140.5C370.264 140.657 370.5 185 370.5 185C370.677 185.404 365.249 185.206 357.5 185" stroke="black" stroke-linecap="round"/>
<path d="M263 125C249.5 124.5 251 125 251 125C251 125 251 146.5 251 147C251 147.5 258.455 147 263 147" stroke="black"/>
<path d="M309.5 70.5V13" stroke="black" stroke-linecap="round"/>
<circle cx="309.5" cy="6.5" r="6" stroke="black"/>
<path d="M315.593 6.76471L346 6.76471M303.43 6.76471L273 6.76471M279.041 2V11" stroke="black" stroke-linecap="round"/>
<path d="M342 2.5V11" stroke="black" stroke-linecap="round"/>
<circle cx="272" cy="125" r="5.5" stroke="black"/>
<circle cx="272.5" cy="149.5" r="6" stroke="black"/>
<path d="M458.75 221.5C458.493 223.734 657.95 222.914 659.5 221.5" stroke="black" stroke-width="0.7" stroke-linecap="round" stroke-linejoin="round"/>
<path d="M458.75 111V137.25V163.5C458.75 163.5 459.007 219.266 458.75 221.5" stroke="black" stroke-width="0.7" stroke-linecap="round" stroke-linejoin="round"/>
<path d="M458.75 111C463.888 108.387 662.903 110.602 659.5 111" stroke="black" stroke-width="0.7" stroke-linecap="round" stroke-linejoin="round"/>
<path d="M218 78V130.5C218 130.5 218.257 185.766 218 188" stroke="black" stroke-width="0.7" stroke-linecap="round" stroke-linejoin="round"/>
<path d="M370.5 163.5H458.75" stroke="black" stroke-linecap="round" stroke-linejoin="round"/>
<path d="M218 188H1" stroke="black" stroke-width="0.7" stroke-linecap="round" stroke-linejoin="round"/>
<path d="M1 188V130V78" stroke="black" stroke-width="0.7" stroke-linecap="round" stroke-linejoin="round"/>
<path d="M1 78H218" stroke="black" stroke-width="0.7" stroke-linecap="round" stroke-linejoin="round"/>
<path d="M218 130H1" stroke="black" stroke-width="0.5" stroke-linecap="round" stroke-linejoin="round"/>
<path d="M459 200H660.156" stroke="black" stroke-width="0.5" stroke-linecap="round" stroke-linejoin="round"/>
<path d="M459 163.5H619.5" stroke="black" stroke-width="0.5" stroke-linecap="round" stroke-linejoin="round"/>
<path d="M1 101H212" stroke="black" stroke-width="0.5" stroke-linecap="round"/>
<path d="M1 166H212.5" stroke="black" stroke-width="0.5" stroke-linecap="round"/>
<path d="M13 78L13 186" stroke="black" stroke-width="0.5" stroke-linecap="round"/>
<path d="M35 78V186" stroke="black" stroke-width="0.5" stroke-linecap="round"/>
<path d="M198 78V186" stroke="black" stroke-width="0.5" stroke-linecap="round"/>
<path d="M178 78L179 186" stroke="black" stroke-width="0.5" stroke-linecap="round"/>
<path d="M156 78V186" stroke="black" stroke-width="0.5" stroke-linecap="round"/>
<path d="M135 78V186" stroke="black" stroke-width="0.5" stroke-linecap="round"/>
<path d="M113 78V186" stroke="black" stroke-width="0.5" stroke-linecap="round"/>
<path d="M95 78V186" stroke="black" stroke-width="0.5" stroke-linecap="round"/>
<path d="M75 78V186" stroke="black" stroke-width="0.5" stroke-linecap="round"/>
<path d="M55 78V186" stroke="black" stroke-width="0.5" stroke-linecap="round"/>
<path d="M611 119.5V214.5" stroke="black" stroke-width="0.5" stroke-linecap="round"/>
<path d="M593.5 119.5V214.5" stroke="black" stroke-width="0.5" stroke-linecap="round"/>
<path d="M576 119.5V214.5" stroke="black" stroke-width="0.5" stroke-linecap="round"/>
<path d="M556.5 119.5V214.5" stroke="black" stroke-width="0.5" stroke-linecap="round"/>
<path d="M536.5 119.5V214.5" stroke="black" stroke-width="0.5" stroke-linecap="round"/>
<path d="M516.5 119.5V214.5" stroke="black" stroke-width="0.5" stroke-linecap="round"/>
<path d="M497.5 119.5V214.5" stroke="black" stroke-width="0.5" stroke-linecap="round"/>
<path d="M481.5 119.5V214.5" stroke="black" stroke-width="0.5" stroke-linecap="round"/>
<path d="M251 130H218" stroke="black"/>
<path d="M326 92V250.5" stroke="black" stroke-linecap="round"/>
<path d="M659.5 221.5C661.05 220.086 659.5 111 659.5 111" stroke="black" stroke-width="0.7" stroke-linecap="round" stroke-linejoin="round"/>
</svg>
