<svg width="397" height="173" viewBox="0 0 397 173" fill="none" xmlns="http://www.w3.org/2000/svg">
<path d="M76 31.618L93.2611 84.7422L93.3733 85.0877H93.7366L149.595 85.0877L104.405 117.92L104.111 118.134L104.223 118.479L121.484 171.603L76.2939 138.771L76 138.557L75.7061 138.771L30.516 171.603L47.7771 118.479L47.8894 118.134L47.5955 117.92L2.40539 85.0877L58.2634 85.0877H58.6267L58.7389 84.7422L76 31.618Z" stroke="black"/>
<path d="M88.3867 70.0122C123.812 46.5124 278.5 -7.50003 396.5 1.5" stroke="black" stroke-linecap="round"/>
<path d="M149 85.5C170.787 77.5916 297 52 396.5 79.5" stroke="black" stroke-linecap="round"/>
<path d="M111 85.0891C165.5 61.5001 289 31 396 52" stroke="black" stroke-linecap="round"/>
<path d="M114.5 110.5C163.907 92.6922 294.278 69.2443 396.5 101.5" stroke="black" stroke-linecap="round"/>
<path d="M92.0002 81C127.315 59.3253 285.5 6.50002 396.5 27" stroke="black" stroke-linecap="round"/>
</svg>
