<?xml version="1.0" encoding="UTF-8"?>
<svg version="1.1" viewBox="0 0 1776 1408" width="1280" height="1280" xmlns="http://www.w3.org/2000/svg">
<path transform="translate(465,629)" d="m0 0 5 1 6 5 3 4-1 5-10 19-12 32-1 2 3-1 40-1 7-1 4-11 12-36 6-8 1-1h6l4 2 2 5 6-2h32l2-7 1-1h11l2 5v4l7-1 17-1h12l4 2 3 6v5l-3 1-38 3h-3l-4 17-12 47-5 25-7 19-4 6-6-2-6-4v-7l10-38 6-28 8-32-1-2-30-1-5-3-3 10-12 34-12 39-5 18-4 19-1 2-6-2-9-6-1-5 15-53-36 2h-14l-3 12-6 22-8 31-4 2-10-4-2-1v-7l8-34 11-37 9-24 10-23 9-19z"/>
<path transform="translate(657,637)" d="m0 0 7 1 8 6v12l-3 23-2 12-1 20-1 3 5-5 22-33 7-10 6-10 11-13 4-3h7l8 8 1 9-7 37-5 41-1 22 1 15-4 4-9 1-4-4-2-5-1-7 1-23 2-25 5-33v-3l-9 14-10 14-9 13-6 10-5 6-7 4h-10l-4-5-2-15 1-31-6 15-11 30-11 27-5 10-5 7-5 1-6-4-2-3 1-8 11-24 11-29 8-21 12-28 6-12 7-10zm57 34m-1 2 1 2z"/>
<path transform="translate(158,582)" d="m0 0h7l8 3 7 6 4 7 1 4v16l-3 12-8 16-8 10-2 1h-6l-6-5-1-6 8-13 5-12 2-11v-10h-7l-13 9-7 7h-2l-2 4-8 8-13 18-9 13-8 16-6 16-4 16-2 16v17l3 15 4 7 3 1h7l16-5 19-8 17-11 7-3h5l1 1v5l-9 10-14 10-22 12-15 5-10 1-9-2-10-6-7-10-4-12-1-7v-29l4-20 7-20 9-19 10-16 13-19 8-10 11-11 19-13 6-3z"/>
<path transform="translate(280,584)" d="m0 0h14l9 4 7 8 2 5v9l-9 8-13 2h-6l-1-4 9-10 1-3-18 1-11 4-6 4-13 14-4 6-2 5v9l4 9 10 14 9 13 6 10 7 18 3 17v9l-4 9-6 8-5 5-8 7-16 9-11 4-12 2h-19l-8-3-9-7-5-7-2-6 1-9 7-6 2-1h6v16l4 3 8 2h10l20-3 16-8 7-6 5-9v-15l-2-9-8-16-10-13-10-16-8-16v-14l5-13 9-13 9-10 7-6 14-7z"/>
<path transform="translate(388,587)" d="m0 0h19l9 2 6 3 10 9 5 9-1 6-9 8-12 6-5 2-7-1-1-7 9-10 4-6v-2l-4-1h-17l-12 3-12 6-10 9-6 12v9l2 10 3 20 4 8 5 4 5 19 7 20 3 12 1 10-4 9-7 8-7 6-3 1h-16l-13-4-11-7-7-7-7-13v-18l2-2h5l4 4 4 14 3 5 9 7 7 2h9l8-5 3-4v-11l-6-23-10-27-9-21-3-16v-19l4-9 6-8 8-8 13-8 11-4z"/>
<path transform="translate(441,861)" d="m0 0 6 2 2 2v8l-12 29-5 11 23-1 4-8 11-30 5-12 4-1 5 4v9l-12 28-5 11h14l4 4-1 5-1 1-20 1-8 20 16 1 5 5-1 4-1 1-22 1-7 21-5 21-2 9h-4l-4-5-1-3v-7l10-35 1-2-24 2-8 27-5 22-1 2-5-2-3-6 1-11 6-22 3-10-15-2-2-2 1-5 2-1 18-2 7-20-16-2-2-1v-5l4-2 9-1h10l2-6 8-20 9-25zm-2 62-12 1-6 14-2 7h24l5-10 3-8v-4z"/>
<path transform="translate(923,421)" d="m0 0 5 1 3 5-2 23-4 29-2 36v19l3-3 18-38 10-21 10-18 10-17 8-12 5-3h5l3 5-1 5-5 10-12 19-13 23-10 18-13 29-8 18-6 6h-5l-5-8-5-4-2-6-1-7v-26l4-44 3-20 2-16z"/>
<path transform="translate(1106,421)" d="m0 0 4 1 6 4-1 5-10 17-6 14-8 24-6 25-2 14v8l1 6 3 1h9l8-5 9-9 9-12 11-19 8-16 9-27 6-24 2-3 4 1 6 3-2 12-6 23-11 28-8 16-7 11-13 17-10 10-9 6-6 2-9-1-7-4-6-8-2-5-1-7v-12l2-15 5-22 7-21 8-19 8-14z"/>
<path transform="translate(792,634)" d="m0 0h5l5 6 1 4-10 15-13 24-9 20-6 15-5 18-1 6v9l3 6 5 2h11l26-6 6 1 2 5-5 6-10 7-10 4-6 1h-16l-10-3-9-8-5-11-1-11 3-18 6-18 12-29 10-19 12-18 7-7z"/>
<path transform="translate(437,1098)" d="m0 0h19l11 4 9 7 4 7 1 7-2 8-8 10-10 9-14 8-13 5-11 2 6 9 11 12 7 8 14 11 6 5-2 5-5 1-10-5-13-11-14-14-8-12-12 34-5 8-4-1-4-5 7-21 8-21 7-16 13-32 3-7 1-4-5-1 1-4 8-5zm9 11-4 2-5 10-11 24-4 9v2l12-3 16-8 11-8 7-8 2-7-2-5-4-4-7-3z"/>
<path transform="translate(202,428)" d="m0 0 6 1 4 5-1 6-10 23-9 25-5 19-2 20v10l1 8-3 3-6-1-3-5-2-9v-9l-12 9-12 5-7-1-6-5-2-5 1-10 5-13 8-12 5-5 4-3 3-1h10l10 4 2-9 5-17 10-24 5-8zm-38 66-7 4v2h-2l-8 14-2 5v8l9-1 11-7 6-5 4-7v-9l-4-4z"/>
<path transform="translate(1411,428)" d="m0 0 4 1 5 3-1 8-5 15-11 28-11 30-5 16-1 14-1 1-7-1-3-5v-10l6-24 4-13-11 1-6 2v2h-2l-2 4-9 14-3 9v5l10-3 4-2h5l2 3-1 5-8 6-6 2h-7l-6-3-4-6-1-6 3-14 6-12 9-11 9-6 6-2h17l10-26 10-24z"/>
<path transform="translate(1025,253)" d="m0 0 9 2 6 5 4 7v12l-5 5-6 7-6 25-6 22-6 12-7 6-4 2h-7l-8-3-7-8-2-4v-5l2-1 6 4 6 5 5 1 5-3 5-8 5-16 4-15v-4l-11 5-11 2-6-1-5-5-1-2v-6l6-12 7-9 11-11 11-7zm-3 13-6 4-18 18-3 6 1 4 9-1 14-7 4-8 1-5 7-2-1-4-5-5z"/>
<path transform="translate(1087,207)" d="m0 0 5 2 4 3 1 8-5 14-10 24-12 29v3l20-20 9-6 5 1 8 9 1 3v18l-1 15 4 6-1 4-6 1-6-3-4-7v-16l1-15-4 1-9 7-14 14-10 13-1 1-7-1-3-3 1-8 11-35 18-47z"/>
<path transform="translate(1068,75)" d="m0 0 6 2 2 2v11l-6 18 11-14 8-7 5-2 6 1 5 5 2 13 2 1 2-4 8-7 6-1 7 4 4 7 1 20 1 8-4 2-8-3-1-2-1-25-8 7-9 11-7 11-2 2-5-1v-2l-4-2 1-8 4-15 1-8-5 3-10 13-9 13-7 8-6-1-3-3-1-3v-7l5-21 5-16z"/>
<path transform="translate(940,26)" d="m0 0 6 1 3 4v8l-6 17-15 40-4 12v2l16-14 13-8 6-2 7 1 4 5 2 4v12l-2 14 9 2 1 4-5 4-2 1h-7l-5-5-2-3 1-26-12 6-13 10-11 11-7 8-6 1-4-4 1-10 6-23 11-31 13-36z"/>
<path transform="translate(843,205)" d="m0 0 4 1 5 5v7l-12 33-9 24-5 14 1 1 9-9 16-11 7-3h9l5 6 2 7-2 18 1 4 7 1 2 4-5 5-3 1h-7l-6-7v-27l-12 6-9 7-11 10-9 11-3 2-5-1-4-4 2-11 6-23 12-33 11-30z"/>
<path transform="translate(1041,423)" d="m0 0h6l2 3v5l20-1h20l3 1 1 6-1 2-18 2-25 2-4 10-12 47-6 29-5 15-4 6-5-1-4-4 7-25 6-24 5-23 6-25 2-5h-28l-10-2-1-1v-9l3-1h38l3-6z"/>
<path transform="translate(1534,247)" d="m0 0 5 1 5 5v8l-2 5 7-2h11l7 4 4 7 1 9-4 9-8 10-6 4-18 6-9 1h-2l-5 16-6 24-4 10-5 1-3-2 1-13 7-30 8-26 12-33zm16 28-7 3-6 4-5 7-4 11v3l10-1 10-4 6-5 5-9v-6l-2-3z"/>
<path transform="translate(1405,228)" d="m0 0h8l5 4v5l-4 4-11 1-11 8-10 10-1 2 12-3h9l9 3 7 8 2 5v10l-7 12-10 10-13 8-11 4-10 1-7-3-5-6-2-5v-12l4-15 8-16 9-13 9-10 11-8zm-12 43-12 3-10 5-3 3-4 13v12l2 2h11l16-8 10-8 6-8 2-5-1-7-2-2z"/>
<path transform="translate(604,875)" d="m0 0h31l7 1 3 3 1 8h-41l-6 1-7 24-6 15 18-3h8l2 4v5l-2 2-20 4-11 1-1 8-5 18-1 6 5 2-1 6-6 8-4 1-5-2-1-2 1-14 5-24 2-6-5-1-1-3 4-4 5-3 14-40-2 1h-12l-1-3 3-5 24-7z"/>
<path transform="translate(817,188)" d="m0 0h7l5 3 1 5-12 4-6 4-5 6-4 11-4 26-4 12-6 11-8 8 3 6v9l-12 34-3 11h7l7-1 2 1v5l-6 4-3 1h-9l-5-3-3-3-1-3v-8l5-19 8-19 1-8-8-4-5-3 2-5 6-3 8-3 6-7 5-11 4-22 3-16 6-10 5-6 7-5z"/>
<path transform="translate(518,881)" d="m0 0h3v2l17-2h24l5 3 1 2v6h-30l-12 1-5 2-8 17-6 15h16l21-1 3 5-1 4-12 2-32 1-3 10-9 24-4 15-5 1-4-4 1-9 8-25 9-22 6-14 6-17h-10l-4-1 1-5 8-4 12-3z"/>
<path transform="translate(698,880)" d="m0 0h10l3 3 1 6-1 1-24 2-16 3-8 19-3 9 15-2h22l1 6-3 3-22 2-19 1-1 6-14 41-3 5-6-1-3-3 3-12 7-23 8-23 10-24 7-16 5-2 1 1h11z"/>
<path transform="translate(1714,192)" d="m0 0h7l6 4 8 8 3 8v7l-5 16-8 16-12 19 3 4v6l-4 2-1 34-3 14-5 9-7 4-6 1h-11l-3-2 1-5 18-6 3-12 1-40 3-7-2-4 1-6 9-10 10-17 6-14 1-7-3-7-1-3-5-2-6-3-1-3z"/>
<path transform="translate(1167,224)" d="m0 0h6l4 3-1 7-8 14h18l2 2v9l-1 1-26 2-8 16-5 18-2 9v5l2 1h10l8-2 13-6 2 1v5l-6 7-12 6-4 1h-14l-8-7-3-7v-12l4-16 7-17 1-2-9-3 1-7 7-2 7-1 5-8 8-15z"/>
<path transform="translate(472,475)" d="m0 0h9l7 5 4 6 1 3v13l-2 14v6h11l2 5-5 7-6 3-6-1-5-8-4-9-15 16-8 4h-9l-6-5-1-2v-8l3-12 6-12 8-11 9-10zm2 12-2 1v2l-4 2-11 15-8 16v6l6-1 13-11 9-11 6-11-1-5-3-3z"/>
<path transform="translate(1487,223)" d="m0 0 10 1 6 4 1 7-1 1h-19l-10 5-7 7-3 6 11 2 8 4 7 7 4 9 1 4v11l-3 9-4 6-7 7-10 6-10 3h-13l-6-4-4-6v-5l4-1 5 4h12l12-5 8-6 5-10 1-10-3-7-5-4-5-2-17-1-6-5 1-6 7-12 9-10 9-6z"/>
<path transform="translate(1296,477)" d="m0 0 5 1 3 3-1 7-10 27-1 10h6l8-6 5-6 6-14 4-16 3-3h7l4 4-3 14-7 18-1 4v7l3 5 4 7-2 5-1 1h-6l-5-5-4-8-1-4-11 8-7 3h-6l-8-7-1-2v-10l3-15 7-17 5-9z"/>
<path transform="translate(111,863)" d="m0 0h6l5 4v3l-13 5-6 5-5 12-4 25-4 12-7 10-4 4 1 4 1 9-7 20-5 16v4h12l1 3-5 5-5 2-8-1-5-5-1-2v-10l5-16 7-18 1-6-10-3-2-1 1-5 5-3 8-3 6-7 4-11 5-29 5-10 6-7 9-5z"/>
<path transform="translate(1334,224)" d="m0 0 7 1 2 2-1 7-9 25-8 26-11 35-3 6-5-1-2-2 1-13 5-18 8-24 7-23-11 6-23 16-6 1-4-5 1-4 16-11 16-12 18-11z"/>
<path transform="translate(1483,474)" d="m0 0 7 1 8 6 3 8v13l-3 10-6 12-11 12-10 6-2 1h-7l-5-3-5-6-1-3v-18l5-14 9-14 8-7zm-2 13-7 6-8 15-4 13v8l2 4 6-1 8-7 8-13 3-10v-11l-3-4z"/>
<path transform="translate(1199,467)" d="m0 0 8 1 5 4 3 5v8l-4 6-5 6-5 2-5-6 1-5 5-6v-2l-8 2-11 7-7 8-3 5-1 6 4 5 9 7 5 5 4 5 2 7-5 5-4 2-6 1h-15l-5-3-5-5v-4h20l6-2-13-10-6-7-3-7 1-8 5-10 6-7 13-9 11-5z"/>
<path transform="translate(1025,50)" d="m0 0 7 2 1 1-1 9-7 13h19l4 3v6l-1 1-27 1-1 5-4 13-2 10v18h8l9-5h6l-1 6-6 7-5 3-10 1-6-3-6-7-2-6v-13l5-22 2-6h-11l-2-2v-5l6-2 9-2 3-3 8-18z"/>
<path transform="translate(1251,450)" d="m0 0 5 1 3 3-1 6-7 14 19 1 4 4-1 5-1 1-20 1-6 1-5 15-2 11v16l2 3h6l6-3 5-3 3 1v6l-6 7-5 3-4 1h-7l-6-4-5-6-2-5v-16l6-26h-11l-1-7 5-2 10-2 5-7 6-14z"/>
<path transform="translate(926,254)" d="m0 0 10 1 6 4 4 6v7l-4 7-7 7-8 4h-13l-6-1-1 4v12l2 4 2 1h10l10-7 4-1 2 2-1 5-6 7-9 5-3 1h-8l-6-3-6-7-3-8v-15l3-10 7-11 5-6 9-6zm0 11-6 3-7 8-1 3 2 1h8l8-3 5-6-1-5-2-1z"/>
<path transform="translate(1631,256)" d="m0 0h5l2 3-1 6-7 8-6 7-8 7-2 2 2 11 5 13 7 11v5l-7-1-8-9-7-14-1-3-4 2-7 8h-2l-2 4h-2l-2 4-4 3h-5l-2-2 1-7 9-10 9-11 5-6-2-8-4-11-1-1v-5l6-5 4 2 5 10 2 6 4-2 7-8 8-7z"/>
<path transform="translate(561,1142)" d="m0 0 6 1 7 5 4 7v12l-2 18 10-1 2 1-1 5-5 6-5 2-5-1-4-6-3-9-14 14-5 3-8 1-6-3-3-7 2-10 4-10 10-15 7-8zm1 11-6 4-9 13-6 10-2 6v5l5-1 12-11 8-9 4-7v-8l-2-2z"/>
<path transform="translate(549,470)" d="m0 0h9l6 3 3 6-1 7-7 15-5-5-2-4 1-10-10 5-10 9-1 7 4 10 7 14v8l-5 6-7 2h-9l-9-3v-2h-2l-4-7v-4l5 1 5 3 6 1 7-2-1-9-7-14-1-3v-11l5-8 10-9 9-5z"/>
<path transform="translate(611,473)" d="m0 0h7l7 3 4 5v8l-4 7-4-1-2-3-1-7h-8l-11 6-3 1v2l-5 5-4 6 2 5 6 4 12 6 4 6v7l-5 5-8 3-11 1-8-3-4-4v-7l5 1 2 1h8l7-1v-3l-12-6-8-9-1-9 4-10 5-6 13-8z"/>
<path transform="translate(1184,26)" d="m0 0 6 1 5 4-1 9-7 17-12 28-9 27-5 20-1 10-1 2h-6l-3-3-1-3v-11l6-22 15-41 6-15z"/>
<path transform="translate(443,425)" d="m0 0 5 2 3 3 1 7-13 31-10 25-8 25-4 16-1 9-1 1-7-1-2-4v-12l6-23 13-35 10-27 5-15z"/>
<path transform="translate(372,478)" d="m0 0h8l8 4 5 6-1 7-4 4-4-1-5-6-5-1-8 9-7 14-2 7v6h10l19-5 9-1 1 3-4 5-11 7-16 4h-9l-6-3-4-6-1-4v-10l5-16 6-11 7-8z"/>
<path transform="translate(680,1120)" d="m0 0 5 1 3 3-1 6-6 13 6-1h9l5 3 1 4-3 3-22 1-4 10-3 15v12l2 3h6l9-5 3 1-1 5-4 6-5 3-10 1-5-3-5-6-2-6v-10l5-22 1-4h-10l-1-5 6-3 8-2 4-6 7-14z"/>
<path transform="translate(193,923)" d="m0 0 7 1 6 4 4 9-1 11-8 16-11 11-12 6-7 1-5-3-4-5-1-2v-13l4-11 7-11 8-8 10-5zm0 11-6 3-8 10-7 14-1 3v8l5 1 9-6 9-10 5-12v-9l-2-2z"/>
<path transform="translate(135,920)" d="m0 0 6 1 7 6 2 4v7l-3 6-5 4-4-1-1-4 2-12-7 3-4 2-8 16-4 13v6l1 1 7-1 12-6 10-8 6 2-1 5-8 8-13 8-8 3h-7l-6-3-4-6-1-3v-8l5-17 7-12 8-9 7-4z"/>
<path transform="translate(504,1142)" d="m0 0h8l8 4 4 6v6l-6 9-6 5-6 2h-16l-1 4v8l3 5 7 1 7-3 6-5 4 2-1 5-5 5-5 4-5 2h-9l-6-4-5-6-2-8v-9l3-11 7-11 9-8zm3 9-7 4-6 7v2l9 1 8-4 2-3v-5l-2-2z"/>
<path transform="translate(620,1141)" d="m0 0h10l6 4 3 5 1 5-3 9-6 4-4-2 1-9 1-5-6 1-6 5-8 15-3 9-1 7 1 3 8-1 8-4 14-10 4 1 1 5-7 8-14 9-9 3h-7l-6-4-3-4-1-3v-10l4-14 7-13 9-10z"/>
<path transform="translate(271,924)" d="m0 0h7l4 4-2 6 9-2 9 1 1 5-6 4h-2l1 9-3 7-6 8-9 8-8 4-8 1-7-4-3-5v-12l4-12 7-12 7-7zm-3 16-6 9-5 13v8h5l9-7 7-7 4-7-2-4-9-5z"/>
<path transform="translate(1196,72)" d="m0 0 12 1 14 5 12 7 6 5 8 10 4 8-5 4-18 10-16 7-13 7h-5l-5-5 1-4 24-11 21-11-2-5-11-7-21-10-8-4-2-2 1-4z"/>
<path transform="translate(882,71)" d="m0 0 5 1 4 3v4l-24 13-18 11-1 5 9 6 11 5 17 6 8 4-1 4-2 2h-13l-14-4-12-6-12-10-7-9 1-5 9-7 15-9 20-11z"/>
<path transform="translate(1575,472)" d="m0 0 11 1 13 5 15 9 9 10 5 8v5l-19 10-33 16-5-1-4-4 1-4 24-11 20-10 1-3-5-5-11-7-22-9-7-6 2-3z"/>
<path transform="translate(108,471)" d="m0 0 5 1 4 3-1 4-8 5-22 12-13 8 1 4 5 4 12 6 20 7 6 3 3 4-5 3h-13l-13-4-15-8-8-7-8-10v-5l15-10 19-11z"/>
<path transform="translate(246,479)" d="m0 0 5 1 4 3 1 39 5-5 12-17 6-8 4-4 8-1 2 1-1 5-9 15-14 19-9 10-4 3-4-1-4-6-3-13v-36z"/>
<path transform="translate(802,1138)" d="m0 0h7l7 4 2 4-1 7-5 10-4 1-4-7 1-5 2-3-10 4-9 8-1 8 9 18v11l-3 3-6 2h-10l-8-3v-2l-3-1-2-3v-5l9 3 7 1 6-3-5-12-4-9-1-7 4-9 4-5 11-7z"/>
<path transform="translate(748,1147)" d="m0 0 5 1 3 3-1 16-5 24-6 20-6 14-6 8-6 5-2 1-9-1-5-4-3-5v-10h4l4 9h5l4-2 2-5 5-9 6-15 8-36 2-12z"/>
<path transform="translate(321,920)" d="m0 0 7 4-1 6-6 13v3l11-11 11-6h6l6 5-2 4-9 3-9 6-8 7h-2l-2 4-6 8-6 14-5 1-5-3 1-9 6-23 7-18 4-7z"/>
<path transform="translate(245,881)" d="m0 0 6 1 3 3-1 7-19 54-8 30-1 2-5-1-3-3v-8l8-29 12-36 4-13z"/>
<path transform="translate(217,488)" d="m0 0 5 1 5 4-1 8-12 35-3 5-4-1-3-5v-9l12-37z"/>
<path transform="translate(709,508)" d="m0 0h20l5 4 2 4-4 3-21 1h-27l-5-3v-5l9-2z"/>
<path transform="translate(729,482)" d="m0 0 10 1 5 3 1 6-1 1-34 2h-17l-4-2v-5l6-3 15-2z"/>
<path transform="translate(1567,422)" d="m0 0 7 1 5 6-1 8-5 13-6 10-5 4h-5l-1-5 6-11 2-3 1-5-4-1-4-4 1-6 5-5z"/>
<path transform="translate(860,422)" d="m0 0h6l1 3-8 14-1 7 6 2 1 3-2 7-7 6-7-1-5-4v-10l6-16 4-6z"/>
<path transform="translate(834,422)" d="m0 0h6l-1 5-8 14-1 5 6 2 1 1v8l-7 6h-8l-5-5-1-4 5-17 6-10 4-4z"/>
<path transform="translate(1540,422)" d="m0 0 7 1 5 5-1 9-5 13-6 10-4 3-4 1-3-1 1-6 8-14v-2l-6-4-2-2 1-5 5-6z"/>
<path transform="translate(1426,486)" d="m0 0 6 1 2 2v9l-5 19-3 20-3 2-5-4-2-4v-10l7-28z"/>
<path transform="translate(964,265)" d="m0 0 4 1 4 2v11l-5 21-3 18-3 1-5-5-1-2v-12l6-25z"/>
<path transform="translate(1651,301)" d="m0 0 4 1 2 8-1 11-6 10-8 7-7 1-3-2 2-4 7-8 5-8z"/>
<path transform="translate(709,964)" d="m0 0h4l2 3v12l-5 10-8 7-7 1-1-5 9-10 4-10z"/>
<path transform="translate(1663,260)" d="m0 0 7 1 5 5-1 7-7 4-4 2-5-1-5-5 1-6 7-6z"/>
<path transform="translate(1211,260)" d="m0 0 6 1 5 4 1 6-5 5-9 3-6-4-2-2v-5l8-7z"/>
<path transform="translate(1198,298)" d="m0 0 7 1 5 5-1 6-6 5-2 1h-6l-5-3-1-7 6-7z"/>
<path transform="translate(1437,446)" d="m0 0 6 1 5 8v8l-3 4-6-1-7-7 1-7z"/>
<path transform="translate(975,227)" d="m0 0 7 1 5 8v6l-3 5-4 1-9-8v-7z"/>
<path transform="translate(229,446)" d="m0 0 5 1 5 5v5l-7 9-1 1h-5l-5-5 1-4 6-11z"/>
<path transform="translate(708,1181)" d="m0 0h6l6 6-1 5-5 4-9 1-5-4v-5z"/>
<path transform="translate(376,927)" d="m0 0 7 1 4 5-1 5-5 4-2 1h-7l-5-5 3-7z"/>
<path transform="translate(720,927)" d="m0 0 7 1 4 4v5l-7 6-6 1-6-5v-5z"/>
<path transform="translate(95,1181)" d="m0 0h6l5 5-1 6-6 4-7 1-5-4 1-7h2v-2z"/>
<path transform="translate(364,961)" d="m0 0 7 1 5 6-2 5-7 4-7-1-4-3 1-6z"/>
<path transform="translate(759,1111)" d="m0 0 6 1 3 3-1 6-7 7h-5l-2-3 1-9z"/>
<path transform="translate(568,942)" d="m0 0"/>
<path transform="translate(571,887)" d="m0 0"/>
<path transform="translate(552,483)" d="m0 0"/>
<path transform="translate(994,435)" d="m0 0"/>
<path transform="translate(1e3 88)" d="m0 0"/>
</svg>
