<svg width="2276" height="1743" viewBox="0 0 2276 1743" fill="none" xmlns="http://www.w3.org/2000/svg">
<path d="M729 1144C749.473 1199.92 785.916 1237.76 749.473 1144" stroke="black" stroke-linecap="round"/>
<path d="M674.697 1144C667.281 1194.28 686.232 1242.05 692 1144" stroke="black" stroke-linecap="round"/>
<path d="M645.803 1134C632.448 1186.83 638.709 1229.99 665 1144.62" stroke="black" stroke-linecap="round"/>
<path d="M549.03 1054C545.597 1208.57 841 1245.14 841 1054" stroke="black" stroke-linecap="round"/>
<path d="M1532.66 413C1500.69 358.746 1485.3 308.606 1482.48 263.66C1479.43 215.112 1491.06 172.622 1512.3 137.55C1522.82 120.191 1535.69 104.649 1550.31 91.0889C1566.81 75.7865 1585.53 63.0081 1605.59 52.9905C1670.5 20.5853 1749.49 17.0696 1812.79 50.4606C1831.93 60.556 1843.75 66.5579 1859.2 83.6219C1867.31 92.5771 1880.68 109.989 1887.43 120.957C1903.04 146.329 1914.69 183.808 1920.91 220.517C1929.97 274.019 1927.5 333.346 1908.93 413" stroke="black" stroke-linecap="round"/>
<path d="M1483 412.415C924.308 415.105 564.464 396.72 493.135 412.415C467.008 418.163 439.638 426.648 416 441" stroke="black" stroke-linecap="round"/>
<path d="M1813 50C1886.98 37.9385 1893.91 30.8828 1951 1" stroke="black" stroke-linecap="round"/>
<path d="M1951 1C1920.16 40.8232 1922.66 39.5657 1859 84" stroke="black" stroke-linecap="round"/>
<path d="M1550 91C1495.73 60.5833 1485.58 57.5495 1445 1" stroke="black" stroke-linecap="round"/>
<path d="M1445 1C1492.3 28.223 1535.87 37.8558 1606 53" stroke="black" stroke-linecap="round"/>
<path d="M1533 413C1598.7 388.852 1765.89 355.045 1909 413" stroke="black" stroke-linecap="round"/>
<path d="M1532.45 413C1405.03 657.704 2021.03 733.761 1908.1 413" stroke="black" stroke-linecap="round"/>
<path d="M1512 137.971C1449.65 136.041 1150.69 47.3879 1132.44 121.502C1114.18 195.615 1271.84 347.642 1482.14 263.141" stroke="black" stroke-linecap="round"/>
<path d="M1606 1083C1695.85 1056.45 2150.5 911.672 1921 348" stroke="black" stroke-linecap="round"/>
<path d="M1577.4 1540C1569.11 1638.93 1693.49 1691.69 1666.03 1540" stroke="black" stroke-linecap="round"/>
<path d="M1578 1540H1666" stroke="black" stroke-linecap="round"/>
<path d="M1650 1068C1661.91 1389.05 1666 1402.28 1666 1540" stroke="black" stroke-linecap="round"/>
<path d="M1541 1152C1563.79 1326.65 1564.55 1415.64 1578 1540" stroke="black" stroke-linecap="round"/>
<path d="M1412 1599C1412 1738.35 1512 1715.12 1512 1599" stroke="black" stroke-linecap="round"/>
<path d="M1412 1599H1512" stroke="black" stroke-linecap="round"/>
<path d="M1510 1035C1523.58 1345.39 1522.12 1487.22 1512.83 1599" stroke="black" stroke-linecap="round"/>
<path d="M1387 1016C1387 1287.62 1404.45 1469.81 1412 1599" stroke="black" stroke-linecap="round"/>
<path d="M634 994C740.15 1034.8 1039.36 1110.12 1387 1084.98" stroke="black" stroke-linecap="round"/>
<path d="M669 1603C669 1731.04 846.535 1749.33 775.022 1603" stroke="black" stroke-linecap="round"/>
<path d="M666 1595H712.617H779" stroke="black" stroke-linecap="round"/>
<path d="M775 1174C775 1298.35 788.5 1526.29 775 1603" stroke="black" stroke-linecap="round"/>
<path d="M665.132 1292C669.567 1376.39 660.052 1532.18 669 1603" stroke="black" stroke-linecap="round"/>
<path d="M503 1646C503 1785.35 629.165 1762.12 619.468 1646" stroke="black" stroke-linecap="round"/>
<path d="M503 1646H619" stroke="black" stroke-linecap="round"/>
<path d="M619 1185C619 1385.35 619 1537.07 619 1646" stroke="black" stroke-linecap="round"/>
<path d="M493 1185C503 1412.58 503 1552.63 503 1646" stroke="black" stroke-linecap="round"/>
<path d="M493 1192C485.717 1019.64 366.923 1016.16 304 910" stroke="black" stroke-linecap="round"/>
<path d="M304.265 910C219.843 767.477 221.16 557.836 416 441" stroke="black" stroke-linecap="round"/>
<path d="M416 441C311.1 452.037 100.38 588.007 42 984" stroke="black" stroke-linecap="round"/>
<path d="M28 984.574C62.8181 980.613 100.296 997.025 78.569 1037.7C59.5021 1073.39 56.1862 1106.59 51.2118 1129" stroke="black" stroke-linecap="round"/>
<path d="M1643.51 515.438C1642.38 524.162 1632.28 514.104 1638.63 512.348C1648.26 509.683 1640.13 523.449 1640.13 515.438C1640.13 509.295 1648.59 516.085 1645.2 518.71C1637.66 524.548 1634.62 513.457 1638.63 512.348C1644.3 510.778 1646.34 522.527 1636.75 521.982C1631.3 521.671 1631.78 510.559 1638.25 512.348C1641.92 513.363 1646.87 521.982 1640.13 521.982C1634.14 521.982 1631.39 515.438 1640.13 515.438" stroke="black" stroke-width="8" stroke-linecap="round"/>
<path d="M1793.28 512C1799.28 512.779 1795.85 522.931 1794 521.444C1789.68 517.952 1789.85 511.373 1796.55 514.644C1807.85 520.164 1790 537.069 1790 520.5C1790 503.59 1811.05 529 1794.91 529C1787.31 529 1791.44 508.19 1799.83 525.6" stroke="black" stroke-width="8" stroke-linecap="round"/>
<path d="M1697 107C1707.98 119.333 1726.64 151.4 1713.47 181" stroke="black" stroke-linecap="round"/>
<path d="M1650 105C1655.67 115.091 1667 144.018 1667 179" stroke="black" stroke-linecap="round"/>
<path d="M1607.42 262.863C1607.86 259.133 1613.84 264.187 1613.84 267.096C1613.84 270.434 1608.86 273.221 1606.17 270.952C1597.88 263.964 1611.1 255.692 1613.76 265.497C1616.28 274.794 1598.37 271.649 1603.85 265.873C1604.86 264.802 1612.38 263.314 1611.97 265.685C1611.42 268.885 1606.38 277.16 1602.6 272.174C1596.43 264.052 1609.02 259.36 1609.02 267.096C1609.02 280.262 1595.77 276.307 1599.74 267.942C1604.05 258.873 1614.38 265.532 1612.15 273.773C1609.57 283.273 1599.38 274.736 1599.38 267.942" stroke="black" stroke-width="8" stroke-linecap="round"/>
<path d="M1804.28 257.987C1804.28 249.578 1816.57 262.249 1805.13 264.844C1796.92 266.707 1795.31 251.264 1799.17 251.033C1813.28 250.186 1801.76 266.068 1797.47 260.594C1792.81 254.649 1799.33 249.062 1803.9 254.896C1810.09 262.799 1786.27 261.568 1794.91 254.51C1799.05 251.132 1806.48 253.592 1807.68 259.725C1808.24 262.568 1802.45 263.838 1800.87 264.554C1795.39 267.039 1789.53 254.51 1803.33 254.51C1813.72 254.51 1804.18 269.96 1800.87 263.202" stroke="black" stroke-width="8" stroke-linecap="round"/>
<path d="M27.0731 985C3.05441 987.759 -25.9864 1020.42 50 1129" stroke="black" stroke-linecap="round"/>
<path d="M1735 108C1740.67 114.727 1752 138.945 1752 182" stroke="black" stroke-linecap="round"/>
<path d="M1888 120.596C1985.42 110.959 2161 11 2250.37 11C2339.73 11 2175.9 313.219 1921.42 220.228" stroke="black" stroke-linecap="round"/>
<path d="M769 1137.66C781.469 1172.11 842.153 1234.03 781.469 1127" stroke="black" stroke-linecap="round"/>
</svg>
