<svg width="18566" height="1200" viewBox="0 0 18566 1200" fill="none" xmlns="http://www.w3.org/2000/svg">
<path d="M18269 927C18368.1 863.832 18428.1 836.129 18565 839" stroke="black" stroke-linecap="round"/>
<path d="M18357 839C18304 865 18275 899 18269 927" stroke="black" stroke-linecap="round"/>
<path d="M18037 927C18149.5 871.051 18219.1 850.961 18357 839" stroke="black" stroke-linecap="round"/>
<path d="M18109 839C18062 859 18037 894 18037 927" stroke="black" stroke-linecap="round"/>
<path d="M17765 894C17863 847 18011 822 18109 839" stroke="black" stroke-linecap="round"/>
<path d="M17981 687C17876 746 17810 802 17765 894" stroke="black" stroke-linecap="round"/>
<path d="M17473 816C17570 721 17820 660 17981 687" stroke="black" stroke-linecap="round"/>
<path d="M17701 415C17569 496 17410.2 693.54 17473 816" stroke="black" stroke-linecap="round"/>
<path d="M17301 839C17352 665 17538 470 17701 415" stroke="black" stroke-linecap="round"/>
<path d="M17029 495C17136.1 590.548 17196 649.557 17301 839" stroke="black" stroke-linecap="round"/>
<path d="M17125 927C17143.7 752.662 17110.3 659.315 17029 495" stroke="black" stroke-linecap="round"/>
<path d="M16877 759C16991.8 789.626 17045.9 826.85 17125 927" stroke="black" stroke-linecap="round"/>
<path d="M16943 975C16962.1 884.553 16934.8 839.008 16877 759" stroke="black" stroke-linecap="round"/>
<path d="M15653 975H16825" stroke="black" stroke-linecap="round"/>
<path d="M15693 839C15553 839 15438 975 15653 975" stroke="black" stroke-linecap="round"/>
<path d="M15461 887C15555.3 838.347 15605.9 829.936 15693 839" stroke="black" stroke-linecap="round"/>
<path d="M15461 687C15454 769.753 15450.9 815.64 15461 887" stroke="black" stroke-linecap="round"/>
<path d="M15325 975C15394.3 873.815 15420.4 808.205 15461 687" stroke="black" stroke-linecap="round"/>
<path d="M15109 759C15201 814.411 15246.7 867.612 15325 975" stroke="black" stroke-linecap="round"/>
<path d="M15157 927C15156.8 855.627 15141.4 820.369 15109 759" stroke="black" stroke-linecap="round"/>
<path d="M14853 687C14950.2 711.695 15013 752.058 15157 927" stroke="black" stroke-linecap="round"/>
<path d="M14949 1047C14999 927 14935 790 14853 687" stroke="black" stroke-linecap="round"/>
<path d="M14685 927.425C14773.5 922.404 14835 961.8 14949 1047.43" stroke="black" stroke-linecap="round"/>
<path d="M14733 1047C14726.7 1000.31 14717.2 974.057 14685 927" stroke="black" stroke-linecap="round"/>
<path d="M14413 927C14532.2 917.396 14603.2 953.024 14733 1047" stroke="black" stroke-linecap="round"/>
<path d="M14461 1047C14481 1011 14461 961 14413 927" stroke="black" stroke-linecap="round"/>
<path d="M14005 1047H14461" stroke="black" stroke-linecap="round"/>
<path d="M14083 733C13948 850.231 13859 1047 14005 1047" stroke="black" stroke-linecap="round"/>
<path d="M13813 887C13908 781.45 13971 745 14083 733" stroke="black" stroke-linecap="round"/>
<path d="M13721 629C13791 687 13829 777 13813 887" stroke="black" stroke-linecap="round"/>
<path d="M13661 887C13763.7 836.634 13745 705 13721 629" stroke="black" stroke-linecap="round"/>
<path d="M13661 777V832V887" stroke="black" stroke-linecap="round"/>
<path d="M13589 839L13622 810L13661 777" stroke="black" stroke-linecap="round"/>
<path d="M13365 687C13453 687 13559 759 13589 839" stroke="black" stroke-linecap="round"/>
<path d="M13493 1047C13527 975 13477 823 13365 687" stroke="black" stroke-linecap="round"/>
<path d="M13109 887C13253.7 911.285 13338.4 950.907 13493 1047" stroke="black" stroke-linecap="round"/>
<path d="M13173 975C13172.2 960.233 13153.5 941.577 13109 887" stroke="black" stroke-linecap="round"/>
<path d="M12821 927C12956.4 928.759 13033.4 938.44 13173 975" stroke="black" stroke-linecap="round"/>
<path d="M13021 1047C13001.4 1017.14 12955.2 990.37 12821 927" stroke="black" stroke-linecap="round"/>
<path d="M12549 1047H13021" stroke="black" stroke-linecap="round"/>
<path d="M12055 321C11988 303 11933 351 11977 421C11901 421 11902 528 11977 543C11929 600 11993 630.315 12041 589C12041 635 12096 658 12135 613C12135 667 12243 630.315 12211 589C12259 630.315 12331 564 12277 523C12354 523 12363 435 12293 435C12364 404 12319 334 12259 351C12277 294 12223 256 12173 303C12135 256 12055 263 12055 321Z" stroke="black" stroke-linecap="round" stroke-linejoin="round"/>
<path d="M12117 1087C12098.3 1007 12069.2 803.115 12114 630.315" stroke="black" stroke-linecap="round"/>
<path d="M11571 985C11535.6 1022.1 11517.8 1043.67 11499 1087" stroke="black" stroke-linecap="round"/>
<path d="M11315 1087C11428.4 1026.09 11485.5 1002.06 11571 985" stroke="black" stroke-linecap="round"/>
<path d="M11403 985C11357 1026.13 11336.7 1048.58 11315 1087" stroke="black" stroke-linecap="round"/>
<path d="M11127 1087C11249.9 1028.4 11307.8 1009.14 11403 985" stroke="black" stroke-linecap="round"/>
<path d="M10989 1087C11106.7 1017.62 11159.6 992.783 11229 975" stroke="black" stroke-linecap="round"/>
<path d="M11067 975C11024.1 1016.7 11007.9 1041.36 10989 1087" stroke="black" stroke-linecap="round"/>
<path d="M10853 1047C10987.9 991.374 11039.6 972.993 11067 975" stroke="black" stroke-linecap="round"/>
<path d="M10951 947C10895.5 977.491 10876.3 1000.54 10853 1047" stroke="black" stroke-linecap="round"/>
<path d="M10789 975C10853.5 950.26 10889.2 942.332 10951 947" stroke="black" stroke-linecap="round"/>
<path d="M11003 617C10853 685 10689 907 10789 975" stroke="black" stroke-linecap="round"/>
<path d="M10429 927C10575 747 10767 643 11003 617" stroke="black" stroke-linecap="round"/>
<path d="M10597 519C10470.8 663.189 10434.9 752.715 10429 927" stroke="black" stroke-linecap="round"/>
<path d="M10133 927C10205 715 10353 575 10597 519" stroke="black" stroke-linecap="round"/>
<path d="M9789 559C9983.35 671.217 10062.5 749.793 10133 927" stroke="black" stroke-linecap="round"/>
<path d="M9917 1087C9949 927 9897 741 9789 559" stroke="black" stroke-linecap="round"/>
<path d="M9669 759C9794.49 806.695 9851.34 871.346 9917 1087" stroke="black" stroke-linecap="round"/>
<path d="M9725 1087C9767 1007 9740.07 853 9669 759" stroke="black" stroke-linecap="round"/>
<path d="M9501 887C9593 903 9669 965 9725 1087" stroke="black" stroke-linecap="round"/>
<path d="M9565 1087C9585 1033 9565 965 9501 887" stroke="black" stroke-linecap="round"/>
<path d="M8821 1087H9565" stroke="black" stroke-linecap="round"/>
<path d="M8821 927C8853 969 8849 1049 8821 1087" stroke="black" stroke-linecap="round"/>
<path d="M8685 1087C8758.35 1038.73 8787.37 1001.59 8821 927" stroke="black" stroke-linecap="round"/>
<path d="M8685 839C8733 899 8743 1011 8685 1087" stroke="black" stroke-linecap="round"/>
<path d="M8525 1087C8618.37 1015.68 8647.11 956.175 8685 839" stroke="black" stroke-linecap="round"/>
<path d="M8293 839L8525 1087" stroke="black" stroke-linecap="round"/>
<path d="M8293 1087C8353 1025 8337 927 8293 839" stroke="black" stroke-linecap="round"/>
<path d="M7669 1087H8293" stroke="black" stroke-linecap="round"/>
<path d="M7733 839C7694.02 935.444 7677.52 989.671 7669 1087" stroke="black" stroke-linecap="round"/>
<path d="M7533 927L7733 839" stroke="black" stroke-linecap="round"/>
<path d="M7533 759V927" stroke="black" stroke-linecap="round"/>
<path d="M7213 1087C7323.09 914.425 7393.45 843.498 7533 759" stroke="black" stroke-linecap="round"/>
<path d="M7013 687C7133.43 823.324 7181.52 908.883 7213 1087" stroke="black" stroke-linecap="round"/>
<path d="M7069 1135C7075.48 989.219 7065.64 893.621 7013 687" stroke="black" stroke-linecap="round"/>
<path d="M6717 519C6883.47 713.548 6964.6 841.975 7069 1135" stroke="black" stroke-linecap="round"/>
<path d="M6837 1135C6832.6 941.447 6801.9 801.674 6717 519" stroke="black" stroke-linecap="round"/>
<path d="M6477 799C6618.64 884.089 6697.35 962.654 6837 1135" stroke="black" stroke-linecap="round"/>
<path d="M6597 1135C6585.68 1019.74 6556.61 944.916 6477 799" stroke="black" stroke-linecap="round"/>
<path d="M6317 887C6434.26 943.038 6494.99 1000.32 6597 1135" stroke="black" stroke-linecap="round"/>
<path d="M6437 1135C6423.04 1054.63 6392.79 998.34 6317 887" stroke="black" stroke-linecap="round"/>
<path d="M6037 927C6209.66 943.01 6296.53 991.375 6437 1135" stroke="black" stroke-linecap="round"/>
<path d="M6229 1199C6154.02 1092.78 6111.98 1033.22 6037 927" stroke="black" stroke-linecap="round"/>
<path d="M2734 1078C2847.24 994.978 2904.93 938.281 2990 806V942V1078" stroke="black" stroke-linecap="round"/>
<path d="M1097 1046C1066.2 848.781 1027.93 707.284 921 398C1152.06 576.541 1293 742 1401 974" stroke="black" stroke-linecap="round"/>
<path d="M137 1046C130.986 817.177 92.3671 677.759 1 422C308.408 566.48 457 758 529 1046" stroke="black" stroke-linecap="round"/>
<path d="M1550.52 539.115C1600.52 634.115 1742.52 576.115 1684.52 471.115C1771.52 560.115 1867.52 439.115 1730.52 397.115C1849.52 429.115 1900.52 281.115 1742.52 281.115C1812.52 268.115 1817.52 153.115 1718.52 207.115C1833.52 153.115 1752.52 67.1146 1684.52 105.115C1713.52 61.1146 1660.52 10.1146 1600.52 61.1146C1593.52 -25.8857 1492.52 -11.8856 1502.52 61.1146C1458.52 -24.8857 1335.52 33.1143 1412.52 127.115C1349.52 61.1146 1254.52 175.114 1372.52 197.115C1258.52 169.114 1286.52 281.115 1354.52 281.115C1260.52 269.114 1297.52 358.114 1354.52 339.115C1219.52 368.114 1277.52 481.114 1372.52 429.115C1286.52 476.188 1354.52 593.114 1434.52 519.115C1372.52 611.115 1536.52 644.115 1550.52 539.115Z" stroke="black" stroke-linecap="round" stroke-linejoin="round"/>
<path d="M1536.52 233.115C1446.52 233.115 1426.52 387.115 1536.52 397.115C1646.52 407.115 1658.52 233.115 1536.52 233.115Z" stroke="black" stroke-linecap="round"/>
<path d="M1492.52 1199.11C1552.52 1079.11 1590.52 657.115 1550.52 539.115" stroke="black" stroke-linecap="round"/>
<path d="M12135 421C12059 421 12055 523 12135 523C12215 523 12211 421 12135 421Z" stroke="black" stroke-linecap="round"/>
<path d="M18565 839C18489.1 864.789 18461 908 18461 927" stroke="black" stroke-linecap="round"/>
<path d="M11229 975C11206 993 11189.1 1003 11167.5 1025C11145.9 1047 11139.1 1058.74 11127 1087" stroke="black" stroke-linecap="round"/>
</svg>
