<svg width="2850" height="1879" viewBox="0 0 2850 1879" fill="none" xmlns="http://www.w3.org/2000/svg">
<path d="M1553 548.312C1358.99 566.896 1035.67 522.459 810 548.312" stroke="black" stroke-linecap="round"/>
<path d="M1553 548C1682.03 522.518 1816.65 524.526 1867 449" stroke="black" stroke-linecap="round"/>
<path d="M1867 449C1928.73 356 1980.17 323.967 2007.13 302.267C2028.83 289.867 2078.57 267.133 2109 263" stroke="black" stroke-linecap="round"/>
<path d="M2123 302C2119.55 279.041 2111.82 286.952 2109 263" stroke="black" stroke-linecap="round"/>
<path d="M2300 273C2257.29 43.7337 2424 -202.694 2424 273" stroke="black" stroke-linecap="round"/>
<path d="M2300 273C2230.47 -102.604 2109.5 -32.4366 2109.5 188.386C2110.78 202.383 2107.9 248.534 2109.5 262.681" stroke="black" stroke-linecap="round"/>
<path d="M2430 284C2471.4 280.566 2554.2 255.564 2637 216" stroke="black" stroke-linecap="round"/>
<path d="M2453 290C2527.92 283.077 2654.67 257.6 2719 236" stroke="black" stroke-linecap="round"/>
<path d="M2701 381C2601.78 327.178 2494.28 267.838 2424 273.358" stroke="black" stroke-linecap="round"/>
<path d="M2651 657.243C2853.54 760.319 2948.61 381 2700.6 381" stroke="black" stroke-linecap="round"/>
<path d="M2650.99 657C2604.31 485.633 2671.83 433.179 2701 381" stroke="black" stroke-linecap="round"/>
<path d="M2122.55 302C2134.03 382.743 2101.93 457.304 2092 508" stroke="black" stroke-linecap="round"/>
<path d="M2424 644.959C2537.5 614.853 2547.82 621.878 2651 657" stroke="black" stroke-linecap="round"/>
<path d="M2424 645.184C2310.65 676.129 2046.84 735.952 2092.19 508" stroke="black" stroke-linecap="round"/>
<path d="M1929 1186C2010.13 1161.22 2300.25 1033.2 2424 645" stroke="black" stroke-linecap="round"/>
<path d="M1764 1185.63C1453.43 1255.12 1114.23 1214.58 983.455 1185.63C961.773 1180.83 885.37 1169.08 810 1104" stroke="black" stroke-linecap="round"/>
<path d="M1976 1673H2042.5H2109" stroke="black" stroke-linecap="round"/>
<path d="M2067 1120C2102.83 1395.52 2109.25 1569.78 2108.99 1673" stroke="black" stroke-linecap="round"/>
<path d="M1929 1186C1946.71 1311.2 1976 1569.82 1976 1673" stroke="black" stroke-linecap="round"/>
<path d="M1976 1673C1976 1891.39 2159.32 1813.1 2109.38 1673" stroke="black" stroke-linecap="round"/>
<path d="M1784 1706C1784 1865.42 1976.94 1913.04 1940.39 1706" stroke="black" stroke-linecap="round"/>
<path d="M1784 1706H1940" stroke="black" stroke-linecap="round"/>
<path d="M1929 1186C1929 1368.62 1945.24 1623.46 1939.93 1706" stroke="black" stroke-linecap="round"/>
<path d="M1764 1186C1770.35 1315.24 1784 1602.83 1784 1706" stroke="black" stroke-linecap="round"/>
<path d="M670 1728H740H810" stroke="black" stroke-linecap="round"/>
<path d="M849 1674L908.785 1673L983 1674" stroke="black" stroke-linecap="round"/>
<path d="M849 1674C849 1895.7 1040.94 1833.83 983.153 1674" stroke="black" stroke-linecap="round"/>
<path d="M822 1186C828.155 1315.35 834.017 1572.78 849 1674" stroke="black" stroke-linecap="round"/>
<path d="M983 1186C967.25 1362.07 983 1587.34 983 1674" stroke="black" stroke-linecap="round"/>
<path d="M670.169 1728C651.444 1896.54 864.612 1957.17 810.033 1728" stroke="black" stroke-linecap="round"/>
<path d="M822 1186C798.377 1358.64 809.724 1641.28 809.724 1728" stroke="black" stroke-linecap="round"/>
<path d="M682 1186C668.637 1331.06 665.207 1631.94 670.15 1728" stroke="black" stroke-linecap="round"/>
<path d="M653 699C541.484 729.277 147.462 1173.8 182.155 1405" stroke="black" stroke-linecap="round"/>
<path d="M653 688C512.743 734.054 122.912 1156.01 135.288 1405" stroke="black" stroke-linecap="round"/>
<path d="M653 674C529.937 685.013 118.4 1105.99 92 1405" stroke="black" stroke-linecap="round"/>
<path d="M653 666C495.073 695.587 88.3847 1059.24 44 1405" stroke="black" stroke-linecap="round"/>
<path d="M653 657C530.234 687.994 20.6013 976.243 1 1405" stroke="black" stroke-linecap="round"/>
<path d="M1897 407C1845.31 439.672 1675.29 542.762 1545 570" stroke="black" stroke-linecap="round"/>
<path d="M1928 371C1897.08 390.987 1735.06 482.377 1563 532" stroke="black" stroke-linecap="round"/>
<path d="M1950 350C1890.88 374.094 1670.52 471.522 1578 493" stroke="black" stroke-linecap="round"/>
<path d="M1997 310C1970.86 329.957 1768.28 433.971 1590 457" stroke="black" stroke-linecap="round"/>
<path d="M2781.96 515.843C2781.96 513.936 2783.11 513.458 2783.93 515.626C2784.57 517.314 2781.63 517.072 2782.21 515.843C2784.64 510.642 2788.35 517.794 2784.73 517.794C2781.25 517.794 2783.67 513.023 2785.84 513.023C2789.06 513.023 2786.47 520.361 2783.31 517.577C2781.15 515.67 2787.5 511.405 2787.5 516.818C2787.5 519.796 2782.63 520.978 2782.02 517.74C2781.16 513.17 2788.38 511.085 2788.6 514.867C2788.95 520.632 2781.96 518.935 2781.96 513.511C2781.96 510.284 2788.6 509.756 2788.6 514.379C2788.6 518.629 2779.99 518.359 2781.1 515.843C2783.49 510.432 2791.27 513.762 2788.36 519.746C2786.14 524.303 2783.12 514.975 2786.94 514.975C2788.9 514.975 2788.34 521.462 2783.62 517.306C2779.22 513.424 2787.5 512.746 2787.5 515.843C2787.5 517.88 2784.82 515.611 2784.42 514.867C2783.43 513.007 2786.98 515.207 2784.67 515.788C2783.82 516.001 2784.17 512.739 2784.17 513.511C2784.17 515.197 2786.24 514.735 2785.28 513.891" stroke="black" stroke-width="8" stroke-linecap="round"/>
<path d="M2425.55 386.876C2424.18 386.501 2425.76 384.333 2426.61 385.351C2427.86 386.859 2428.99 387.75 2428.66 389.926C2428.12 393.576 2423.43 391.388 2424.72 388.91C2427.12 384.298 2428.52 391.847 2426.02 391.847C2422.85 391.847 2421.95 385.002 2426.61 386.085C2431.96 387.333 2429.79 393.538 2425.02 393.937C2417.01 394.606 2413.39 380.82 2422.14 384.052C2426.98 385.839 2424.91 393.177 2420.31 391.339C2412.49 388.207 2413.32 378.072 2423.37 380.323C2445.32 385.243 2403.8 398.042 2415.08 385.407C2417.74 382.421 2428.72 381.009 2428.72 387.102C2428.72 392.054 2422.49 391.863 2422.49 386.819C2422.49 382.545 2426.55 376.739 2429.55 382.809C2432.58 388.96 2419.56 392.402 2415.67 391.903C2414.02 391.692 2412.47 389.064 2412.02 387.667C2410.44 382.785 2413.96 382.555 2418.02 382.018C2423.96 381.231 2425.32 387.064 2422.14 390.943C2417.69 396.366 2414.02 390.884 2417.19 386.311C2420.5 381.553 2427.97 380.432 2427.66 387.667C2427.54 390.72 2419.61 388.159 2419.25 385.746C2418.68 381.899 2425.62 378.134 2427.43 381.792C2430.86 388.756 2422.11 394.374 2416.08 394.954C2410.63 395.477 2409.05 390.156 2413.9 387.893C2417.52 386.205 2422.78 390.416 2419.72 393.937C2417.35 396.667 2415.52 389.729 2416.19 387.78C2418.64 380.722 2424.62 382.456 2427.66 387.102C2430.79 391.872 2422.59 398.76 2419.78 394.841C2417.46 391.597 2416.11 381.792 2422.37 381.792C2427.33 381.792 2422.73 390.957 2420.78 392.412C2415.87 396.084 2414.87 387.48 2414.96 385.068C2415.1 381.07 2421.36 379.159 2423.9 382.3C2429.38 389.068 2407.95 393.925 2414.96 383.826" stroke="black" stroke-width="8" stroke-linecap="round"/>
<path d="M682.107 1186C269.548 1018.76 539.774 578.971 810 548" stroke="black" stroke-linecap="round"/>
<path d="M1872 441C1829.38 484.874 1689.98 598 1528 598" stroke="black" stroke-linecap="round"/>
</svg>
