<svg width="716" height="1512" viewBox="0 0 716 1512" fill="none" xmlns="http://www.w3.org/2000/svg">
<path d="M301.753 155.365C309.144 157.532 329.056 160.565 349.58 155.365" stroke="black" stroke-linecap="round"/>
<path d="M352.236 177.365L350.908 166.365L349.58 155.365" stroke="black" stroke-linecap="round"/>
<path d="M352.236 177.365H300.236" stroke="black" stroke-linecap="round"/>
<path d="M300.236 177.365L301.753 155.365" stroke="black" stroke-linecap="round"/>
<path d="M301.753 155.365C301.753 148.365 343.236 144.865 349.58 155.365" stroke="black" stroke-linecap="round"/>
<path d="M233.736 321.866C292.736 316.865 275.236 347.866 288.736 347.866" stroke="black" stroke-linecap="round"/>
<path d="M370.736 180.026C370.715 355.479 369.406 347.866 288.736 347.866" stroke="black" stroke-linecap="round"/>
<path d="M346.644 122.58C367.914 134.995 368.389 169.711 370.736 180.026" stroke="black" stroke-linecap="round"/>
<path d="M250.736 238.365C231.236 237.365 232.736 287.473 250.736 287.473" stroke="black" stroke-linecap="round"/>
<path d="M250.736 238.365C243.236 241.141 236.736 271.865 250.736 287.473" stroke="black" stroke-linecap="round"/>
<path d="M276.736 287.473H263.236C258.411 287.559 254.43 287.473 250.736 287.473" stroke="black" stroke-linecap="round"/>
<path d="M273.736 238.365H250.736" stroke="black" stroke-linecap="round"/>
<path d="M353.736 301.365V233.365" stroke="black" stroke-linecap="round"/>
<path d="M353.736 301.365C353.736 307.365 349.403 308.865 347.236 308.865H325.986" stroke="black" stroke-linecap="round"/>
<path d="M302.553 308.711C303.205 308.811 303.93 308.865 304.736 308.865H325.986" stroke="black" stroke-linecap="round"/>
<path d="M296.736 233.365V299.865C296.736 300.442 296.718 301.131 296.748 301.865C296.736 306.365 297.236 307.894 302.553 308.711" stroke="black" stroke-linecap="round"/>
<path d="M326.486 222.865H346.736C352.236 222.865 353.736 223.865 353.736 228.865V233.365" stroke="black" stroke-linecap="round"/>
<path d="M296.736 233.365C296.736 229.865 296.736 222.365 306.236 222.865H326.486" stroke="black" stroke-linecap="round"/>
<path d="M296.736 233.365H326.425H353.736" stroke="black" stroke-linecap="round"/>
<path d="M326.486 222.865L326.425 233.365L325.986 308.865" stroke="black" stroke-linecap="round"/>
<path d="M374.237 153.865C380.68 153.865 384.293 153.865 390.737 153.865" stroke="black" stroke-linecap="round"/>
<path d="M374.237 161.865H390.737" stroke="black" stroke-linecap="round"/>
<path d="M374.237 169.365H390.737" stroke="black" stroke-linecap="round"/>
<path d="M370.736 180.026C400.236 183.365 397.5 167 397.736 160.865" stroke="black" stroke-linecap="round"/>
<path d="M385.236 130.865C395.736 129.881 397.736 144.865 397.736 160.865" stroke="black" stroke-linecap="round"/>
<path d="M346.644 122.58C358.611 127.344 370.202 132.275 385.236 130.865" stroke="black" stroke-linecap="round"/>
<path d="M336.736 118.866C300.21 111.56 253.121 112.594 229.736 121.205C225.131 122.676 223.817 127.258 223.736 129.365" stroke="black" stroke-linecap="round"/>
<path d="M121.736 180.026C113.736 195.866 113.736 289.865 121.736 341.026" stroke="black" stroke-linecap="round"/>
<path d="M233.736 195.866C236.956 185.402 234.733 164.569 228.736 156.841C224.735 156.022 223.736 151.849 223.736 149.865V129.365" stroke="black" stroke-linecap="round"/>
<path d="M233.736 195.866V321.866" stroke="black" stroke-linecap="round"/>
<path d="M233.736 321.866L181.292 341.026H143.736M121.736 341.026H75.7356" stroke="black" stroke-linecap="round"/>
<path d="M233.736 195.866L181.292 180.026H139.236M121.736 180.026H74.2356" stroke="black" stroke-linecap="round"/>
<path d="M45.2928 180.026C-13.7644 147.365 -13.7641 376.365 45.2928 341.026" stroke="black" stroke-linecap="round"/>
<path d="M407.335 150.911C377.174 108.08 338.326 88.5289 283 113" stroke="black" stroke-linecap="round"/>
<path d="M407.335 150.911C435.29 190.61 455.781 250.309 475.01 313.491" stroke="black" stroke-linecap="round"/>
<path d="M475.01 313.491C493.532 374.349 510.883 438.439 532.606 491" stroke="black" stroke-linecap="round"/>
<path d="M529.703 529C416.106 681 415 349 295 349" stroke="black" stroke-linecap="round"/>
<path d="M569 957C518.333 1063.67 521.2 1363.8 406 1511" stroke="black" stroke-linecap="round"/>
<path d="M569 957C637 1029 658 1245 682 1511" stroke="black" stroke-linecap="round"/>
<path d="M569 957C526 782 532.606 682 529.703 529" stroke="black" stroke-linecap="round"/>
<path d="M529.703 529C530.495 516.008 531.473 503.325 532.606 491" stroke="black" stroke-linecap="round"/>
<path d="M558 337C548.165 374.827 538.373 428.28 532.606 491" stroke="black" stroke-linecap="round"/>
<path d="M407.335 150.911C419.873 73.3158 477.185 1.00024 558 1.00024C760 1.00031 773.505 351.611 558 337C524.409 334.723 496.936 326.287 475.01 313.491C416.123 279.124 397.252 213.31 407.335 150.911Z" stroke="black" stroke-linecap="round"/>
<path d="M126.736 180.026C120.236 205.865 121.736 315.365 129.236 341.026M126.736 180.026H121.736M126.736 180.026H139.236C133.736 250.365 135.236 280.365 143.736 341.026H129.236M129.236 341.026H121.736M44.7922 181.865C45.2912 179.677 44.8115 181.726 45.2928 180.026H74.2356C74.1622 180.618 74.0882 181.232 74.0139 181.865M44.7922 181.865H74.0139M44.7922 181.865C44.5755 182.816 44.3571 183.816 44.1378 184.865M74.0139 181.865C73.902 182.82 73.7893 183.821 73.6764 184.865M44.1378 184.865H73.6764M44.1378 184.865C43.8739 186.129 43.6089 187.463 43.3448 188.865M73.6764 184.865C73.5392 186.134 73.4017 187.469 73.2647 188.865M43.3448 188.865H73.2647M43.3448 188.865C43.1042 190.143 42.8644 191.477 42.6267 192.865M73.2647 188.865C73.1391 190.147 73.0139 191.481 72.8899 192.865M42.6267 192.865H72.8899M42.6267 192.865C42.4602 193.839 42.2947 194.839 42.1308 195.865M72.8899 192.865C72.8026 193.841 72.7159 194.841 72.63 195.865M42.1308 195.865H72.63M42.1308 195.865C41.8996 197.314 41.6715 198.815 41.448 200.365M72.63 195.865C72.5082 197.318 72.3882 198.819 72.2706 200.365M41.448 200.365H72.2706M41.448 200.365C41.1931 202.134 40.9441 203.969 40.7032 205.865M72.2706 200.365C72.1358 202.14 72.0042 203.974 71.877 205.865M40.7032 205.865H71.877M40.7032 205.865C40.4974 207.487 40.2974 209.154 40.1046 210.865M71.877 205.865C71.7677 207.491 71.6616 209.159 71.5595 210.865M40.1046 210.865H71.5595M40.1046 210.865C39.9392 212.333 39.7792 213.834 39.6253 215.365M71.5595 210.865C71.4715 212.337 71.3864 213.837 71.3047 215.365M39.6253 215.365H71.3047M39.6253 215.365C39.4613 216.997 39.3044 218.664 39.1553 220.365M71.3047 215.365C71.2172 217.001 71.1337 218.668 71.0546 220.365M39.1553 220.365H71.0546M39.1553 220.365C39.0262 221.84 38.903 223.34 38.7865 224.865M71.0546 220.365C70.9932 221.681 70.9346 223.015 70.8789 224.365M38.7865 224.865L70.8789 224.365M38.7865 224.865C38.6613 226.504 38.5438 228.171 38.4348 229.865M70.8789 224.365C70.8045 226.169 70.7353 228.003 70.6719 229.865M38.4348 229.865H70.6719M38.4348 229.865C38.3292 231.507 38.2315 233.174 38.1425 234.865M70.6719 229.865C70.6159 231.51 70.5645 233.178 70.5181 234.865M38.1425 234.865H70.5181M38.1425 234.865C38.0732 236.184 38.0091 237.517 37.9507 238.865M70.5181 234.865C70.4817 236.186 70.4484 237.52 70.4184 238.865M37.9507 238.865H70.4184M37.9507 238.865C37.8723 240.673 37.804 242.506 37.7467 244.365M70.4184 238.865C70.3779 240.677 70.3434 242.511 70.3152 244.365M37.7467 244.365H70.3152M37.7467 244.365C37.7009 245.85 37.6621 247.35 37.6307 248.865M70.3152 244.365C70.2926 245.853 70.2741 247.353 70.26 248.865M37.6307 248.865H70.26M37.6307 248.865C37.5931 250.677 37.5661 252.511 37.5504 254.365M70.26 248.865C70.243 250.682 70.2323 252.516 70.2284 254.365M37.5504 254.365H70.2284M37.5504 254.365C37.5364 256.016 37.5313 257.682 37.5357 259.365M70.2284 254.365C70.2248 256.02 70.2267 257.687 70.2343 259.365M37.5357 259.365H70.2343M37.5357 259.365C37.54 261.017 37.5534 262.684 37.5763 264.365M70.2343 259.365C70.2417 261.021 70.2547 262.688 70.2736 264.365M37.5763 264.365H70.2736M37.5763 264.365C37.5989 266.018 37.6307 267.685 37.6721 269.365M70.2736 264.365C70.2922 266.022 70.3166 267.689 70.3469 269.365M37.6721 269.365H70.3469M37.6721 269.365C37.7129 271.019 37.7631 272.686 37.8231 274.365M70.3469 269.365C70.439 274.456 70.5865 279.632 70.7975 284.865M37.8231 274.365H70.2284M37.8231 274.365C37.8822 276.02 37.9509 277.687 38.0294 279.365M38.0294 279.365H70.5981M38.0294 279.365C38.1146 281.185 38.2115 283.019 38.3205 284.865M38.3205 284.865H70.7975M38.3205 284.865C38.4183 286.522 38.526 288.188 38.6438 289.865M70.7975 284.865C70.8645 286.527 70.9379 288.194 71.0179 289.865M38.6438 289.865H71.0179M38.6438 289.865C38.7718 291.687 38.9118 293.521 39.0644 295.365M71.0179 289.865C71.1925 293.512 71.3987 297.181 71.6394 300.865M39.0644 295.365H71.3046M39.0644 295.365C39.2151 297.188 39.378 299.021 39.5537 300.865M39.5537 300.865H71.6394M39.5537 300.865C39.7273 302.689 39.9134 304.522 40.1124 306.365M71.6394 300.865C71.7589 302.696 71.8869 304.529 72.0238 306.365M40.1124 306.365H72.0238M40.1124 306.365C40.3271 308.355 40.5568 310.355 40.802 312.365M72.0238 306.365C72.1727 308.363 72.332 310.363 72.5022 312.365M40.802 312.365H72.5022M40.802 312.365C41.0649 314.52 41.3456 316.687 41.645 318.865M72.5022 312.365C72.6863 314.531 72.8831 316.698 73.0932 318.865M41.645 318.865H73.0932M41.645 318.865C41.964 321.187 42.3041 323.52 42.6662 325.865M73.0932 318.865C73.5138 323.204 73.9875 327.542 74.5187 331.865M42.6662 325.865H73.8188M42.6662 325.865C42.9737 327.857 43.2971 329.858 43.6369 331.865M43.6369 331.865H74.5187M43.6369 331.865C43.9461 333.693 44.2688 335.526 44.6056 337.365M74.5187 331.865C74.7443 333.702 74.9803 335.536 75.227 337.365M44.6056 337.365C44.8285 338.583 45.0575 339.803 45.2928 341.026H75.7356C75.5612 339.808 75.3917 338.587 75.227 337.365M44.6056 337.365H75.227M126.236 182.865H138.736M125.736 186.365H138.736M125.236 190.365H138.236M124.736 194.865H137.736M124.236 199.365H137.736M124.236 203.365H137.236M123.736 207.365H137.236M123.736 211.865H136.736M123.236 216.365H136.736M123.236 221.365H136.236M123.236 226.865H136.236M122.736 231.365H136.236M122.736 236.365H136.236M122.736 241.865H135.736M122.736 247.365H135.736M122.736 251.865H135.736M122.736 256.365H135.736M122.736 261.865H136.236M123.236 268.365H136.236M123.236 273.865H136.236M123.236 279.865H136.736M123.736 286.865H137.236M124.236 294.365H137.736M124.236 301.365H138.736M124.736 307.865H139.236M125.236 313.365H139.736M125.736 318.865H140.236M126.736 324.865H141.236M127.236 331.365H142.236M128.236 336.865H142.736M304.736 160.115C304.764 160.346 304.817 160.281 304.986 160.365M304.486 166.365V166.615M304.236 173.615C304.213 173.438 304.063 173.271 303.986 173.115M311.736 160.365V160.615M319.986 161.365V161.865M328.985 161.615C328.69 161.578 328.735 161.364 328.735 161.115M337.486 160.865V161.365M344.486 160.615V160.865M310.736 168.115V168.615M318.986 168.365C319.281 168.402 319.236 168.617 319.236 168.865M328.736 168.115C328.576 167.936 328.556 167.828 328.486 167.615M337.736 167.365V167.115M344.986 167.115V167.615M310.486 174.615H310.986M319.736 174.365H319.486M329.486 174.115H329.986M337.486 173.115H337.986M344.486 173.365H344.986" stroke="black" stroke-linecap="round"/>
<path d="M336.5 118.8L346.644 122.58" stroke="black" stroke-linecap="round"/>
</svg>
