<svg width="1745" height="716" viewBox="0 0 1745 716" fill="none" xmlns="http://www.w3.org/2000/svg">
<path d="M734 576C730.5 572.276 721.5 564.5 714 550" stroke="black" stroke-linecap="round"/>
<path d="M1002 95.9998C1094 -44 1352 -18.0001 1430 95.9998" stroke="black" stroke-linecap="round"/>
<path d="M1430 95.9998C1564 42 1658 148 1582 228" stroke="black" stroke-linecap="round"/>
<path d="M1582 228C1778 228 1800 402 1630 428" stroke="black" stroke-linecap="round"/>
<path d="M1630 428C1754 540 1458 686 1266 608" stroke="black" stroke-linecap="round"/>
<path d="M1266 608C944 754 852.947 702.542 734 576" stroke="black" stroke-linecap="round"/>
<path d="M734 576C718 730 562 738 546 608" stroke="black" stroke-linecap="round"/>
<path d="M546 608C376 784 130 720 238 576" stroke="black" stroke-linecap="round"/>
<path d="M238 576C-42 664 -111.593 394.138 238 252.535" stroke="black" stroke-linecap="round"/>
<path d="M510 168C422 68 238 130 238 252.535" stroke="black" stroke-linecap="round"/>
<path d="M510 168C610 7.99998 860 -2.28882e-05 1002 95.9998" stroke="black" stroke-linecap="round"/>
<path d="M1086 506C1088 532 1126.8 568.4 1266 506" stroke="black" stroke-linecap="round"/>
<path d="M1472 406C1488.67 433.333 1484 486 1332 478" stroke="black" stroke-linecap="round"/>
</svg>
