<svg width="2790" height="1794" viewBox="0 0 2790 1794" fill="none" xmlns="http://www.w3.org/2000/svg">
    <path d="M381 477C349.302 547.286 334.342 614.13 332.255 677M1195 1357C1153.74 1352.73 1116.65 1347.75 1083 1342.24" stroke="black" stroke-linecap="round"/>
    <path d="M1161 293C1245.34 328.343 1261 373 1385 393" stroke="black" stroke-linecap="round"/>
    <path d="M1161 293C985 193 500.059 213 381 477" stroke="black" stroke-linecap="round"/>
    <path d="M765 1249C845.462 1279.81 927.454 1316.74 1083 1342.24" stroke="black" stroke-linecap="round"/>
    <path d="M765 1249C609.387 1189.4 322.228 979.077 332.255 677" stroke="black" stroke-linecap="round"/>
    <path d="M1581 1333C1459 1349.42 1292.74 1367.11 1195 1357" stroke="black" stroke-linecap="round"/>
    <path d="M1581 1333C2016.15 1274.42 2577 849 2789 609" stroke="black" stroke-linecap="round"/>
    <path d="M1805 609C2141 561 2345 517 2509 329" stroke="black" stroke-linecap="round"/>
    <path d="M1805 609C1601 615.017 1504.07 578.97 1385 393" stroke="black" stroke-linecap="round"/>
    <path d="M1897 753C2305 633 2453 477 2509 329" stroke="black" stroke-linecap="round"/>
    <path d="M1385 393C1899.14 230.471 2109.23 143.488 2245 1" stroke="black" stroke-linecap="round"/>
    <path d="M1805 609C2115.83 378.184 2242.21 246.493 2245 1" stroke="black" stroke-linecap="round"/>
    <path d="M2721 561C2093 829 1677 777 1385 753" stroke="black" stroke-linecap="round"/>
    <path d="M381 477L1 677" stroke="black" stroke-linecap="round"/>
    <path d="M1 677H332.255" stroke="black" stroke-linecap="round"/>
    <path d="M1581 1697L1489 1793" stroke="black" stroke-linecap="round"/>
    <path d="M1581 1697L1677 1793" stroke="black" stroke-linecap="round"/>
    <path d="M1581 1333V1697" stroke="black" stroke-linecap="round"/>
    <path d="M1033 1697L893 1765" stroke="black" stroke-linecap="round"/>
    <path d="M1033 1697L1113 1793" stroke="black" stroke-linecap="round"/>
    <path d="M1033 1696.76L1058 1519.38L1083 1342" stroke="black" stroke-linecap="round"/>
    <path d="M656 501C652.908 501.386 653.808 507 657 507C660.337 507 661 504.014 661 501.5C661 500.173 658.381 496.773 657 498.5C654.638 501.452 654 500.576 654 505" stroke="black" stroke-width="8" stroke-linecap="round"/>
</svg>
