<svg width="20920" height="3640" viewBox="0 0 20920 3640" fill="none" xmlns="http://www.w3.org/2000/svg">
<path d="M18273 3025C18372.1 2961.83 18432.1 2934.13 18569 2937" stroke="black" stroke-linecap="round"/>
<path d="M18361 2937C18308 2963 18279 2997 18273 3025" stroke="black" stroke-linecap="round"/>
<path d="M18041 3025C18153.5 2969.05 18223.1 2948.96 18361 2937" stroke="black" stroke-linecap="round"/>
<path d="M18113 2937C18066 2957 18041 2992 18041 3025" stroke="black" stroke-linecap="round"/>
<path d="M17769 2992C17867 2945 18015 2920 18113 2937" stroke="black" stroke-linecap="round"/>
<path d="M17985 2785C17880 2844 17814 2900 17769 2992" stroke="black" stroke-linecap="round"/>
<path d="M17477 2914C17574 2819 17824 2758 17985 2785" stroke="black" stroke-linecap="round"/>
<path d="M17705 2513C17573 2594 17414.2 2791.54 17477 2914" stroke="black" stroke-linecap="round"/>
<path d="M17305 2937C17356 2763 17542 2568 17705 2513" stroke="black" stroke-linecap="round"/>
<path d="M17033 2593C17140.1 2688.55 17200 2747.56 17305 2937" stroke="black" stroke-linecap="round"/>
<path d="M17129 3025C17147.7 2850.66 17114.3 2757.32 17033 2593" stroke="black" stroke-linecap="round"/>
<path d="M16881 2857C16995.8 2887.63 17049.9 2924.85 17129 3025" stroke="black" stroke-linecap="round"/>
<path d="M16947 3073C16966.1 2982.55 16938.8 2937.01 16881 2857" stroke="black" stroke-linecap="round"/>
<path d="M15657 3073H16829" stroke="black" stroke-linecap="round"/>
<path d="M15697 2937C15557 2937 15442 3073 15657 3073" stroke="black" stroke-linecap="round"/>
<path d="M15465 2985C15559.3 2936.35 15609.9 2927.94 15697 2937" stroke="black" stroke-linecap="round"/>
<path d="M15465 2785C15458 2867.75 15454.9 2913.64 15465 2985" stroke="black" stroke-linecap="round"/>
<path d="M15329 3073C15398.3 2971.82 15424.4 2906.2 15465 2785" stroke="black" stroke-linecap="round"/>
<path d="M15113 2857C15205 2912.41 15250.7 2965.61 15329 3073" stroke="black" stroke-linecap="round"/>
<path d="M15161 3025C15160.8 2953.63 15145.4 2918.37 15113 2857" stroke="black" stroke-linecap="round"/>
<path d="M14857 2785C14954.2 2809.7 15017 2850.06 15161 3025" stroke="black" stroke-linecap="round"/>
<path d="M14953 3145C15003 3025 14939 2888 14857 2785" stroke="black" stroke-linecap="round"/>
<path d="M14689 3025.43C14777.5 3020.4 14839 3059.8 14953 3145.43" stroke="black" stroke-linecap="round"/>
<path d="M14737 3145C14730.7 3098.31 14721.2 3072.06 14689 3025" stroke="black" stroke-linecap="round"/>
<path d="M14417 3025C14536.2 3015.4 14607.2 3051.02 14737 3145" stroke="black" stroke-linecap="round"/>
<path d="M14465 3145C14485 3109 14465 3059 14417 3025" stroke="black" stroke-linecap="round"/>
<path d="M14009 3145H14465" stroke="black" stroke-linecap="round"/>
<path d="M14087 2831C13952 2948.23 13863 3145 14009 3145" stroke="black" stroke-linecap="round"/>
<path d="M13817 2985C13912 2879.45 13975 2843 14087 2831" stroke="black" stroke-linecap="round"/>
<path d="M13725 2727C13795 2785 13833 2875 13817 2985" stroke="black" stroke-linecap="round"/>
<path d="M13665 2985C13767.7 2934.63 13749 2803 13725 2727" stroke="black" stroke-linecap="round"/>
<path d="M13665 2875V2930V2985" stroke="black" stroke-linecap="round"/>
<path d="M13593 2937L13626 2908L13665 2875" stroke="black" stroke-linecap="round"/>
<path d="M13369 2785C13457 2785 13563 2857 13593 2937" stroke="black" stroke-linecap="round"/>
<path d="M13497 3145C13531 3073 13481 2921 13369 2785" stroke="black" stroke-linecap="round"/>
<path d="M13113 2985C13257.7 3009.28 13342.4 3048.91 13497 3145" stroke="black" stroke-linecap="round"/>
<path d="M13177 3073C13176.2 3058.23 13157.5 3039.58 13113 2985" stroke="black" stroke-linecap="round"/>
<path d="M12825 3025C12960.4 3026.76 13037.4 3036.44 13177 3073" stroke="black" stroke-linecap="round"/>
<path d="M13025 3145C13005.4 3115.14 12959.2 3088.37 12825 3025" stroke="black" stroke-linecap="round"/>
<path d="M12553 3145H13025" stroke="black" stroke-linecap="round"/>
<path d="M12059 2419C11992 2401 11937 2449 11981 2519C11905 2519 11906 2626 11981 2641C11933 2698 11997 2728.31 12045 2687C12045 2733 12100 2756 12139 2711C12139 2765 12247 2728.31 12215 2687C12263 2728.31 12335 2662 12281 2621C12358 2621 12367 2533 12297 2533C12368 2502 12323 2432 12263 2449C12281 2392 12227 2354 12177 2401C12139 2354 12059 2361 12059 2419Z" stroke="black" stroke-linecap="round"/>
<path d="M12121 3185C12102.3 3105 12073.2 2901.11 12118 2728.31" stroke="black" stroke-linecap="round"/>
<path d="M11575 3083C11539.6 3120.1 11521.8 3141.67 11503 3185" stroke="black" stroke-linecap="round"/>
<path d="M11319 3185C11432.4 3124.09 11489.5 3100.06 11575 3083" stroke="black" stroke-linecap="round"/>
<path d="M11407 3083C11361 3124.13 11340.7 3146.58 11319 3185" stroke="black" stroke-linecap="round"/>
<path d="M11131 3185C11253.9 3126.4 11311.8 3107.14 11407 3083" stroke="black" stroke-linecap="round"/>
<path d="M10993 3185C11110.7 3115.62 11163.6 3090.78 11233 3073" stroke="black" stroke-linecap="round"/>
<path d="M11071 3073C11028.1 3114.7 11011.9 3139.36 10993 3185" stroke="black" stroke-linecap="round"/>
<path d="M10857 3145C10991.9 3089.37 11043.6 3070.99 11071 3073" stroke="black" stroke-linecap="round"/>
<path d="M10955 3045C10899.5 3075.49 10880.3 3098.54 10857 3145" stroke="black" stroke-linecap="round"/>
<path d="M10793 3073C10857.5 3048.26 10893.2 3040.33 10955 3045" stroke="black" stroke-linecap="round"/>
<path d="M11007 2715C10857 2783 10693 3005 10793 3073" stroke="black" stroke-linecap="round"/>
<path d="M10433 3025C10579 2845 10771 2741 11007 2715" stroke="black" stroke-linecap="round"/>
<path d="M10601 2617C10474.8 2761.19 10438.9 2850.72 10433 3025" stroke="black" stroke-linecap="round"/>
<path d="M10137 3025C10209 2813 10357 2673 10601 2617" stroke="black" stroke-linecap="round"/>
<path d="M9793 2657C9987.35 2769.22 10066.5 2847.79 10137 3025" stroke="black" stroke-linecap="round"/>
<path d="M9921 3185C9953 3025 9901 2839 9793 2657" stroke="black" stroke-linecap="round"/>
<path d="M9673 2857C9798.49 2904.69 9855.34 2969.35 9921 3185" stroke="black" stroke-linecap="round"/>
<path d="M9729 3185C9771 3105 9744.07 2951 9673 2857" stroke="black" stroke-linecap="round"/>
<path d="M9505 2985C9597 3001 9673 3063 9729 3185" stroke="black" stroke-linecap="round"/>
<path d="M9569 3185C9589 3131 9569 3063 9505 2985" stroke="black" stroke-linecap="round"/>
<path d="M8825 3185H9569" stroke="black" stroke-linecap="round"/>
<path d="M8825 3025C8857 3067 8853 3147 8825 3185" stroke="black" stroke-linecap="round"/>
<path d="M8689 3185C8762.35 3136.73 8791.37 3099.59 8825 3025" stroke="black" stroke-linecap="round"/>
<path d="M8689 2937C8737 2997 8747 3109 8689 3185" stroke="black" stroke-linecap="round"/>
<path d="M8529 3185C8622.37 3113.68 8651.11 3054.17 8689 2937" stroke="black" stroke-linecap="round"/>
<path d="M8297 2937L8529 3185" stroke="black" stroke-linecap="round"/>
<path d="M8297 3185C8357 3123 8341 3025 8297 2937" stroke="black" stroke-linecap="round"/>
<path d="M7673 3185H8297" stroke="black" stroke-linecap="round"/>
<path d="M7737 2937C7698.02 3033.44 7681.52 3087.67 7673 3185" stroke="black" stroke-linecap="round"/>
<path d="M7537 3025L7737 2937" stroke="black" stroke-linecap="round"/>
<path d="M7537 2857V3025" stroke="black" stroke-linecap="round"/>
<path d="M7217 3185C7327.09 3012.43 7397.45 2941.5 7537 2857" stroke="black" stroke-linecap="round"/>
<path d="M7017 2785C7137.43 2921.32 7185.52 3006.88 7217 3185" stroke="black" stroke-linecap="round"/>
<path d="M7073 3233C7079.48 3087.22 7069.64 2991.62 7017 2785" stroke="black" stroke-linecap="round"/>
<path d="M6721 2617C6887.47 2811.55 6968.6 2939.97 7073 3233" stroke="black" stroke-linecap="round"/>
<path d="M6841 3233C6836.6 3039.45 6805.9 2899.67 6721 2617" stroke="black" stroke-linecap="round"/>
<path d="M6481 2897C6622.64 2982.09 6701.35 3060.65 6841 3233" stroke="black" stroke-linecap="round"/>
<path d="M6601 3233C6589.68 3117.74 6560.61 3042.92 6481 2897" stroke="black" stroke-linecap="round"/>
<path d="M6321 2985C6438.26 3041.04 6498.99 3098.32 6601 3233" stroke="black" stroke-linecap="round"/>
<path d="M6441 3233C6427.04 3152.63 6396.79 3096.34 6321 2985" stroke="black" stroke-linecap="round"/>
<path d="M6041 3025C6213.66 3041.01 6300.53 3089.38 6441 3233" stroke="black" stroke-linecap="round"/>
<path d="M6233 3297C6158.02 3190.78 6115.98 3131.22 6041 3025" stroke="black" stroke-linecap="round"/>
<path d="M2929 3297C3042.24 3213.98 3099.93 3157.28 3185 3025V3161V3297" stroke="black" stroke-linecap="round"/>
<path d="M1105 3369C1074.2 3171.78 1035.93 3030.28 929 2721C1160.06 2899.54 1301 3065 1409 3297" stroke="black" stroke-linecap="round"/>
<path d="M137 3473C130.986 3244.18 92.3671 3104.76 1 2849C308.408 2993.48 457 3185 529 3473" stroke="black" stroke-linecap="round"/>
<path d="M1554.52 2637.11C1604.52 2732.11 1746.52 2674.11 1688.52 2569.11C1775.52 2658.11 1871.52 2537.11 1734.52 2495.11C1853.52 2527.11 1904.52 2379.11 1746.52 2379.11C1816.52 2366.11 1821.52 2251.11 1722.52 2305.11C1837.52 2251.11 1756.52 2165.11 1688.52 2203.11C1717.52 2159.11 1664.52 2108.11 1604.52 2159.11C1597.52 2072.11 1496.52 2086.11 1506.52 2159.11C1462.52 2073.11 1339.52 2131.11 1416.52 2225.11C1353.52 2159.11 1258.52 2273.11 1376.52 2295.11C1262.52 2267.11 1290.52 2379.11 1358.52 2379.11C1264.52 2367.11 1301.52 2456.11 1358.52 2437.11C1223.52 2466.11 1281.52 2579.11 1376.52 2527.11C1290.52 2574.19 1358.52 2691.11 1438.52 2617.11C1376.52 2709.11 1540.52 2742.11 1554.52 2637.11Z" stroke="black" stroke-linecap="round"/>
<path d="M1540.52 2331.11C1450.52 2331.11 1430.52 2485.11 1540.52 2495.11C1650.52 2505.11 1662.52 2331.11 1540.52 2331.11Z" stroke="black" stroke-linecap="round"/>
<path d="M1496.52 3297.11C1556.52 3177.11 1594.52 2755.11 1554.52 2637.11" stroke="black" stroke-linecap="round"/>
<path d="M4929 1061.34C4553 1097.34 3926.36 1011.26 3489 1061.34" stroke="black" stroke-linecap="round"/>
<path d="M4929 1061.34C5178.84 1011.92 5439.5 1015.82 5537 869.339" stroke="black" stroke-linecap="round"/>
<path d="M5537 869.339C5656.81 689.339 5756.67 627.34 5809 585.34C5851.12 561.34 5947.67 517.339 6006.73 509.339" stroke="black" stroke-linecap="round"/>
<path d="M6033 585.34C6026.53 540.599 6012.02 556.016 6006.73 509.339" stroke="black" stroke-linecap="round"/>
<path d="M6377 529.34C6294.33 84.007 6617 -394.661 6617 529.34" stroke="black" stroke-linecap="round"/>
<path d="M6377 529.34C6241.86 -198.66 6006.73 -62.6605 6006.73 365.34C6009.22 392.47 6003.62 481.921 6006.73 509.339" stroke="black" stroke-linecap="round"/>
<path d="M6629 549.339C6709 542.674 6869 494.141 7029 417.341" stroke="black" stroke-linecap="round"/>
<path d="M6673 561.339C6818.33 548.006 7064.2 498.939 7189 457.339" stroke="black" stroke-linecap="round"/>
<path d="M7153 737.339C6961 633.338 6753 518.674 6617 529.34" stroke="black" stroke-linecap="round"/>
<path d="M7057 1273.34C7449 1473.34 7633 737.339 7153 737.339" stroke="black" stroke-linecap="round"/>
<path d="M7057 1273.34C6967.4 940.54 7097 838.673 7153 737.339" stroke="black" stroke-linecap="round"/>
<path d="M6033 585.34C6055.54 741.34 5992.5 885.394 5973 983.34" stroke="black" stroke-linecap="round"/>
<path d="M6617 1249.34C6837 1189.34 6857 1203.34 7057 1273.34" stroke="black" stroke-linecap="round"/>
<path d="M6617 1249.34C6397 1309.34 5885 1425.34 5973 983.34" stroke="black" stroke-linecap="round"/>
<path d="M5657 2297.34C5814.33 2249.34 6377 2001.34 6617 1249.34" stroke="black" stroke-linecap="round"/>
<path d="M5337 2297.34C4735.4 2431.74 4078.33 2353.34 3825 2297.34C3783 2288.06 3635 2265.34 3489 2139.48" stroke="black" stroke-linecap="round"/>
<path d="M5749 3241.34H5877.86H6006.73" stroke="black" stroke-linecap="round"/>
<path d="M5925 2169.85C5994.73 2703.7 6007.22 3041.34 6006.73 3241.34" stroke="black" stroke-linecap="round"/>
<path d="M5657 2297.34C5691.67 2540.03 5749 3041.34 5749 3241.34" stroke="black" stroke-linecap="round"/>
<path d="M5749 3241.34C5749 3665.34 6103.22 3513.34 6006.73 3241.34" stroke="black" stroke-linecap="round"/>
<path d="M5377 3305.34C5377 3613.34 5749 3705.34 5678.54 3305.34" stroke="black" stroke-linecap="round"/>
<path d="M5377 3305.34H5678.54" stroke="black" stroke-linecap="round"/>
<path d="M5657 2297.34C5657 2651.34 5689 3145.34 5678.54 3305.34" stroke="black" stroke-linecap="round"/>
<path d="M5337 2297.34C5349.71 2547.87 5377 3105.34 5377 3305.34" stroke="black" stroke-linecap="round"/>
<path d="M3217.37 3347.34H3353.18H3489" stroke="black" stroke-linecap="round"/>
<path d="M3565 3243.34L3681 3241.34L3825 3243.34" stroke="black" stroke-linecap="round"/>
<path d="M3565 3243.34C3565 3673.34 3937 3553.34 3825 3243.34" stroke="black" stroke-linecap="round"/>
<path d="M3513 2297.34C3524.85 2548.09 3536.14 3047.13 3565 3243.34" stroke="black" stroke-linecap="round"/>
<path d="M3825 2297.34C3792.73 2638.65 3825 3075.34 3825 3243.34" stroke="black" stroke-linecap="round"/>
<path d="M3217.37 3347.34C3181 3675.34 3595 3793.34 3489 3347.34" stroke="black" stroke-linecap="round"/>
<path d="M3513 2297.34C3466.81 2631.79 3489 3179.34 3489 3347.34" stroke="black" stroke-linecap="round"/>
<path d="M3241 2297.34C3214.35 2578.36 3207.51 3161.25 3217.37 3347.34" stroke="black" stroke-linecap="round"/>
<path d="M3185 1353.34C2969 1412.01 2205.8 2273.34 2273 2721.34" stroke="black" stroke-linecap="round"/>
<path d="M3185 1333.34C2913 1422.49 2157 2239.34 2181 2721.34" stroke="black" stroke-linecap="round"/>
<path d="M3185 1305.34C2946.33 1326.67 2148.2 2142.14 2097 2721.34" stroke="black" stroke-linecap="round"/>
<path d="M3185 1289.34C2879 1346.67 2091 2051.34 2005 2721.34" stroke="black" stroke-linecap="round"/>
<path d="M3185 1273.34C2947 1333.34 1959 1891.34 1921 2721.34" stroke="black" stroke-linecap="round"/>
<path d="M5596 787.839C5495.7 851.173 5165.8 1051.01 4913 1103.81" stroke="black" stroke-linecap="round"/>
<path d="M5655 718.339C5595.2 757.006 5281.8 933.811 4949 1029.81" stroke="black" stroke-linecap="round"/>
<path d="M5697.5 676.839C5583 723.506 5156.2 912.211 4977 953.811" stroke="black" stroke-linecap="round"/>
<path d="M5790 599.839C5739.33 638.663 5346.6 841.011 5001 885.811" stroke="black" stroke-linecap="round"/>
<path d="M7310.73 998.924C7310.73 995.017 7312.81 994.037 7314.29 998.48C7315.44 1001.94 7310.14 1001.44 7311.18 998.924C7315.57 988.267 7322.28 1002.92 7315.73 1002.92C7309.45 1002.92 7313.83 993.147 7317.73 993.147C7323.56 993.147 7318.88 1008.18 7313.18 1002.48C7309.27 998.571 7320.73 989.831 7320.73 1000.92C7320.73 1007.03 7311.95 1009.45 7310.85 1002.81C7309.28 993.447 7322.33 989.175 7322.73 996.924C7323.36 1008.74 7310.73 1005.26 7310.73 994.147C7310.73 987.533 7322.73 986.451 7322.73 995.924C7322.73 1004.64 7307.17 1004.08 7309.18 998.924C7313.49 987.837 7327.55 994.66 7322.29 1006.92C7318.29 1016.26 7312.83 997.147 7319.73 997.147C7323.27 997.147 7322.25 1010.44 7313.73 1001.92C7305.78 993.967 7320.73 992.579 7320.73 998.924C7320.73 1003.1 7315.9 998.451 7315.18 996.924C7313.39 993.113 7319.79 997.622 7315.62 998.813C7314.1 999.248 7314.73 992.563 7314.73 994.147C7314.73 997.601 7318.46 996.655 7316.73 994.924" stroke="black" stroke-width="8" stroke-linecap="round"/>
<path d="M6619.48 748.525C6616.9 747.787 6619.88 743.522 6621.48 745.525C6623.85 748.492 6625.98 750.244 6625.37 754.525C6624.34 761.704 6615.49 757.4 6617.93 752.525C6622.46 743.453 6625.1 758.303 6620.37 758.303C6614.38 758.303 6612.69 744.839 6621.48 746.969C6631.6 749.424 6627.5 761.629 6618.48 762.414C6603.35 763.73 6596.51 736.614 6613.04 742.969C6622.18 746.486 6618.27 760.919 6609.59 757.303C6594.81 751.143 6596.39 731.207 6615.37 735.636C6656.84 745.313 6578.4 770.488 6599.7 745.636C6604.74 739.762 6625.48 736.985 6625.48 748.969C6625.48 758.71 6613.7 758.333 6613.7 748.414C6613.7 740.006 6621.38 728.586 6627.04 740.525C6632.77 752.625 6608.17 759.394 6600.81 758.414C6597.7 757.998 6594.78 752.829 6593.93 750.08C6590.94 740.477 6597.6 740.026 6605.26 738.969C6616.48 737.422 6619.05 748.895 6613.04 756.525C6604.63 767.191 6597.71 756.409 6603.7 747.414C6609.94 738.055 6624.05 735.85 6623.48 750.08C6623.24 756.086 6608.27 751.049 6607.59 746.303C6606.51 738.734 6619.63 731.33 6623.04 738.525C6629.52 752.223 6612.99 763.273 6601.59 764.414C6591.3 765.443 6588.32 754.977 6597.48 750.525C6604.32 747.204 6614.25 755.488 6608.48 762.414C6604.01 767.784 6600.54 754.137 6601.81 750.303C6606.44 736.421 6617.73 739.83 6623.48 748.969C6629.39 758.351 6613.89 771.9 6608.59 764.191C6604.2 757.81 6601.65 738.525 6613.48 738.525C6622.84 738.525 6614.16 756.552 6610.48 759.414C6601.2 766.636 6599.32 749.713 6599.48 744.969C6599.75 737.104 6611.56 733.345 6616.37 739.525C6626.72 752.836 6586.24 762.39 6599.48 742.525" stroke="black" stroke-width="8" stroke-linecap="round"/>
<path d="M19053 2436C19078 2502.5 19122.5 2547.5 19078 2436" stroke="black" stroke-linecap="round"/>
<path d="M18988 2436C18979 2496 19002 2553 19009 2436" stroke="black" stroke-linecap="round"/>
<path d="M18953 2423C18937 2487.67 18944.5 2540.5 18976 2436" stroke="black" stroke-linecap="round"/>
<path d="M18836.1 2327C18832 2513 19189 2557 19189 2327" stroke="black" stroke-linecap="round"/>
<path d="M20023 1553C19984.4 1487.61 19965.9 1427.17 19962.5 1373C19958.8 1314.49 19972.8 1263.27 19998.4 1221C20011.1 1200.08 20026.7 1181.34 20044.3 1165C20064.2 1146.56 20086.8 1131.15 20111 1119.08C20189.3 1080.02 20284.6 1075.78 20361 1116.03C20384.1 1128.2 20398.4 1135.43 20417 1156C20426.8 1166.79 20442.9 1187.78 20451.1 1201C20469.9 1231.58 20483.9 1276.75 20491.5 1321C20502.4 1385.49 20499.4 1456.99 20477 1553" stroke="black" stroke-linecap="round"/>
<path d="M19962.5 1553C19288.9 1556.2 18855 1534.33 18769 1553C18737.5 1559.84 18704.5 1569.93 18676 1587" stroke="black" stroke-linecap="round"/>
<path d="M20361 1116.03C20451.1 1101.5 20459.5 1093 20529 1057" stroke="black" stroke-linecap="round"/>
<path d="M20529 1057C20491.5 1104.5 20494.5 1103 20417 1156" stroke="black" stroke-linecap="round"/>
<path d="M20044.3 1165C19978.5 1128.5 19966.2 1124.86 19917 1057" stroke="black" stroke-linecap="round"/>
<path d="M19917 1057C19974 1089.5 20026.5 1101 20111 1119.08" stroke="black" stroke-linecap="round"/>
<path d="M20023 1553C20102.3 1523.67 20304.2 1482.6 20477 1553" stroke="black" stroke-linecap="round"/>
<path d="M20023 1553C19869 1849 20613.5 1941 20477 1553" stroke="black" stroke-linecap="round"/>
<path d="M19998.4 1221C19923.3 1218.66 19563 1111 19541 1201C19519 1291 19709 1475.61 19962.5 1373" stroke="black" stroke-linecap="round"/>
<path d="M20110.5 2361.5C20219.2 2329.5 20769 2155 20491.5 1475.61" stroke="black" stroke-linecap="round"/>
<path d="M20077 2913C20067 3033 20217 3097 20183.9 2913" stroke="black" stroke-linecap="round"/>
<path d="M20077 2913H20183.9" stroke="black" stroke-linecap="round"/>
<path d="M20165 2344.09C20179.1 2731.06 20183.9 2747 20183.9 2913" stroke="black" stroke-linecap="round"/>
<path d="M20023 2465C20050.1 2675.66 20061 2763 20077 2913" stroke="black" stroke-linecap="round"/>
<path d="M19878.5 2985C19878.5 3153 19998.4 3125 19998.4 2985" stroke="black" stroke-linecap="round"/>
<path d="M19878.5 2985H19998.4" stroke="black" stroke-linecap="round"/>
<path d="M19995.1 2303C20011 2678.33 20009.3 2849.83 19998.4 2985" stroke="black" stroke-linecap="round"/>
<path d="M19847 2281C19847 2609 19869 2829 19878.5 2985" stroke="black" stroke-linecap="round"/>
<path d="M18939 2255C19067 2304.33 19427.8 2395.4 19847 2365" stroke="black" stroke-linecap="round"/>
<path d="M18957.2 2911C18957.2 3037 19131 3055 19061 2911" stroke="black" stroke-linecap="round"/>
<path d="M18957.2 2911H19009.1H19061" stroke="black" stroke-linecap="round"/>
<path d="M19061 2493C19061 2655 19073.5 2836.26 19061 2911" stroke="black" stroke-linecap="round"/>
<path d="M18953 2609C18957.8 2690.94 18947.5 2842.23 18957.2 2911" stroke="black" stroke-linecap="round"/>
<path d="M18778.9 2967C18778.9 3111 18909 3087 18899 2967" stroke="black" stroke-linecap="round"/>
<path d="M18778.9 2967H18899" stroke="black" stroke-linecap="round"/>
<path d="M18899 2493C18899 2699 18899 2855 18899 2967" stroke="black" stroke-linecap="round"/>
<path d="M18769 2493C18778.9 2727 18778.9 2871 18778.9 2967" stroke="black" stroke-linecap="round"/>
<path d="M18769 2493C18760.2 2285.19 18616.9 2281 18541 2153" stroke="black" stroke-linecap="round"/>
<path d="M18541 2153C18439 1981 18440.6 1728 18676 1587" stroke="black" stroke-linecap="round"/>
<path d="M18676 1587C18549.5 1600.33 18295.4 1764.6 18225 2243" stroke="black" stroke-linecap="round"/>
<path d="M18206.8 2243.69C18248.8 2238.92 18294.1 2258.69 18267.8 2307.69C18244.8 2350.69 18240.8 2390.69 18234.8 2417.69" stroke="black" stroke-linecap="round"/>
<path d="M20157 1677C20155.7 1687.67 20143.7 1675.37 20151.2 1673.22C20162.6 1669.96 20153 1686.79 20153 1677C20153 1669.49 20163 1677.79 20159 1681C20150.1 1688.14 20146.5 1674.58 20151.2 1673.22C20157.9 1671.3 20160.3 1685.67 20149 1685C20142.5 1684.62 20143.1 1671.03 20150.8 1673.22C20155.1 1674.46 20161 1685 20153 1685C20145.9 1685 20142.7 1677 20153 1677" stroke="black" stroke-width="8" stroke-linecap="round"/>
<path d="M20337 1673C20344.3 1673.92 20340.1 1685.86 20337.9 1684.11C20332.6 1680 20332.8 1672.26 20341 1676.11C20354.8 1682.6 20333 1702.49 20333 1683C20333 1663.11 20358.7 1693 20339 1693C20329.7 1693 20334.8 1668.52 20345 1689" stroke="black" stroke-width="8" stroke-linecap="round"/>
<path d="M20221 1185C20234.3 1199.67 20257 1237.8 20241 1273" stroke="black" stroke-linecap="round"/>
<path d="M20165 1182.6C20171.7 1194.6 20185 1229 20185 1270.6" stroke="black" stroke-linecap="round"/>
<path d="M20113 1373C20113.6 1368.59 20121 1374.56 20121 1378C20121 1381.94 20114.8 1385.24 20111.4 1382.56C20101.1 1374.3 20117.6 1364.53 20120.9 1376.11C20124 1387.1 20101.7 1383.38 20108.6 1376.56C20109.8 1375.29 20119.2 1373.53 20118.7 1376.33C20118 1380.11 20111.7 1389.89 20107 1384C20099.3 1374.4 20115 1368.86 20115 1378C20115 1393.56 20098.5 1388.88 20103.4 1379C20108.8 1368.29 20121.7 1376.15 20118.9 1385.89C20115.7 1397.11 20103 1387.03 20103 1379" stroke="black" stroke-width="8" stroke-linecap="round"/>
<path d="M20351 1367C20351 1357.33 20365.4 1371.9 20352 1374.89C20342.4 1377.03 20340.5 1359.27 20345 1359C20361.6 1358.03 20348 1376.3 20343 1370C20337.5 1363.16 20345.2 1356.73 20350.6 1363.44C20357.8 1372.54 20329.8 1371.12 20340 1363C20344.9 1359.11 20353.6 1361.94 20355 1369C20355.7 1372.27 20348.9 1373.73 20347 1374.56C20340.6 1377.41 20333.7 1363 20349.9 1363C20362.1 1363 20350.9 1380.77 20347 1373" stroke="black" stroke-width="8" stroke-linecap="round"/>
<path d="M3241 2297.34C2441 1973.34 2965 1121.34 3489 1061.34" stroke="black" stroke-linecap="round"/>
<path d="M5547 854.839C5464.49 939.506 5194.6 1157.81 4881 1157.81" stroke="black" stroke-linecap="round"/>
<path d="M12139 2519C12063 2519 12059 2621 12139 2621C12219 2621 12215 2519 12139 2519Z" stroke="black" stroke-linecap="round"/>
<path d="M18569 2937C18493.1 2962.79 18465 3006 18465 3025" stroke="black" stroke-linecap="round"/>
<path d="M18206.8 2243.69C18177.5 2247.03 18142 2286.49 18234.8 2417.69" stroke="black" stroke-linecap="round"/>
<path d="M20267 1186.2C20273.7 1194.2 20287 1223 20287 1274.2" stroke="black" stroke-linecap="round"/>
<path d="M20451.1 1201C20568.8 1189.39 20781 1069 20889 1069C20997 1069 20799 1433 20491.5 1321" stroke="black" stroke-linecap="round"/>
<path d="M19101 2428C19116 2470 19189 2545.5 19116 2415" stroke="black" stroke-linecap="round"/>
<path d="M11233 3073C11210 3091 11193.1 3101 11171.5 3123C11149.9 3145 11143.1 3156.74 11131 3185" stroke="black" stroke-linecap="round"/>
</svg>
