<svg width="20446" height="1967" viewBox="0 0 20446 1967" fill="none" xmlns="http://www.w3.org/2000/svg">
<path d="M18269 1610C18368.1 1546.83 18428.1 1519.13 18565 1522" stroke="black" stroke-linecap="round"/>
<path d="M18357 1522C18304 1548 18275 1582 18269 1610" stroke="black" stroke-linecap="round"/>
<path d="M18037 1610C18149.5 1554.05 18219.1 1533.96 18357 1522" stroke="black" stroke-linecap="round"/>
<path d="M18109 1522C18062 1542 18037 1577 18037 1610" stroke="black" stroke-linecap="round"/>
<path d="M17765 1577C17863 1530 18011 1505 18109 1522" stroke="black" stroke-linecap="round"/>
<path d="M17981 1370C17876 1429 17810 1485 17765 1577" stroke="black" stroke-linecap="round"/>
<path d="M17473 1499C17570 1404 17820 1343 17981 1370" stroke="black" stroke-linecap="round"/>
<path d="M17701 1098C17569 1179 17410.2 1376.54 17473 1499" stroke="black" stroke-linecap="round"/>
<path d="M17301 1522C17352 1348 17538 1153 17701 1098" stroke="black" stroke-linecap="round"/>
<path d="M17029 1178C17136.1 1273.55 17196 1332.56 17301 1522" stroke="black" stroke-linecap="round"/>
<path d="M17125 1610C17143.7 1435.66 17110.3 1342.32 17029 1178" stroke="black" stroke-linecap="round"/>
<path d="M16877 1442C16991.8 1472.63 17045.9 1509.85 17125 1610" stroke="black" stroke-linecap="round"/>
<path d="M16943 1658C16962.1 1567.55 16934.8 1522.01 16877 1442" stroke="black" stroke-linecap="round"/>
<path d="M15653 1658H16825" stroke="black" stroke-linecap="round"/>
<path d="M15693 1522C15553 1522 15438 1658 15653 1658" stroke="black" stroke-linecap="round"/>
<path d="M15461 1570C15555.3 1521.35 15605.9 1512.94 15693 1522" stroke="black" stroke-linecap="round"/>
<path d="M15461 1370C15454 1452.75 15450.9 1498.64 15461 1570" stroke="black" stroke-linecap="round"/>
<path d="M15325 1658C15394.3 1556.82 15420.4 1491.2 15461 1370" stroke="black" stroke-linecap="round"/>
<path d="M15109 1442C15201 1497.41 15246.7 1550.61 15325 1658" stroke="black" stroke-linecap="round"/>
<path d="M15157 1610C15156.8 1538.63 15141.4 1503.37 15109 1442" stroke="black" stroke-linecap="round"/>
<path d="M14853 1370C14950.2 1394.7 15013 1435.06 15157 1610" stroke="black" stroke-linecap="round"/>
<path d="M14949 1730C14999 1610 14935 1473 14853 1370" stroke="black" stroke-linecap="round"/>
<path d="M14685 1610.43C14773.5 1605.4 14835 1644.8 14949 1730.43" stroke="black" stroke-linecap="round"/>
<path d="M14733 1730C14726.7 1683.31 14717.2 1657.06 14685 1610" stroke="black" stroke-linecap="round"/>
<path d="M14413 1610C14532.2 1600.4 14603.2 1636.02 14733 1730" stroke="black" stroke-linecap="round"/>
<path d="M14461 1730C14481 1694 14461 1644 14413 1610" stroke="black" stroke-linecap="round"/>
<path d="M14005 1730H14461" stroke="black" stroke-linecap="round"/>
<path d="M14083 1416C13948 1533.23 13859 1730 14005 1730" stroke="black" stroke-linecap="round"/>
<path d="M13813 1570C13908 1464.45 13971 1428 14083 1416" stroke="black" stroke-linecap="round"/>
<path d="M13721 1312C13791 1370 13829 1460 13813 1570" stroke="black" stroke-linecap="round"/>
<path d="M13661 1570C13763.7 1519.63 13745 1388 13721 1312" stroke="black" stroke-linecap="round"/>
<path d="M13661 1460V1515V1570" stroke="black" stroke-linecap="round"/>
<path d="M13589 1522L13622 1493L13661 1460" stroke="black" stroke-linecap="round"/>
<path d="M13365 1370C13453 1370 13559 1442 13589 1522" stroke="black" stroke-linecap="round"/>
<path d="M13493 1730C13527 1658 13477 1506 13365 1370" stroke="black" stroke-linecap="round"/>
<path d="M13109 1570C13253.7 1594.28 13338.4 1633.91 13493 1730" stroke="black" stroke-linecap="round"/>
<path d="M13173 1658C13172.2 1643.23 13153.5 1624.58 13109 1570" stroke="black" stroke-linecap="round"/>
<path d="M12821 1610C12956.4 1611.76 13033.4 1621.44 13173 1658" stroke="black" stroke-linecap="round"/>
<path d="M13021 1730C13001.4 1700.14 12955.2 1673.37 12821 1610" stroke="black" stroke-linecap="round"/>
<path d="M12549 1730H13021" stroke="black" stroke-linecap="round"/>
<path d="M12055 1004C11988 986 11933 1034 11977 1104C11901 1104 11902 1211 11977 1226C11929 1283 11993 1313.31 12041 1272C12041 1318 12096 1341 12135 1296C12135 1350 12243 1313.31 12211 1272C12259 1313.31 12331 1247 12277 1206C12354 1206 12363 1118 12293 1118C12364 1087 12319 1017 12259 1034C12277 977 12223 939 12173 986C12135 939 12055 946 12055 1004Z" stroke="black" stroke-linecap="round" stroke-linejoin="round"/>
<path d="M12117 1770C12098.3 1690 12069.2 1486.11 12114 1313.31" stroke="black" stroke-linecap="round"/>
<path d="M11571 1668C11535.6 1705.1 11517.8 1726.67 11499 1770" stroke="black" stroke-linecap="round"/>
<path d="M11315 1770C11428.4 1709.09 11485.5 1685.06 11571 1668" stroke="black" stroke-linecap="round"/>
<path d="M11403 1668C11357 1709.13 11336.7 1731.58 11315 1770" stroke="black" stroke-linecap="round"/>
<path d="M11127 1770C11249.9 1711.4 11307.8 1692.14 11403 1668" stroke="black" stroke-linecap="round"/>
<path d="M10989 1770C11106.7 1700.62 11159.6 1675.78 11229 1658" stroke="black" stroke-linecap="round"/>
<path d="M11067 1658C11024.1 1699.7 11007.9 1724.36 10989 1770" stroke="black" stroke-linecap="round"/>
<path d="M10853 1730C10987.9 1674.37 11039.6 1655.99 11067 1658" stroke="black" stroke-linecap="round"/>
<path d="M10951 1630C10895.5 1660.49 10876.3 1683.54 10853 1730" stroke="black" stroke-linecap="round"/>
<path d="M10789 1658C10853.5 1633.26 10889.2 1625.33 10951 1630" stroke="black" stroke-linecap="round"/>
<path d="M11003 1300C10853 1368 10689 1590 10789 1658" stroke="black" stroke-linecap="round"/>
<path d="M10429 1610C10575 1430 10767 1326 11003 1300" stroke="black" stroke-linecap="round"/>
<path d="M10597 1202C10470.8 1346.19 10434.9 1435.72 10429 1610" stroke="black" stroke-linecap="round"/>
<path d="M10133 1610C10205 1398 10353 1258 10597 1202" stroke="black" stroke-linecap="round"/>
<path d="M9789 1242C9983.35 1354.22 10062.5 1432.79 10133 1610" stroke="black" stroke-linecap="round"/>
<path d="M9917 1770C9949 1610 9897 1424 9789 1242" stroke="black" stroke-linecap="round"/>
<path d="M9669 1442C9794.49 1489.69 9851.34 1554.35 9917 1770" stroke="black" stroke-linecap="round"/>
<path d="M9725 1770C9767 1690 9740.07 1536 9669 1442" stroke="black" stroke-linecap="round"/>
<path d="M9501 1570C9593 1586 9669 1648 9725 1770" stroke="black" stroke-linecap="round"/>
<path d="M9565 1770C9585 1716 9565 1648 9501 1570" stroke="black" stroke-linecap="round"/>
<path d="M8821 1770H9565" stroke="black" stroke-linecap="round"/>
<path d="M8821 1610C8853 1652 8849 1732 8821 1770" stroke="black" stroke-linecap="round"/>
<path d="M8685 1770C8758.35 1721.73 8787.37 1684.59 8821 1610" stroke="black" stroke-linecap="round"/>
<path d="M8685 1522C8733 1582 8743 1694 8685 1770" stroke="black" stroke-linecap="round"/>
<path d="M8525 1770C8618.37 1698.68 8647.11 1639.17 8685 1522" stroke="black" stroke-linecap="round"/>
<path d="M8293 1522L8525 1770" stroke="black" stroke-linecap="round"/>
<path d="M8293 1770C8353 1708 8337 1610 8293 1522" stroke="black" stroke-linecap="round"/>
<path d="M7669 1770H8293" stroke="black" stroke-linecap="round"/>
<path d="M7733 1522C7694.02 1618.44 7677.52 1672.67 7669 1770" stroke="black" stroke-linecap="round"/>
<path d="M7533 1610L7733 1522" stroke="black" stroke-linecap="round"/>
<path d="M7533 1442V1610" stroke="black" stroke-linecap="round"/>
<path d="M7213 1770C7323.09 1597.43 7393.45 1526.5 7533 1442" stroke="black" stroke-linecap="round"/>
<path d="M7013 1370C7133.43 1506.32 7181.52 1591.88 7213 1770" stroke="black" stroke-linecap="round"/>
<path d="M7069 1818C7075.48 1672.22 7065.64 1576.62 7013 1370" stroke="black" stroke-linecap="round"/>
<path d="M6717 1202C6883.47 1396.55 6964.6 1524.97 7069 1818" stroke="black" stroke-linecap="round"/>
<path d="M6837 1818C6832.6 1624.45 6801.9 1484.67 6717 1202" stroke="black" stroke-linecap="round"/>
<path d="M6477 1482C6618.64 1567.09 6697.35 1645.65 6837 1818" stroke="black" stroke-linecap="round"/>
<path d="M6597 1818C6585.68 1702.74 6556.61 1627.92 6477 1482" stroke="black" stroke-linecap="round"/>
<path d="M6317 1570C6434.26 1626.04 6494.99 1683.32 6597 1818" stroke="black" stroke-linecap="round"/>
<path d="M6437 1818C6423.04 1737.63 6392.79 1681.34 6317 1570" stroke="black" stroke-linecap="round"/>
<path d="M6037 1610C6209.66 1626.01 6296.53 1674.38 6437 1818" stroke="black" stroke-linecap="round"/>
<path d="M6229 1882C6154.02 1775.78 6111.98 1716.22 6037 1610" stroke="black" stroke-linecap="round"/>
<path d="M2734 1761C2847.24 1677.98 2904.93 1621.28 2990 1489V1625V1761" stroke="black" stroke-linecap="round"/>
<path d="M1097 1729C1066.2 1531.78 1027.93 1390.28 921 1081C1152.06 1259.54 1293 1425 1401 1657" stroke="black" stroke-linecap="round"/>
<path d="M137 1729C130.986 1500.18 92.3671 1360.76 1 1105C308.408 1249.48 457 1441 529 1729" stroke="black" stroke-linecap="round"/>
<path d="M1550.52 1222.11C1600.52 1317.11 1742.52 1259.11 1684.52 1154.11C1771.52 1243.11 1867.52 1122.11 1730.52 1080.11C1849.52 1112.11 1900.52 964.115 1742.52 964.115C1812.52 951.115 1817.52 836.115 1718.52 890.115C1833.52 836.115 1752.52 750.115 1684.52 788.115C1713.52 744.115 1660.52 693.115 1600.52 744.115C1593.52 657.114 1492.52 671.114 1502.52 744.115C1458.52 658.114 1335.52 716.114 1412.52 810.115C1349.52 744.115 1254.52 858.114 1372.52 880.115C1258.52 852.114 1286.52 964.115 1354.52 964.115C1260.52 952.114 1297.52 1041.11 1354.52 1022.11C1219.52 1051.11 1277.52 1164.11 1372.52 1112.11C1286.52 1159.19 1354.52 1276.11 1434.52 1202.11C1372.52 1294.11 1536.52 1327.11 1550.52 1222.11Z" stroke="black" stroke-linecap="round" stroke-linejoin="round"/>
<path d="M1536.52 916.115C1446.52 916.115 1426.52 1070.11 1536.52 1080.11C1646.52 1090.11 1658.52 916.115 1536.52 916.115Z" stroke="black" stroke-linecap="round"/>
<path d="M1492.52 1882.11C1552.52 1762.11 1590.52 1340.11 1550.52 1222.11" stroke="black" stroke-linecap="round"/>
<path d="M4733 636.312C4538.99 654.896 4215.67 610.459 3990 636.312" stroke="black" stroke-linecap="round"/>
<path d="M4733 636C4862.03 610.518 4996.65 612.526 5047 537" stroke="black" stroke-linecap="round"/>
<path d="M5047 537C5108.73 444 5160.17 411.967 5187.13 390.267C5208.83 377.867 5258.57 355.133 5289 351" stroke="black" stroke-linecap="round"/>
<path d="M5303 390C5299.55 367.041 5291.82 374.952 5289 351" stroke="black" stroke-linecap="round"/>
<path d="M5480 361C5437.29 131.734 5604 -114.694 5604 361" stroke="black" stroke-linecap="round"/>
<path d="M5480 361C5410.47 -14.6044 5289.5 55.5634 5289.5 276.386C5290.78 290.383 5287.9 336.534 5289.5 350.681" stroke="black" stroke-linecap="round"/>
<path d="M5610 372C5651.4 368.566 5734.2 343.564 5817 304" stroke="black" stroke-linecap="round"/>
<path d="M5633 378C5707.92 371.077 5834.67 345.6 5899 324" stroke="black" stroke-linecap="round"/>
<path d="M5881 469C5781.78 415.178 5674.28 355.838 5604 361.358" stroke="black" stroke-linecap="round"/>
<path d="M5831 745.243C6033.54 848.319 6128.61 469 5880.6 469" stroke="black" stroke-linecap="round"/>
<path d="M5830.99 745C5784.31 573.633 5851.83 521.179 5881 469" stroke="black" stroke-linecap="round"/>
<path d="M5302.55 390C5314.03 470.743 5281.93 545.304 5272 596" stroke="black" stroke-linecap="round"/>
<path d="M5604 732.959C5717.5 702.853 5727.82 709.878 5831 745" stroke="black" stroke-linecap="round"/>
<path d="M5604 733.184C5490.65 764.129 5226.84 823.952 5272.19 596" stroke="black" stroke-linecap="round"/>
<path d="M5109 1274C5190.13 1249.22 5480.25 1121.2 5604 733" stroke="black" stroke-linecap="round"/>
<path d="M4944 1273.63C4633.43 1343.12 4294.23 1302.58 4163.45 1273.63C4141.77 1268.83 4065.37 1257.08 3990 1192" stroke="black" stroke-linecap="round"/>
<path d="M5156 1761H5222.5H5289" stroke="black" stroke-linecap="round"/>
<path d="M5247 1208C5282.83 1483.52 5289.25 1657.78 5288.99 1761" stroke="black" stroke-linecap="round"/>
<path d="M5109 1274C5126.71 1399.2 5156 1657.82 5156 1761" stroke="black" stroke-linecap="round"/>
<path d="M5156 1761C5156 1979.39 5339.32 1901.1 5289.38 1761" stroke="black" stroke-linecap="round"/>
<path d="M4964 1794C4964 1953.42 5156.94 2001.04 5120.39 1794" stroke="black" stroke-linecap="round"/>
<path d="M4964 1794H5120" stroke="black" stroke-linecap="round"/>
<path d="M5109 1274C5109 1456.62 5125.24 1711.46 5119.93 1794" stroke="black" stroke-linecap="round"/>
<path d="M4944 1274C4950.35 1403.24 4964 1690.83 4964 1794" stroke="black" stroke-linecap="round"/>
<path d="M3850 1816H3920H3990" stroke="black" stroke-linecap="round"/>
<path d="M4029 1762L4088.78 1761L4163 1762" stroke="black" stroke-linecap="round"/>
<path d="M4029 1762C4029 1983.7 4220.94 1921.83 4163.15 1762" stroke="black" stroke-linecap="round"/>
<path d="M4002 1274C4008.15 1403.35 4014.02 1660.78 4029 1762" stroke="black" stroke-linecap="round"/>
<path d="M4163 1274C4147.25 1450.07 4163 1675.34 4163 1762" stroke="black" stroke-linecap="round"/>
<path d="M3850.17 1816C3831.44 1984.54 4044.61 2045.17 3990.03 1816" stroke="black" stroke-linecap="round"/>
<path d="M4002 1274C3978.38 1446.64 3989.72 1729.28 3989.72 1816" stroke="black" stroke-linecap="round"/>
<path d="M3862 1274C3848.64 1419.06 3845.21 1719.94 3850.15 1816" stroke="black" stroke-linecap="round"/>
<path d="M3833 787C3721.48 817.277 3327.46 1261.8 3362.16 1493" stroke="black" stroke-linecap="round"/>
<path d="M3833 776C3692.74 822.054 3302.91 1244.01 3315.29 1493" stroke="black" stroke-linecap="round"/>
<path d="M3833 762C3709.94 773.013 3298.4 1193.99 3272 1493" stroke="black" stroke-linecap="round"/>
<path d="M3833 754C3675.07 783.587 3268.38 1147.24 3224 1493" stroke="black" stroke-linecap="round"/>
<path d="M3833 745C3710.23 775.994 3200.6 1064.24 3181 1493" stroke="black" stroke-linecap="round"/>
<path d="M5077 495C5025.31 527.672 4855.29 630.762 4725 658" stroke="black" stroke-linecap="round"/>
<path d="M5108 459C5077.08 478.987 4915.06 570.377 4743 620" stroke="black" stroke-linecap="round"/>
<path d="M5130 438C5070.88 462.094 4850.52 559.522 4758 581" stroke="black" stroke-linecap="round"/>
<path d="M5177 398C5150.86 417.957 4948.28 521.971 4770 545" stroke="black" stroke-linecap="round"/>
<path d="M5961.96 603.843C5961.96 601.936 5963.11 601.458 5963.93 603.626C5964.57 605.314 5961.63 605.072 5962.21 603.843C5964.64 598.642 5968.35 605.794 5964.73 605.794C5961.25 605.794 5963.67 601.023 5965.84 601.023C5969.06 601.023 5966.47 608.361 5963.31 605.577C5961.15 603.67 5967.5 599.405 5967.5 604.818C5967.5 607.796 5962.63 608.978 5962.02 605.74C5961.16 601.17 5968.38 599.085 5968.6 602.867C5968.95 608.632 5961.96 606.935 5961.96 601.511C5961.96 598.284 5968.6 597.756 5968.6 602.379C5968.6 606.629 5959.99 606.359 5961.1 603.843C5963.49 598.432 5971.27 601.762 5968.36 607.746C5966.14 612.303 5963.12 602.975 5966.94 602.975C5968.9 602.975 5968.34 609.462 5963.62 605.306C5959.22 601.424 5967.5 600.746 5967.5 603.843C5967.5 605.88 5964.82 603.611 5964.42 602.867C5963.43 601.007 5966.98 603.207 5964.67 603.788C5963.82 604.001 5964.17 600.739 5964.17 601.511C5964.17 603.197 5966.24 602.735 5965.28 601.891" stroke="black" stroke-width="8" stroke-linecap="round"/>
<path d="M5605.55 474.876C5604.18 474.501 5605.76 472.333 5606.61 473.351C5607.86 474.859 5608.99 475.75 5608.66 477.926C5608.12 481.576 5603.43 479.388 5604.72 476.91C5607.12 472.298 5608.52 479.847 5606.02 479.847C5602.85 479.847 5601.95 473.002 5606.61 474.085C5611.96 475.333 5609.79 481.538 5605.02 481.937C5597.01 482.606 5593.39 468.82 5602.14 472.052C5606.98 473.839 5604.91 481.177 5600.31 479.339C5592.49 476.207 5593.32 466.072 5603.37 468.323C5625.32 473.243 5583.8 486.042 5595.08 473.407C5597.74 470.421 5608.72 469.009 5608.72 475.102C5608.72 480.054 5602.49 479.863 5602.49 474.819C5602.49 470.545 5606.55 464.739 5609.55 470.809C5612.58 476.96 5599.56 480.402 5595.67 479.903C5594.02 479.692 5592.47 477.064 5592.02 475.667C5590.44 470.785 5593.96 470.555 5598.02 470.018C5603.96 469.231 5605.32 475.064 5602.14 478.943C5597.69 484.366 5594.02 478.884 5597.19 474.311C5600.5 469.553 5607.97 468.432 5607.66 475.667C5607.54 478.72 5599.61 476.159 5599.25 473.746C5598.68 469.899 5605.62 466.134 5607.43 469.792C5610.86 476.756 5602.11 482.374 5596.08 482.954C5590.63 483.477 5589.05 478.156 5593.9 475.893C5597.52 474.205 5602.78 478.416 5599.72 481.937C5597.35 484.667 5595.52 477.729 5596.19 475.78C5598.64 468.722 5604.62 470.456 5607.66 475.102C5610.79 479.872 5602.59 486.76 5599.78 482.841C5597.46 479.597 5596.11 469.792 5602.37 469.792C5607.33 469.792 5602.73 478.957 5600.78 480.412C5595.87 484.084 5594.87 475.48 5594.96 473.068C5595.1 469.07 5601.36 467.159 5603.9 470.3C5609.38 477.068 5587.95 481.925 5594.96 471.826" stroke="black" stroke-width="8" stroke-linecap="round"/>
<path d="M18899 1144C18919.5 1199.92 18955.9 1237.76 18919.5 1144" stroke="black" stroke-linecap="round"/>
<path d="M18844.7 1144C18837.3 1194.28 18856.2 1242.05 18862 1144" stroke="black" stroke-linecap="round"/>
<path d="M18815.8 1134C18802.4 1186.83 18808.7 1229.99 18835 1144.62" stroke="black" stroke-linecap="round"/>
<path d="M18719 1054C18715.6 1208.57 19011 1245.14 19011 1054" stroke="black" stroke-linecap="round"/>
<path d="M19702.7 413C19670.7 358.746 19655.3 308.606 19652.5 263.66C19649.4 215.112 19661.1 172.622 19682.3 137.55C19692.8 120.191 19705.7 104.649 19720.3 91.0889C19736.8 75.7865 19755.5 63.0081 19775.6 52.9905C19840.5 20.5853 19919.5 17.0696 19982.8 50.4606C20001.9 60.556 20013.8 66.5579 20029.2 83.6219C20037.3 92.5771 20050.7 109.989 20057.4 120.957C20073 146.329 20084.7 183.808 20090.9 220.517C20100 274.019 20097.5 333.346 20078.9 413" stroke="black" stroke-linecap="round"/>
<path d="M19653 412.415C19094.3 415.105 18734.5 396.72 18663.1 412.415C18637 418.163 18609.6 426.648 18586 441" stroke="black" stroke-linecap="round"/>
<path d="M19983 50C20057 37.9385 20063.9 30.8828 20121 1" stroke="black" stroke-linecap="round"/>
<path d="M20121 1C20090.2 40.8232 20092.7 39.5657 20029 84" stroke="black" stroke-linecap="round"/>
<path d="M19720 91C19665.7 60.5833 19655.6 57.5495 19615 1" stroke="black" stroke-linecap="round"/>
<path d="M19615 1C19662.3 28.223 19705.9 37.8558 19776 53" stroke="black" stroke-linecap="round"/>
<path d="M19703 413C19768.7 388.852 19935.9 355.045 20079 413" stroke="black" stroke-linecap="round"/>
<path d="M19702.4 413C19575 657.704 20191 733.761 20078.1 413" stroke="black" stroke-linecap="round"/>
<path d="M19682 137.971C19619.6 136.041 19320.7 47.3879 19302.4 121.502C19284.2 195.615 19441.8 347.642 19652.1 263.141" stroke="black" stroke-linecap="round"/>
<path d="M19776 1083C19865.9 1056.45 20320.5 911.672 20091 348" stroke="black" stroke-linecap="round"/>
<path d="M19747.4 1540C19739.1 1638.93 19863.5 1691.69 19836 1540" stroke="black" stroke-linecap="round"/>
<path d="M19748 1540H19836" stroke="black" stroke-linecap="round"/>
<path d="M19820 1068C19831.9 1389.05 19836 1402.28 19836 1540" stroke="black" stroke-linecap="round"/>
<path d="M19711 1152C19733.8 1326.65 19734.5 1415.64 19748 1540" stroke="black" stroke-linecap="round"/>
<path d="M19582 1599C19582 1738.35 19682 1715.12 19682 1599" stroke="black" stroke-linecap="round"/>
<path d="M19582 1599H19682" stroke="black" stroke-linecap="round"/>
<path d="M19680 1035C19693.6 1345.39 19692.1 1487.22 19682.8 1599" stroke="black" stroke-linecap="round"/>
<path d="M19557 1016C19557 1287.62 19574.4 1469.81 19582 1599" stroke="black" stroke-linecap="round"/>
<path d="M18804 994C18910.1 1034.8 19209.4 1110.12 19557 1084.98" stroke="black" stroke-linecap="round"/>
<path d="M18839 1603C18839 1731.04 19016.5 1749.33 18945 1603" stroke="black" stroke-linecap="round"/>
<path d="M18836 1595H18882.6H18949" stroke="black" stroke-linecap="round"/>
<path d="M18945 1174C18945 1298.35 18958.5 1526.29 18945 1603" stroke="black" stroke-linecap="round"/>
<path d="M18835.1 1292C18839.6 1376.39 18830.1 1532.18 18839 1603" stroke="black" stroke-linecap="round"/>
<path d="M18673 1646C18673 1785.35 18799.2 1762.12 18789.5 1646" stroke="black" stroke-linecap="round"/>
<path d="M18673 1646H18789" stroke="black" stroke-linecap="round"/>
<path d="M18789 1185C18789 1385.35 18789 1537.07 18789 1646" stroke="black" stroke-linecap="round"/>
<path d="M18663 1185C18673 1412.58 18673 1552.63 18673 1646" stroke="black" stroke-linecap="round"/>
<path d="M18663 1192C18655.7 1019.64 18536.9 1016.16 18474 910" stroke="black" stroke-linecap="round"/>
<path d="M18474.3 910C18389.8 767.477 18391.2 557.836 18586 441" stroke="black" stroke-linecap="round"/>
<path d="M18586 441C18481.1 452.037 18270.4 588.007 18212 984" stroke="black" stroke-linecap="round"/>
<path d="M18198 984.574C18232.8 980.613 18270.3 997.025 18248.6 1037.7C18229.5 1073.39 18226.2 1106.59 18221.2 1129" stroke="black" stroke-linecap="round"/>
<path d="M19813.5 515.438C19812.4 524.162 19802.3 514.104 19808.6 512.348C19818.3 509.683 19810.1 523.449 19810.1 515.438C19810.1 509.295 19818.6 516.085 19815.2 518.71C19807.7 524.548 19804.6 513.457 19808.6 512.348C19814.3 510.778 19816.3 522.527 19806.8 521.982C19801.3 521.671 19801.8 510.559 19808.3 512.348C19811.9 513.363 19816.9 521.982 19810.1 521.982C19804.1 521.982 19801.4 515.438 19810.1 515.438" stroke="black" stroke-width="8" stroke-linecap="round"/>
<path d="M19963.3 512C19969.3 512.779 19965.8 522.931 19964 521.444C19959.7 517.952 19959.9 511.373 19966.6 514.644C19977.9 520.164 19960 537.069 19960 520.5C19960 503.59 19981 529 19964.9 529C19957.3 529 19961.4 508.19 19969.8 525.6" stroke="black" stroke-width="8" stroke-linecap="round"/>
<path d="M19867 107C19878 119.333 19896.6 151.4 19883.5 181" stroke="black" stroke-linecap="round"/>
<path d="M19820 105C19825.7 115.091 19837 144.018 19837 179" stroke="black" stroke-linecap="round"/>
<path d="M19777.4 262.863C19777.9 259.133 19783.8 264.187 19783.8 267.096C19783.8 270.434 19778.9 273.221 19776.2 270.952C19767.9 263.964 19781.1 255.692 19783.8 265.497C19786.3 274.794 19768.4 271.649 19773.8 265.873C19774.9 264.802 19782.4 263.314 19782 265.685C19781.4 268.885 19776.4 277.16 19772.6 272.174C19766.4 264.052 19779 259.36 19779 267.096C19779 280.262 19765.8 276.307 19769.7 267.942C19774 258.873 19784.4 265.532 19782.1 273.773C19779.6 283.273 19769.4 274.736 19769.4 267.942" stroke="black" stroke-width="8" stroke-linecap="round"/>
<path d="M19974.3 257.987C19974.3 249.578 19986.6 262.249 19975.1 264.844C19966.9 266.707 19965.3 251.264 19969.2 251.033C19983.3 250.186 19971.8 266.068 19967.5 260.594C19962.8 254.649 19969.3 249.062 19973.9 254.896C19980.1 262.799 19956.3 261.568 19964.9 254.51C19969 251.132 19976.5 253.592 19977.7 259.725C19978.2 262.568 19972.5 263.838 19970.9 264.554C19965.4 267.039 19959.5 254.51 19973.3 254.51C19983.7 254.51 19974.2 269.96 19970.9 263.202" stroke="black" stroke-width="8" stroke-linecap="round"/>
<path d="M3862.11 1274C3449.55 1106.76 3719.77 666.971 3990 636" stroke="black" stroke-linecap="round"/>
<path d="M5052 529C5009.38 572.874 4869.98 686 4708 686" stroke="black" stroke-linecap="round"/>
<path d="M12135 1104C12059 1104 12055 1206 12135 1206C12215 1206 12211 1104 12135 1104Z" stroke="black" stroke-linecap="round"/>
<path d="M18565 1522C18489.1 1547.79 18461 1591 18461 1610" stroke="black" stroke-linecap="round"/>
<path d="M18197.1 985C18173.1 987.759 18144 1020.42 18220 1129" stroke="black" stroke-linecap="round"/>
<path d="M19905 108C19910.7 114.727 19922 138.945 19922 182" stroke="black" stroke-linecap="round"/>
<path d="M20058 120.596C20155.4 110.959 20331 11 20420.4 11C20509.7 11 20345.9 313.219 20091.4 220.228" stroke="black" stroke-linecap="round"/>
<path d="M18939 1137.66C18951.5 1172.11 19012.2 1234.03 18951.5 1127" stroke="black" stroke-linecap="round"/>
<path d="M11229 1658C11206 1676 11189.1 1686 11167.5 1708C11145.9 1730 11139.1 1741.74 11127 1770" stroke="black" stroke-linecap="round"/>
</svg>
