<svg width="14" height="18" viewBox="0 0 14 18" fill="none" xmlns="http://www.w3.org/2000/svg">
<mask id="path-1-inside-1_1_6" fill="white">
<path d="M0.954545 9.27273V8.54545L13.4091 0.454544V1.31818L1.63636 8.95455L1.77273 8.72727V9.09091L1.63636 8.86364L13.4091 16.5V17.3636L0.954545 9.27273Z"/>
</mask>
<path d="M0.954545 9.27273H-0.0454545V9.81558L0.409772 10.1113L0.954545 9.27273ZM0.954545 8.54545L0.409772 7.70687L-0.0454545 8.0026V8.54545H0.954545ZM13.4091 0.454544H14.4091V-1.38758L12.8643 -0.384039L13.4091 0.454544ZM13.4091 1.31818L13.9533 2.15714L14.4091 1.86148V1.31818H13.4091ZM1.63636 8.95455L0.778871 8.44005L2.18056 9.79351L1.63636 8.95455ZM1.77273 8.72727H2.77273V5.11695L0.915234 8.21278L1.77273 8.72727ZM1.77273 9.09091L0.915234 9.6054L2.77273 12.7012V9.09091H1.77273ZM1.63636 8.86364L2.18056 8.02467L0.778871 9.37813L1.63636 8.86364ZM13.4091 16.5H14.4091V15.9567L13.9533 15.661L13.4091 16.5ZM13.4091 17.3636L12.8643 18.2022L14.4091 19.2058V17.3636H13.4091ZM1.95455 9.27273V8.54545H-0.0454545V9.27273H1.95455ZM1.49932 9.38404L13.9539 1.29313L12.8643 -0.384039L0.409772 7.70687L1.49932 9.38404ZM12.4091 0.454544V1.31818H14.4091V0.454544H12.4091ZM12.8649 0.479221L1.09217 8.11558L2.18056 9.79351L13.9533 2.15714L12.8649 0.479221ZM2.49386 9.46904L2.63022 9.24177L0.915234 8.21278L0.778871 8.44005L2.49386 9.46904ZM0.772727 8.72727V9.09091H2.77273V8.72727H0.772727ZM2.63022 8.57641L2.49386 8.34914L0.778871 9.37813L0.915234 9.6054L2.63022 8.57641ZM1.09217 9.7026L12.8649 17.339L13.9533 15.661L2.18056 8.02467L1.09217 9.7026ZM12.4091 16.5V17.3636H14.4091V16.5H12.4091ZM13.9539 16.5251L1.49932 8.43414L0.409772 10.1113L12.8643 18.2022L13.9539 16.5251Z" fill="black" mask="url(#path-1-inside-1_1_6)"/>
</svg>
