<svg width="175" height="471" viewBox="0 0 175 471" fill="none" xmlns="http://www.w3.org/2000/svg">
<path d="M101.5 328.5L94.9917 261.429L90.2534 156.536M86.6884 77.6168C133.876 80.7128 140.022 150.284 90.0278 151.541C65.7189 152.153 53.121 134.342 51.9942 115.721C50.8035 96.0465 62.4449 76.0262 86.6884 77.6168Z" stroke="black" stroke-width="3" stroke-linecap="round"/>
<path d="M101.304 329C88.8498 343.272 60.813 395.184 60.6679 468.649" stroke="black" stroke-width="3" stroke-linecap="round"/>
<path d="M95 189.5C128.667 182 190.4 134 168 2" stroke="black" stroke-width="3" stroke-linecap="round"/>
<path d="M95 189.5C58.6667 181 -10.4 132.4 3.99999 6" stroke="black" stroke-width="3" stroke-linecap="round"/>
<path d="M101.5 328.5C127.667 299.833 178.4 274.6 172 403" stroke="black" stroke-width="3" stroke-linecap="round"/>
</svg>
