<svg width="517" height="113" viewBox="0 0 517 113" fill="none" xmlns="http://www.w3.org/2000/svg">
<path d="M50 84H343" stroke="black" stroke-linecap="round"/>
<path d="M43.7796 84.2903C-16.2205 84.2903 -10.2204 -4.70971 43.7796 1.29029C97.7796 7.29029 103.78 84.2903 43.7796 84.2903Z" stroke="black"/>
<path d="M343 84C372.807 42.4957 447.136 -12.6103 506 87" stroke="black" stroke-linecap="round"/>
<path d="M343 83.7675C377.5 28.1008 464 -30 516 87" stroke="black" stroke-linecap="round"/>
<path d="M77 84C77 112 147 112 202 112" stroke="black" stroke-linecap="round"/>
<path d="M77 84C95.8889 80.0417 136.733 70.7 149 65" stroke="black" stroke-linecap="round"/>
<path d="M162.042 63.1341L151.486 68.2083L138 46.392L155.458 38L162.042 63.1341Z" stroke="black" stroke-linecap="round"/>
<path d="M145 43C130.5 39.3333 96.8 36.1 78 52.5" stroke="black" stroke-linecap="round"/>
<path d="M147 41.809C145.638 41.4176 144.131 41.0246 142.5 40.6471M78 52.5L77 51C78.3016 49.9587 79.6367 48.9927 81 48.0976M81 48.0976L81.5 49M81 48.0976C82.309 47.2381 83.6439 46.444 85 45.7114M85 45.7114L85.5 47M85 45.7114C86.7996 44.7393 88.6366 43.8754 90.5 43.1106M90.5 43.1106L91 44.5M90.5 43.1106C92.3118 42.3671 94.1485 41.7173 96 41.153M96 41.153L96.5 42.5M96 41.153C97.9871 40.5473 99.9913 40.0399 102 39.6207M102 39.6207L102.5 41.5M102 39.6207C104.167 39.1685 106.339 38.8187 108.5 38.5584M108.5 38.5584V40.5M108.5 38.5584C110.852 38.2751 113.192 38.0978 115.5 38.0098M115.5 38.0098V39.6207M115.5 38.0098C117.53 37.9324 119.534 37.924 121.5 37.9734M121.5 37.9734V39.6207M121.5 37.9734C123.373 38.0205 125.21 38.1199 127 38.2619M127 38.2619V40M127 38.2619C128.537 38.3838 130.04 38.5372 131.5 38.7157M131.5 38.7157V40.5M131.5 38.7157C133.23 38.9273 134.901 39.1742 136.5 39.4461M136.5 39.4461V41.153M136.5 39.4461C138.639 39.81 140.649 40.2186 142.5 40.6471M142.5 40.6471V41.809" stroke="black" stroke-linecap="round"/>
</svg>
