<svg width="305" height="76" viewBox="0 0 305 76" fill="none" xmlns="http://www.w3.org/2000/svg">
<path d="M59 50H190" stroke="black" stroke-linecap="round"/>
<path d="M38.5 50C2.73524 50 6.31175 -2.35905 38.5 1.17078C70.6883 4.7006 74.2647 50 38.5 50Z" stroke="black"/>
<path d="M190 50C240 50 229 50 304 50" stroke="black" stroke-linecap="round"/>
<path d="M190 50.125C233 5.625 253.5 10.625 291 45.125" stroke="black" stroke-linecap="round"/>
<path d="M59 50C68 78 79 71 134 71" stroke="black" stroke-linecap="round"/>
<path d="M59 50C77.8889 46.0417 118.733 36.7 131 31" stroke="black" stroke-linecap="round"/>
<path d="M144.042 29.1341L133.486 34.2083L120 12.392L137.458 4L144.042 29.1341Z" stroke="black" stroke-linecap="round"/>
<path d="M127 9C112.5 5.33333 78.8 2.1 60 18.5" stroke="black" stroke-linecap="round"/>
<path d="M129 7.809C127.638 7.4176 126.131 7.02463 124.5 6.64709M60 18.5L59 17C60.3016 15.9587 61.6367 14.9927 63 14.0976M63 14.0976L63.5 15M63 14.0976C64.309 13.2381 65.6439 12.444 67 11.7114M67 11.7114L67.5 13M67 11.7114C68.7996 10.7393 70.6366 9.87535 72.5 9.11063M72.5 9.11063L73 10.5M72.5 9.11063C74.3118 8.3671 76.1485 7.71732 78 7.15296M78 7.15296L78.5 8.5M78 7.15296C79.9871 6.54726 81.9913 6.03995 84 5.62069M84 5.62069L84.5 7.5M84 5.62069C86.1666 5.16847 88.3385 4.81869 90.5 4.55839M90.5 4.55839V6.5M90.5 4.55839C92.8524 4.2751 95.1925 4.0978 97.5 4.00979M97.5 4.00979V5.62069M97.5 4.00979C99.5298 3.93236 101.534 3.92403 103.5 3.97341M103.5 3.97341V5.62069M103.5 3.97341C105.373 4.02045 107.21 4.11989 109 4.26189M109 4.26189V6M109 4.26189C110.537 4.38385 112.04 4.5372 113.5 4.71572M113.5 4.71572V6.5M113.5 4.71572C115.23 4.9273 116.901 5.17423 118.5 5.44614M118.5 5.44614V7.15296M118.5 5.44614C120.639 5.81001 122.649 6.21861 124.5 6.64709M124.5 6.64709V7.809" stroke="black" stroke-linecap="round"/>
<path d="M1 75.5C7.88394 67.3377 12.1592 52.5729 18 46L40.5 53.5L50.5 63.5L54 75.5H1Z" stroke="black" stroke-linejoin="round"/>
</svg>
