<svg width="283" height="182" viewBox="0 0 283 182" fill="none" xmlns="http://www.w3.org/2000/svg">
<path d="M178 38C179.667 49.3333 178.4 78.2 160 103C148.667 111.333 123.6 131 114 143" stroke="black"/>
<path d="M160 103C167.333 108.333 179.8 125.8 171 153" stroke="black"/>
<path d="M113.953 143.303L117.452 147.31M1.52417 119.5C5.95307 101.397 59.4558 86.97 211.427 133.785C244.265 143.757 284.376 159.471 281.89 170" stroke="black" stroke-linecap="round"/>
<path d="M180.372 1C157.807 1.00001 156.243 34.7279 180.372 34.7279C204.5 34.7279 202.936 0.999988 180.372 1Z" stroke="black" stroke-linecap="round"/>
<path d="M1.52418 119.5C0.265885 124.643 2.96874 130.083 8.49999 134.5C43.8337 162.714 94.3901 170.58 203.429 180.875C259.159 181.843 280.213 177.101 281.89 170" stroke="black" stroke-linecap="round"/>
<path d="M1 119.485L282 170" stroke="black"/>
<path d="M171 153L175.5 154" stroke="black" stroke-linecap="round"/>
<path d="M178 55.5C165.167 56.3333 138.4 59.8 134 67" stroke="black" stroke-linecap="round"/>
<path d="M178 55.5C181.167 59.6667 191.6 69.3 208 74.5" stroke="black" stroke-linecap="round" stroke-linejoin="round"/>
<path d="M38.2326 153C34.5 157.224 32.5 158.5 28 163.794C23.5 169.088 40.9954 163.982 50 157.224" stroke="black" stroke-linecap="round" stroke-linejoin="round"/>
</svg>
