<svg width="283" height="185" viewBox="0 0 283 185" fill="none" xmlns="http://www.w3.org/2000/svg">
<path d="M178 41C179.667 52.3333 178.4 81.2 160 106M160 106C167.333 111.333 179.8 128.8 171 156M160 106C148.667 114.333 123.6 134 114 146" stroke="black"/>
<path d="M113.953 146.303L117.452 150.31M177.436 1.22786C154.872 1.22787 147.936 34.2279 180.372 37.7279C212.807 41.2279 200 1.22785 177.436 1.22786ZM8.49999 137.5C-16.5 117.538 16.2794 76.6696 211.427 136.785C266.412 153.483 341.791 186.279 203.429 183.875C94.3901 173.58 43.8337 165.714 8.49999 137.5Z" stroke="black" stroke-linecap="round"/>
<path d="M1 122.485L282 173" stroke="black"/>
<path d="M171 156L175.5 157" stroke="black" stroke-linecap="round"/>
<path d="M178 58.5C165.167 59.3333 138.4 62.8 134 70" stroke="black" stroke-linecap="round"/>
<path d="M178 58.5C181.167 62.6667 191.6 72.3 208 77.5" stroke="black" stroke-linecap="round" stroke-linejoin="round"/>
<path d="M38.2326 156C34.5 160.224 32.5 161.5 28 166.794C23.5 172.088 40.9954 166.982 50 160.224" stroke="black" stroke-linecap="round" stroke-linejoin="round"/>
</svg>
