<svg width="658" height="420" viewBox="0 0 658 420" fill="none" xmlns="http://www.w3.org/2000/svg">
<path d="M74.0997 340L65 334.063" stroke="black" stroke-linecap="round"/>
<path d="M607 94C668 107 670 203 618 233" stroke="black" stroke-linecap="round"/>
<path d="M618 233C739 259 548 403 453 361" stroke="black" stroke-linecap="round"/>
<path d="M453 361C436 438 323 443 323 350" stroke="black" stroke-linecap="round"/>
<path d="M323 350C275 476 40.5 399.5 74.0997 340" stroke="black" stroke-linecap="round"/>
<path d="M93.0001 150C-27.9445 20.29 -21.9656 269.11 65 334.063" stroke="black" stroke-linecap="round"/>
<path d="M93.0001 150C105 78 204 50 275 94" stroke="black" stroke-linecap="round"/>
<path d="M422 309C452.333 311 519.2 300.4 544 242" stroke="black"/>
<path d="M275 94C612.868 -35.7867 688.387 -23.159 607 94" stroke="black" stroke-linecap="round"/>
</svg>
