<svg width="409" height="280" viewBox="0 0 409 280" fill="none" xmlns="http://www.w3.org/2000/svg">
<path d="M87.0001 49C89 52 91.3483 54 93.5 55M141 34C141.512 35 142.6 37.2 143 40" stroke="black" stroke-linecap="round"/>
<path d="M105 213C-7.99997 241 -33 164 49.0001 130" stroke="black" stroke-linecap="round"/>
<path d="M49.0001 130C-2.99999 95.9999 8.00001 49 87.0001 49" stroke="black" stroke-linecap="round"/>
<path d="M87.0001 49C69.0088 8.868 120 -7.00004 141 34" stroke="black" stroke-linecap="round"/>
<path d="M141 34C194 -24 290 1.99998 345 54" stroke="black" stroke-linecap="round"/>
<path d="M345 54C382 34 430 77 377 95.9999" stroke="black" stroke-linecap="round"/>
<path d="M377 96C439 96 403 173 317 164" stroke="black" stroke-linecap="round"/>
<path d="M317 164C368 196 317 254 263 223" stroke="black" stroke-linecap="round"/>
<path d="M105 213C49.0001 297 190 302 263 223" stroke="black" stroke-linecap="round"/>
<path d="M137 133C124 152.667 112.6 188 171 172" stroke="black" stroke-linecap="round"/>
<path d="M245 57C257.333 52.6667 284 50.4 292 76" stroke="black"/>
</svg>
