<svg width="334" height="403" viewBox="0 0 334 403" fill="none" xmlns="http://www.w3.org/2000/svg">
<path d="M273.5 2.5C281 64.379 258.5 70.7085 287.5 70C298.375 70.487 315.511 70 332.5 70" stroke="black" stroke-linecap="round"/>
<path d="M64.3626 52C64.3626 58.3513 59.2138 63.5 52.8626 63.5C46.5113 63.5 41.3626 58.3513 41.3626 52C41.3626 45.6487 46.5113 40.5 52.8626 40.5C59.2138 40.5 64.3626 45.6487 64.3626 52Z" stroke="black"/>
<path d="M33 98.3643H72.5C72.5 52 33 52.5 33 98.3643Z" stroke="black"/>
<path d="M64.3626 332C64.3626 338.351 59.2138 343.5 52.8626 343.5C46.5113 343.5 41.3626 338.351 41.3626 332C41.3626 325.649 46.5113 320.5 52.8626 320.5C59.2138 320.5 64.3626 325.649 64.3626 332Z" stroke="black"/>
<path d="M33 378.364H72.5C72.5 332 33 332.5 33 378.364Z" stroke="black"/>
<path d="M64.3626 240C64.3626 246.351 59.2138 251.5 52.8626 251.5C46.5113 251.5 41.3626 246.351 41.3626 240C41.3626 233.649 46.5113 228.5 52.8626 228.5C59.2138 228.5 64.3626 233.649 64.3626 240Z" stroke="black"/>
<path d="M33 286.364H72.5C72.5 240 33 240.5 33 286.364Z" stroke="black"/>
<path d="M64.3626 147C64.3626 153.351 59.2138 158.5 52.8626 158.5C46.5113 158.5 41.3626 153.351 41.3626 147C41.3626 140.649 46.5113 135.5 52.8626 135.5C59.2138 135.5 64.3626 140.649 64.3626 147Z" stroke="black"/>
<path d="M33 193.364H72.5C72.5 147 33 147.5 33 193.364Z" stroke="black"/>
<path d="M82 81H110" stroke="black" stroke-linecap="round"/>
<path d="M82 361H110" stroke="black" stroke-linecap="round"/>
<path d="M82 269H110" stroke="black" stroke-linecap="round"/>
<path d="M82 176H110" stroke="black" stroke-linecap="round"/>
<path d="M139 64H249" stroke="black" stroke-linecap="round"/>
<path d="M167 193H277" stroke="black" stroke-linecap="round"/>
<path d="M167 159H277" stroke="black" stroke-linecap="round"/>
<path d="M167 176H277" stroke="black" stroke-linecap="round"/>
<path d="M139 98H249" stroke="black" stroke-linecap="round"/>
<path d="M139 81H249" stroke="black" stroke-linecap="round"/>
<path d="M167 252H277" stroke="black" stroke-linecap="round"/>
<path d="M167 269H277" stroke="black" stroke-linecap="round"/>
<path d="M167 286H277" stroke="black" stroke-linecap="round"/>
<path d="M167 344H277" stroke="black" stroke-linecap="round"/>
<path d="M167 361H277" stroke="black" stroke-linecap="round"/>
<path d="M167 378H277" stroke="black" stroke-linecap="round"/>
<path d="M267.385 0.916527L216.886 0.795929" stroke="black"/>
<path d="M1.38588 46.4168C1.38589 71.1674 1.38601 283.01 1.38606 367.417" stroke="black" stroke-linecap="round"/>
<path d="M1.38606 367.417C1.38608 395.5 10.5 401.917 45.386 401.917" stroke="black" stroke-linecap="round"/>
<path d="M45.386 401.917H302.386" stroke="black" stroke-linecap="round"/>
<path d="M333.385 362.917L333.33 72" stroke="black" stroke-linecap="round"/>
<path d="M302.386 401.917C333.385 401.917 333.385 391 333.385 362.917" stroke="black" stroke-linecap="round"/>
<path d="M267.385 0.916534C272.886 1.91671 277.386 1.91671 286.886 14.5457C290.71 18.6374 295.913 24.6136 303.209 33.4167C310.061 40.7945 318.456 50.359 329.423 63.4167C331.506 66.8066 333.33 69.5 333.33 72" stroke="black" stroke-linecap="round"/>
<path d="M267.385 0.916522C267.385 0.916522 246.9 0.865436 216.886 0.795924C198.299 0.752879 167.5 0.795931 137 0.795927C87 0.79592 53 0.795924 28.7434 0.795924" stroke="black" stroke-linecap="round"/>
<path d="M1.38588 46.4168C1.38587 15.4167 -2.11404 0.795929 28.7434 0.795929" stroke="black" stroke-linecap="round"/>
</svg>
