<svg width="1049" height="787" viewBox="0 0 1049 787" fill="none" xmlns="http://www.w3.org/2000/svg">
<path d="M210 523C265 811 882 733 808 511" stroke="black" stroke-linecap="round"/>
<path d="M210 523L403.5 528" stroke="black" stroke-linecap="round"/>
<path d="M350 490C357.5 496 380 514 403.5 528" stroke="black" stroke-linecap="round"/>
<path d="M210 523L207 506.5L204.214 491.179C204.103 490.565 204.574 490 205.198 490H350" stroke="black" stroke-linecap="round"/>
<path d="M808 511C619.5 535.7 420.5 536 403.5 528" stroke="black" stroke-linecap="round"/>
<path d="M227.25 504.75C227.231 504.905 226.976 505.071 226.903 505.25C226.82 505.452 227.541 505.417 227.625 505.312C227.939 504.92 227.582 504.446 227.125 504.75" stroke="black" stroke-width="3" stroke-linecap="round"/>
<path d="M256 505.5C255.493 505.563 255.397 506.25 256.125 506.25C256.972 506.25 256.791 505.521 256.25 505.25" stroke="black" stroke-width="3" stroke-linecap="round"/>
<path d="M280.75 506.25C280.694 505.8 280.361 506.201 280.264 505.861C280.133 505.402 280.75 505.401 280.75 506" stroke="black" stroke-width="3" stroke-linecap="round"/>
<path d="M308.5 505.75C308.463 506.044 307.486 506.75 308.375 506.75C309.164 506.75 309.351 506.702 309 506" stroke="black" stroke-width="3" stroke-linecap="round"/>
<path d="M335 506.5C334.25 506.594 335.228 507.768 335.944 507.194C336.813 506.499 336.445 506.25 335.5 506.25" stroke="black" stroke-width="3" stroke-linecap="round"/>
<path d="M356.5 506.75C356.464 507.037 356.027 507.353 356.625 507.486C356.822 507.53 357.544 507.595 357.694 507.444C358.558 506.581 356.888 506.5 356.5 506.5" stroke="black" stroke-width="3" stroke-linecap="round"/>
<path d="M215 543.5C292.955 559.248 500.176 571.204 660.5 563M814 541.5C777.143 548.446 742.334 555.482 700.5 559" stroke="black"/>
<path d="M660.5 563C660.5 536.165 700.5 534.457 700.5 559C700.5 588.957 660.5 589.165 660.5 563Z" stroke="black"/>
<path d="M232 583C354.109 607.633 699.307 612.678 809.5 577" stroke="black"/>
<path d="M280.5 639C419.5 668 635 663 769.5 634.5" stroke="black" stroke-linecap="round"/>
<path d="M808 511L909.634 492.035C910.746 491.827 911.582 493.03 911 494V494L811 523" stroke="black" stroke-linecap="round"/>
<path d="M534 354C551.33 445.199 544.168 492.225 544.5 532.5" stroke="black" stroke-linecap="round"/>
<path d="M509 533C516.349 459.275 517.954 415.779 516 354" stroke="black" stroke-linecap="round"/>
<path d="M499 354C490.287 438.995 483.334 478.313 471 532.5" stroke="black" stroke-linecap="round"/>
<path d="M483.219 474H545.5" stroke="black" stroke-linecap="round"/>
<path d="M490 434H544.25" stroke="black" stroke-linecap="round"/>
<path d="M494.5 399C512.18 399 522.82 399 540.5 399" stroke="black" stroke-linecap="round"/>
<path d="M309 355.5C373.333 352.5 571.6 351.8 666 359" stroke="black" stroke-linecap="round"/>
<path d="M666 359C660.333 328 648.6 248 647 176" stroke="black" stroke-linecap="round"/>
<path d="M309 355.5C317 339.167 335.6 283.2 326 176" stroke="black" stroke-linecap="round"/>
<path d="M495 8V79V154" stroke="black" stroke-linecap="round"/>
<path d="M684 154L495 79" stroke="black" stroke-linecap="round"/>
<path d="M288 154L495 79" stroke="black" stroke-linecap="round"/>
<path d="M684 154H495H288" stroke="black" stroke-linecap="round"/>
<path d="M288 176H684" stroke="black" stroke-linecap="round"/>
<path d="M684 175.988C686.352 179.711 688.345 181.549 690 181.999C691.025 181.999 691.789 181.063 692.353 179.488C693.262 171.958 692.73 155.634 692.47 149.186C692.404 147.559 691.228 145.992 689.677 146.488V146.488C688.147 146.976 686.263 149.235 684 153.988" stroke="black" stroke-linecap="round"/>
<path d="M288 176C285.612 179.764 283.588 181.745 281.907 182.2C280.866 182.2 280.091 181.253 279.518 179.661C278.594 172.047 279.135 155.532 279.399 149.023C279.464 147.417 280.647 146.061 282.235 146.308V146.308C283.473 146.5 285.702 149.197 288 154" stroke="black" stroke-linecap="round"/>
<path d="M493.536 4.25C493.474 3.75369 490.031 4.4177 491.439 6.13889C492.668 7.641 494.339 8.35727 496.189 7.36111C497.036 6.90491 499.359 5.46648 498.23 4.05556C497.053 2.58399 495.407 2 493.536 2C492.446 2 491.286 2.72832 491.286 3.875C491.286 4.35496 491.295 5.70706 491.661 6C491.88 6.17543 491.384 4.78174 491.272 4.38889C490.974 3.34466 490.932 4.53766 491.092 5.05556C491.324 5.81249 492.108 6.4528 492.98 6.19444C494.687 5.68886 494.901 5.32797 495.786 4" stroke="black" stroke-width="3" stroke-linecap="round"/>
<path d="M495 78.754C528.593 94.8742 552.5 88.1635 563 83.254C610.001 61.2772 644.701 68.1795 660 78.754" stroke="black" stroke-linecap="round"/>
<path d="M660 8.75403V43.754V78.754" stroke="black" stroke-linecap="round"/>
<path d="M495 8.75401C510.658 34.1611 544.5 32.2539 563 23.254C607.964 1.37967 639.429 -3.89438 660 8.75401" stroke="black" stroke-linecap="round"/>
<path d="M553 63.5L598.5 37" stroke="black" stroke-linecap="round"/>
<path d="M599.152 36.25C598.622 36.3162 599.652 38.1334 599.652 36" stroke="black" stroke-width="3" stroke-linecap="round"/>
<path d="M598.586 63.25C597.135 63.25 598.836 64.8507 598.836 63" stroke="black" stroke-width="3" stroke-linecap="round"/>
<path d="M552.685 36C551.009 36.1862 552.935 37.7478 552.935 36" stroke="black" stroke-width="3" stroke-linecap="round"/>
<path d="M552.028 63.5C551.989 63.8517 551.884 64.8665 552.639 64.1111C553.194 63.5562 552.781 63.5052 552.528 63" stroke="black" stroke-width="3" stroke-linecap="round"/>
<path d="M707 411C709.082 417.112 711.145 425.456 712.444 435.06M690 523C703.302 508.877 709.868 491.348 712.444 474M712.444 474C721.462 471.5 740.3 476.8 743.5 518M712.444 474C714.474 460.323 714.026 446.757 712.444 435.06M712.444 435.06C718.796 433.373 733.9 426.8 743.5 414M743.5 414C748.5 412 763.2 399.1 766 389.5C768.645 395.348 770.5 411 752.773 414M743.5 414C747.187 414.395 750.247 414.362 752.773 414M743.5 414C743.5 421.5 752.773 420.5 752.773 414" stroke="black" stroke-linecap="round"/>
<path d="M707 411C690 414.5 686.5 390.5 701.5 387.5C716.5 384.5 724 407.5 707 411Z" stroke="black" stroke-linecap="round"/>
<path d="M686.299 402.885C662.429 414.582 655.958 392.827 655 388.827C664.5 393 676 393.5 677 384C669 369 670.208 354.559 689 348.827C708.431 344.801 719.345 356.165 721.572 367.853C722.108 370.665 723.131 373.69 725.832 374.639C732.665 377.039 740.041 371.394 745.5 366.5C747 383 735.5 395.267 726 393C721.091 391.829 717.15 390.754 714.009 389.765C705.815 387.184 699.735 385.488 694.319 392.157C693.153 393.593 691.995 395.433 690.884 397.826C689.901 399.941 688.394 401.859 686.299 402.885Z" stroke="black" stroke-linecap="round"/>
<path d="M710.5 365L688 382M684 368.5L711.5 379" stroke="black" stroke-linecap="round"/>
<path d="M688 382.125V382" stroke="black" stroke-width="2" stroke-linecap="round"/>
<path d="M712.125 379C712.111 379.115 712.084 379.083 712 379.125" stroke="black" stroke-width="2" stroke-linecap="round"/>
<path d="M711.125 364.5C711.01 364.514 711.042 364.541 711 364.625" stroke="black" stroke-width="2" stroke-linecap="round"/>
<path d="M684.125 368.5H684" stroke="black" stroke-width="2" stroke-linecap="round"/>
<path d="M700.421 365.312L703.254 364.053C703.783 363.818 704.005 363.179 703.686 362.697C698.494 354.858 686.655 360.943 689.41 367.473C689.577 367.869 690.015 368.062 690.437 367.977L693.865 367.292C694.359 367.193 694.85 367.478 695.01 367.956L695.445 369.263C695.607 369.749 696.111 370.034 696.611 369.923L699.327 369.32C699.837 369.206 700.173 368.719 700.1 368.202L699.837 366.367C699.774 365.924 700.013 365.493 700.421 365.312Z" stroke="black" stroke-linecap="round"/>
<path d="M581.889 35.8116L587.035 33.4961C587.559 33.2603 587.775 32.6224 587.478 32.1306C579.721 19.2855 560.998 29.0519 565.767 39.289C565.95 39.6817 566.391 39.8839 566.815 39.7979L572.783 38.5894C573.28 38.4889 573.773 38.7756 573.932 39.2568L574.88 42.1379C575.041 42.6269 575.547 42.9138 576.049 42.8008L581.06 41.6734C581.568 41.5591 581.903 41.0738 581.831 40.5581L581.309 36.8632C581.247 36.4227 581.483 35.9941 581.889 35.8116Z" stroke="black" stroke-linecap="round"/>
<path d="M0.999993 678.844L23.6283 663.203C30.4716 658.473 39.5282 658.473 46.3715 663.203L60.0081 672.629C65.6115 676.502 72.8008 677.256 79.0864 674.632L104.89 663.856C110.913 661.341 117.784 661.923 123.298 665.416L141.093 676.686C143.342 678.11 145.861 679.104 148.502 679.433C166.544 681.681 171.324 676.175 184.634 669.14C190.858 665.849 198.22 665.601 204.844 667.987C231.585 677.619 235.263 683.91 259 678.844C285.5 673.187 292.5 656 310.5 660" stroke="black" stroke-linecap="round"/>
<path d="M742 655C764.038 666.562 765.704 665.371 784.151 663.706C785.705 663.566 787.249 663.253 788.73 662.765L820.822 652.194C826.042 650.474 831.741 650.979 836.578 653.59L851.065 661.408C856.958 664.589 864.052 664.608 869.963 661.461L888.912 651.372C895.163 648.043 902.681 648.349 908.884 651.767C914.959 655.114 919.634 657.272 923.258 658.651C932.42 662.135 945.379 661.383 954.748 658.501L976.419 651.833C981.289 650.334 986.546 650.751 991.119 652.997L1004.62 659.628C1009.64 662.096 1015.47 662.346 1020.68 660.317L1048.5 649.5" stroke="black" stroke-linecap="round"/>
<path d="M913 711.834C929.667 705.168 969 695.834 993 711.834" stroke="black" stroke-linecap="round"/>
<path d="M827 757C845 762.333 887.4 769.8 913 757" stroke="black" stroke-linecap="round"/>
<path d="M718 714.834C736.667 708.168 781.2 698.834 810 714.834" stroke="black" stroke-linecap="round"/>
<path d="M606 764C618 770 652.4 778.4 694 764" stroke="black" stroke-linecap="round"/>
<path d="M495 733.718C509.667 726.385 548.2 716.118 585 733.718" stroke="black" stroke-linecap="round"/>
<path d="M335 772C345.667 782.667 378.6 797.6 425 772" stroke="black" stroke-linecap="round"/>
<path d="M225 742.628C239.667 731.961 275.8 715.028 303 732.628" stroke="black" stroke-linecap="round"/>
<path d="M91 725.5C104.333 727.5 138.5 735.4 162.5 721" stroke="black" stroke-linecap="round"/>
<path d="M553 37C570.769 47.3489 580.731 53.1511 598.5 63.5" stroke="black" stroke-linecap="round"/>
</svg>
