<svg width="302" height="493" viewBox="0 0 302 493" fill="none"
        xmlns="http://www.w3.org/2000/svg">
<path
d="M40.222 367C32.1527 408.658 40.0955 438.169 9.22173 492M40.222 367C81.222 411 73.6377 416.697 75.222 492M40.222 367C48.0126 306.265 48.4558 283.333 40.222 268M40.222 268C75.222 315 111.222 289 75.222 225M40.222 268L26.2215 349"
stroke="black"/>
<path d="M117.222 85C117.222 85 125.968 11.3504 192.222 2" stroke="black"/>
<path d="M162.222 164C109.572 138.363 117.222 85 117.222 85" stroke="black"/>
<path d="M170 156C170 148 140.315 147.53 131.5 107.5" stroke="black"/>
<path d="M166.5 25C180 16.8333 215.8 4.99999 251 23" stroke="black"/>
<path d="M131.5 107.5C127.064 81.8519 138.5 41 166.5 25" stroke="black"/>
<path
d="M251 23C261.197 26.8333 282.074 44.3 288 73.5C289.667 84.8333 288 115 251 179.5L244.111 191.5C240.195 200.387 238.5 212.061 239.075 220.666C239.254 223.339 239.993 225.929 240.88 228.457L251.094 257.567C252.135 260.536 255.432 262.048 258.362 260.902C261.094 259.833 262.524 256.824 261.628 254.03L254.434 236.564C247.995 220.929 249.935 203.122 258.628 188.619C276.993 157.978 305.605 103.694 300 71"
stroke="black"/>
<path d="M162.222 164C162.222 164 170 164 170 156" stroke="black"/>
<path d="M192.222 2.00001C258.475 -7.35042 294 36 300 71" stroke="black"/>
<path d="M34.2218 188C-7.28465 188 -12.7782 254 34.2218 254C81.2218 254 75.7283 188 34.2218 188Z"
      stroke="black"/>
<path d="M267.5 268C246.445 268 247.225 298 267.5 298C287.775 298 288.555 268 267.5 268Z"
      stroke="black"/>
        </svg>
