<svg width="33" height="41" viewBox="0 0 33 41" fill="none" xmlns="http://www.w3.org/2000/svg">
<path d="M3.5 40.15C3.5 40.15 3.45 40.1167 3.35 40.05C3.25 40.0167 3.11667 39.9833 2.95 39.95C2.81667 39.9167 2.65 39.9 2.45 39.9C1.91667 39.7667 1.53333 39.4667 1.3 39C1.06667 38.5667 1.01667 38.0833 1.15 37.55C1.28333 37.4167 1.38333 37.1333 1.45 36.7C1.51667 36.2667 1.55 35.9167 1.55 35.65C1.68333 35.3833 1.76667 35.2 1.8 35.1C1.83333 34.9667 1.91667 34.6333 2.05 34.1C2.15 33.5333 2.31667 32.75 2.55 31.75C2.81667 30.7167 3.1 29.6167 3.4 28.45C3.73333 27.2833 4.05 26.1667 4.35 25.1C4.65 24.0333 4.91667 23.1333 5.15 22.4C5.41667 21.6667 5.6 21.25 5.7 21.15C5.7 21.15 5.7 21.1 5.7 21C5.7 20.8667 5.7 20.7333 5.7 20.6C5.7 20.6 5.71667 20.45 5.75 20.15C5.81667 19.8167 5.98333 19.45 6.25 19.05C6.38333 18.6833 6.5 18.2833 6.6 17.85C6.7 17.4167 6.75 17.1333 6.75 17C6.88333 16.8333 7.06667 16.4333 7.3 15.8C7.56667 15.1333 7.81667 14.4833 8.05 13.85C8.25 13.3167 8.46667 12.75 8.7 12.15C8.96667 11.55 9.18333 11.0333 9.35 10.6C9.55 10.1667 9.65 9.95 9.65 9.95C9.65 9.81667 9.65 9.75 9.65 9.75C9.65 9.71667 9.65 9.7 9.65 9.7C9.78333 9.56667 10.1 8.9 10.6 7.7C11.1333 6.46666 11.85 4.88333 12.75 2.95C12.8833 2.68333 13.05 2.38333 13.25 2.05C13.45 1.71667 13.55 1.48333 13.55 1.35C13.7167 1.08333 13.95 0.966665 14.25 0.999998C14.55 0.999998 14.85 1.1 15.15 1.3C15.4833 1.5 15.7333 1.78333 15.9 2.15L16.4 2.95L14.6 6.55C14.0667 7.48333 13.6167 8.33333 13.25 9.1C12.9167 9.86666 12.75 10.3167 12.75 10.45C12.75 10.45 12.65 10.7167 12.45 11.25C12.25 11.7833 12.0167 12.4167 11.75 13.15C11.4833 13.8833 11.25 14.55 11.05 15.15C10.6833 16.1833 10.3333 17.0333 10 17.7C9.7 18.3667 9.55 18.7667 9.55 18.9C9.55 18.8333 9.91667 18.7833 10.65 18.75C11.3833 18.7167 12.3167 18.7 13.45 18.7C14.5833 18.7 15.7333 18.7 16.9 18.7C18.1 18.6667 19.15 18.65 20.05 18.65C20.9833 18.6167 21.6167 18.5667 21.95 18.5L24.55 18.25L26.25 13.1C26.5167 12.1667 26.8667 11.0333 27.3 9.7C27.7333 8.36666 28.1167 7.23333 28.45 6.3C28.9833 4.76666 29.4 3.81666 29.7 3.45C30 3.08333 30.35 2.9 30.75 2.9C30.85 2.9 30.9833 2.93333 31.15 3C31.35 3.03333 31.5333 3.11666 31.7 3.25C31.9 3.35 32.0333 3.5 32.1 3.7C32.5 4.06666 32.6833 4.48333 32.65 4.95C32.65 5.41666 32.3833 6.03333 31.85 6.8C31.3167 7.7 30.8667 8.68333 30.5 9.75C30.1667 10.7833 29.8667 11.6333 29.6 12.3C29.6 12.7 29.55 13.0333 29.45 13.3C29.35 13.5333 29.2333 13.7167 29.1 13.85C29.0333 13.9167 28.9 14.1667 28.7 14.6C28.5 15.0333 28.3167 15.4667 28.15 15.9C27.9833 16.3333 27.9 16.6 27.9 16.7C27.9 16.9333 27.85 17.2167 27.75 17.55C27.65 17.8833 27.5333 18.1167 27.4 18.25C27.3333 18.45 27.1833 18.95 26.95 19.75C26.7167 20.55 26.45 21.5 26.15 22.6C25.85 23.6667 25.5333 24.7167 25.2 25.75C24.8667 26.75 24.5667 27.5833 24.3 28.25C24.3 28.4833 24.2167 28.7833 24.05 29.15C23.8833 29.4833 23.8 29.7833 23.8 30.05C23.6667 30.45 23.5 30.95 23.3 31.55C23.1 32.15 23 32.5333 23 32.7C22.8333 33.4667 22.65 34.25 22.45 35.05C22.2833 35.85 22.1333 36.5333 22 37.1C21.9 37.7 21.85 38.05 21.85 38.15C21.7167 38.2833 21.5167 38.3 21.25 38.2C20.9833 38.1 20.6667 37.9833 20.3 37.85C19.6667 37.4833 19.2833 37.0833 19.15 36.65C19.05 36.25 19.1833 35.6667 19.55 34.9C19.7167 34.6333 19.9167 33.9833 20.15 32.95C20.4167 31.8833 20.6833 30.8333 20.95 29.8C21.15 29.3 21.3667 28.6333 21.6 27.8C21.8333 26.9333 22.0667 26.0667 22.3 25.2C22.5333 24.3 22.7333 23.55 22.9 22.95C23.0667 22.3167 23.1833 21.9667 23.25 21.9C23.25 21.7667 23.25 21.65 23.25 21.55C23.25 21.45 23.25 21.4 23.25 21.4C23.1833 21.3333 22.7667 21.2833 22 21.25C21.2333 21.1833 20.2833 21.1667 19.15 21.2C18.0167 21.2 16.8333 21.2333 15.6 21.3C14.4 21.3333 13.3167 21.4167 12.35 21.55C11.9833 21.55 11.5667 21.55 11.1 21.55C10.6333 21.55 10.2667 21.55 10 21.55C9.63333 21.55 9.31667 21.55 9.05 21.55C8.81667 21.55 8.7 21.55 8.7 21.55C8.66667 21.65 8.55 22 8.35 22.6C8.15 23.2 7.91667 23.9333 7.65 24.8C7.38333 25.6333 7.1 26.5 6.8 27.4C6.53333 28.2667 6.3 29.0667 6.1 29.8C5.93333 30.5 5.81667 31 5.75 31.3C5.61667 31.9 5.43333 32.65 5.2 33.55C5 34.45 4.76667 35.3667 4.5 36.3C4.26667 37.2667 4.05 38.1 3.85 38.8C3.68333 39.5 3.56667 39.95 3.5 40.15Z" fill="black"/>
</svg>
