<svg width="364" height="165" viewBox="0 0 364 165" fill="none" xmlns="http://www.w3.org/2000/svg">
<path d="M2 99C8.55867 99.4099 15.0729 100.673 21.5556 101.667C46.0584 105.423 70.7813 106.59 95.5556 105.556C110.795 104.919 126.484 102.611 141.333 99.1111C155.514 95.769 170.869 91.7695 183 83.3333C193.33 76.1498 202.686 65.469 203.778 52.4445C204.6 42.64 200.861 32.3573 198.444 23C196.445 15.2577 189.499 3.24802 180.556 2.05556C177.853 1.69519 175.903 3.66202 173.833 5.11112C167.39 9.62157 161.092 14.3876 155.111 19.5C136.183 35.6802 123.493 63.0897 127.889 88.0556C130.991 105.674 142.585 119.46 154.222 132.444C165.37 144.883 179.711 154.457 195.889 159C217.654 165.112 243.008 163.576 265.222 161.667C297.731 158.873 329.945 151.864 362 146" stroke="black" stroke-width="3" stroke-linecap="round"/>
</svg>
