<svg width="294" height="277" viewBox="0 0 294 277" fill="none" xmlns="http://www.w3.org/2000/svg">
<rect width="294" height="277" fill="#F5F5F5"/>
<path d="M53 177C53.4441 172.559 56.2953 168.199 58.1667 164.222C62.5858 154.831 67.2628 145.62 71.4445 136.111C82.4512 111.082 93.1073 85.1933 97 57.9444C99.1876 42.6315 104.755 28.2797 109.222 13.5556C110.169 10.4332 112 6.93972 112 3.61111C112 -3.97608 113.923 18.6645 115.056 26.1667C122.636 76.3888 140.53 124.759 160.667 171.111C167.785 187.497 175.411 203.797 181.333 220.667C184.187 228.795 186.581 237.162 190.444 244.889C194.844 253.687 197.889 283.281 197.889 273.444C197.889 270.612 192.822 263.118 191.556 260.778C181.316 241.856 166.354 225.426 151.667 209.889C141.328 198.952 130.451 188.393 120.611 177C113.317 168.554 107.317 159.029 99.5556 151C95.0306 146.319 91.0002 141.469 86 137.222C81.56 133.451 76.267 131.698 71.3333 128.778C61.8872 123.187 54.0437 115.029 44.8333 108.889C33.751 101.501 20.5322 98.758 9.66667 91.2222C7.31556 89.5916 5.15416 87.5325 2.66667 86.1111C1.46067 85.422 5.44539 86.0011 6.83334 86.0556C12.6696 86.2844 18.2757 87.4726 24 88.5556C55.3371 94.4842 87.5279 92.7288 119.222 94.2222C144.879 95.4312 170.294 96 196 96C218.444 96 240.889 96 263.333 96C272.259 96 281.185 96 290.111 96C295.446 96 289.26 97.1259 287.444 97.4444C257.183 102.753 226.984 114.269 198.833 126.333C177.62 135.425 158.138 147.574 138 158.778C120.918 168.281 102.176 174.464 85.1111 183.944C72.7745 190.798 60.5706 197.794 48 204.222C37.9175 209.378 27.4607 215.07 18.1111 221.444C15.3679 223.315 12.6122 225.473 10.2222 227.778C7.66807 230.241 7.26133 230.814 10.3333 227.667C20.8709 216.872 29.0551 203.313 42 195.222C45.7633 192.87 44.8533 186.702 47.7778 183.778C50.9195 180.636 53 177.405 53 173" stroke="black" stroke-width="3" stroke-linecap="round"/>
</svg>
